<?xml version="1.0" standalone="no"?>
<!DOCTYPE svg PUBLIC "-//W3C//DTD SVG 20010904//EN"
 "http://www.w3.org/TR/2001/REC-SVG-20010904/DTD/svg10.dtd">
<svg version="1.0" xmlns="http://www.w3.org/2000/svg"
 width="1104.000000pt" height="1104.000000pt" viewBox="0 0 1104.000000 1104.000000"
 preserveAspectRatio="xMidYMid meet">
<metadata>
Created by potrace 1.11, written by Peter Selinger 2001-2013
</metadata>
<g transform="translate(0.000000,1104.000000) scale(0.100000,-0.100000)"
fill="#000000" stroke="none">
<path d="M1870 5474 l0 -5436 43 34 c107 87 3523 2805 3534 2811 7 5 411 -306
1060 -816 576 -453 1386 -1088 1798 -1411 413 -324 758 -596 768 -604 16 -14
17 245 17 5421 l0 5437 -3610 0 -3610 0 0 -5436z m3265 3880 c1136 -4 1849 -2
2149 5 247 6 451 9 453 7 3 -2 -2 -121 -11 -263 -36 -593 -48 -1326 -26 -1553
5 -52 12 -128 16 -168 l7 -72 -224 2 -224 3 -12 40 c-6 22 -36 128 -66 235
-132 471 -290 800 -487 1012 -117 127 -290 245 -389 264 l-31 7 0 -1789 c0
-1154 4 -1821 10 -1878 6 -49 19 -109 29 -132 36 -81 120 -102 459 -111 l212
-6 0 -224 0 -224 -447 8 c-575 10 -1618 10 -2165 0 l-428 -8 0 224 0 224 218
6 c376 11 427 30 470 167 15 51 17 203 19 1902 l4 1847 -53 -18 c-199 -69
-394 -240 -536 -473 -131 -213 -249 -517 -342 -878 -23 -91 -45 -172 -50 -180
-6 -12 -43 -15 -221 -18 -117 -1 -218 -1 -225 2 -7 3 -7 30 3 98 33 224 27
1062 -12 1683 -8 127 -15 241 -15 253 l0 24 108 -6 c59 -3 872 -9 1807 -12z"/>
</g>
</svg>
