<svg width="1037" height="292" fill="none" xmlns="http://www.w3.org/2000/svg"><path d="M495.066 39.824c-2.448.136-4.25.408-5.406.816-1.088.408-1.836 1.19-2.244 2.346-.408 1.156-.612 3.026-.612 5.61v52.632c0 1.904.136 3.298.408 4.182.272.884.748 1.496 1.428 1.836.68.272 1.802.408 3.366.408h3.366c2.38 0 4.964-1.19 7.752-3.57 2.788-2.38 5.304-5.508 7.548-9.384 2.244-3.944 3.74-8.024 4.488-12.24h2.346c-.204 2.448-.306 5.576-.306 9.384 0 7.344.238 13.396.714 18.156-4.624-.204-12.41-.306-23.358-.306-15.912 0-27.812.102-35.7.306v-2.04c2.176-.136 3.74-.408 4.692-.816 1.02-.408 1.7-1.19 2.04-2.346.34-1.156.51-3.026.51-5.61V48.596c0-2.584-.204-4.454-.612-5.61-.34-1.156-.986-1.938-1.938-2.346-.952-.408-2.516-.68-4.692-.816v-2.04c3.876.204 9.928.306 18.156.306 7.82 0 13.838-.102 18.054-.306v2.04zm67.83 0c-2.176.136-3.774.408-4.794.816-.952.408-1.598 1.19-1.938 2.346-.34 1.156-.51 3.026-.51 5.61v50.592c0 2.584.17 4.454.51 5.61.408 1.156 1.088 1.938 2.04 2.346.952.408 2.516.68 4.692.816V110c-3.944-.204-9.622-.306-17.034-.306-8.228 0-14.28.102-18.156.306v-2.04c2.176-.136 3.74-.408 4.692-.816 1.02-.408 1.7-1.19 2.04-2.346.34-1.156.51-3.026.51-5.61V48.596c0-2.584-.204-4.454-.612-5.61-.34-1.156-.986-1.938-1.938-2.346-.952-.408-2.516-.68-4.692-.816v-2.04c3.876.204 9.928.306 18.156.306 7.344 0 13.022-.102 17.034-.306v2.04zm48.795 32.334c6.664.34 12.138 1.394 16.422 3.162 4.352 1.768 7.514 3.978 9.486 6.63 1.972 2.584 2.958 5.338 2.958 8.262 0 6.664-2.652 11.628-7.956 14.892-5.304 3.264-12.852 4.896-22.644 4.896-1.972 0-3.638-.034-4.998-.102-4.624-.136-9.146-.204-13.566-.204-7.956 0-13.872.102-17.748.306v-2.04c2.176-.136 3.74-.408 4.692-.816 1.02-.408 1.7-1.19 2.04-2.346.34-1.156.51-3.026.51-5.61V48.596c0-2.584-.204-4.454-.612-5.61-.34-1.156-.986-1.938-1.938-2.346-.952-.408-2.516-.68-4.692-.816v-2.04c3.876.204 9.724.306 17.544.306l11.73-.102c1.36-.068 2.924-.102 4.692-.102 8.976 0 15.81 1.462 20.502 4.386 4.76 2.856 7.14 6.732 7.14 11.628 0 2.516-.884 5.066-2.652 7.65-1.768 2.516-4.42 4.726-7.956 6.63-3.536 1.904-7.854 3.162-12.954 3.774v.204zm-4.59-32.334c-1.564 0-2.754.238-3.57.714-.748.476-1.258 1.326-1.53 2.55-.272 1.224-.408 3.06-.408 5.508v23.052h2.754c3.672 0 6.222-1.496 7.65-4.488 1.496-3.06 2.244-7.106 2.244-12.138 0-5.168-.578-8.976-1.734-11.424-1.088-2.516-2.89-3.774-5.406-3.774zm1.122 67.83c7.276 0 10.914-5.95 10.914-17.85 0-5.372-1.292-9.452-3.876-12.24-2.584-2.788-6.664-4.182-12.24-4.182h-1.428v25.806c0 2.448.17 4.25.51 5.406.34 1.156.952 1.972 1.836 2.448.952.408 2.38.612 4.284.612zm115.476-1.734c-2.04 2.04-4.284 3.468-6.732 4.284-2.448.816-5.304 1.224-8.568 1.224-4.692 0-8.33-.816-10.914-2.448-2.584-1.7-4.182-4.556-4.794-8.568l-1.53-10.2c-.68-4.76-1.632-8.364-2.856-10.812-1.156-2.448-2.924-3.672-5.304-3.672h-4.59v23.46c0 2.584.17 4.454.51 5.61.408 1.156 1.088 1.938 2.04 2.346.952.408 2.516.68 4.692.816V110c-3.944-.204-9.622-.306-17.034-.306-8.228 0-14.28.102-18.156.306v-2.04c2.176-.136 3.74-.408 4.692-.816 1.02-.408 1.7-1.19 2.04-2.346.34-1.156.51-3.026.51-5.61V48.596c0-2.584-.204-4.454-.612-5.61-.34-1.156-.986-1.938-1.938-2.346-.952-.408-2.516-.68-4.692-.816v-2.04c3.876.204 9.724.306 17.544.306l11.73-.102c1.36-.068 2.924-.102 4.692-.102 10.336 0 18.02 1.462 23.052 4.386 5.1 2.924 7.65 7.378 7.65 13.362 0 5.1-1.904 9.452-5.712 13.056-3.808 3.604-10.2 5.814-19.176 6.63 6.936.476 12.172 1.802 15.708 3.978 3.536 2.108 5.712 5.236 6.528 9.384l2.142 10.608c.476 2.516 1.054 4.25 1.734 5.202.68.952 1.632 1.428 2.856 1.428s2.278-.442 3.162-1.326l1.326 1.326zm-39.78-66.096c-1.564 0-2.754.238-3.57.714-.748.476-1.258 1.326-1.53 2.55-.272 1.224-.408 3.06-.408 5.508v25.092h2.754c4.828 0 8.126-1.462 9.894-4.386 1.768-2.992 2.652-7.174 2.652-12.546 0-5.576-.782-9.792-2.346-12.648-1.496-2.856-3.978-4.284-7.446-4.284zm107.48 61.608c.884 2.176 1.836 3.808 2.856 4.896 1.088 1.02 2.142 1.564 3.162 1.632V110c-4.896-.204-11.084-.306-18.564-.306-7.752 0-13.464.102-17.136.306v-2.04c2.584-.136 4.42-.442 5.508-.918 1.088-.544 1.632-1.462 1.632-2.754 0-1.224-.408-2.856-1.224-4.896l-6.018-16.728h-20.604l-1.734 4.59c-2.244 5.78-3.366 10.2-3.366 13.26 0 2.788.782 4.692 2.346 5.712 1.564 1.02 3.876 1.598 6.936 1.734V110c-5.1-.204-9.554-.306-13.362-.306-3.196 0-5.814.102-7.854.306v-2.04c1.7-.272 3.298-1.326 4.794-3.162 1.496-1.836 3.026-4.76 4.59-8.772l22.644-58.242c2.176.136 3.978.204 5.406.204 1.36 0 3.128-.068 5.304-.204l24.684 63.648zm-30.498-20.808l-9.282-25.5-9.792 25.5h19.074zm76.895-40.8c-2.176.136-3.774.408-4.794.816-.952.408-1.598 1.19-1.938 2.346-.34 1.156-.51 3.026-.51 5.61v50.592c0 2.584.17 4.454.51 5.61.408 1.156 1.088 1.938 2.04 2.346.952.408 2.516.68 4.692.816V110c-3.944-.204-9.622-.306-17.034-.306-8.228 0-14.28.102-18.156.306v-2.04c2.176-.136 3.74-.408 4.692-.816 1.02-.408 1.7-1.19 2.04-2.346.34-1.156.51-3.026.51-5.61V48.596c0-2.584-.204-4.454-.612-5.61-.34-1.156-.986-1.938-1.938-2.346-.952-.408-2.516-.68-4.692-.816v-2.04c3.876.204 9.928.306 18.156.306 7.344 0 13.022-.102 17.034-.306v2.04zm83.985 66.096c-2.04 2.04-4.284 3.468-6.732 4.284-2.448.816-5.304 1.224-8.568 1.224-4.692 0-8.33-.816-10.914-2.448-2.584-1.7-4.182-4.556-4.794-8.568l-1.53-10.2c-.68-4.76-1.632-8.364-2.856-10.812-1.156-2.448-2.924-3.672-5.304-3.672h-4.59v23.46c0 2.584.17 4.454.51 5.61.408 1.156 1.088 1.938 2.04 2.346.952.408 2.516.68 4.692.816V110c-3.944-.204-9.622-.306-17.034-.306-8.228 0-14.28.102-18.156.306v-2.04c2.176-.136 3.74-.408 4.692-.816 1.02-.408 1.7-1.19 2.04-2.346.34-1.156.51-3.026.51-5.61V48.596c0-2.584-.204-4.454-.612-5.61-.34-1.156-.986-1.938-1.938-2.346-.952-.408-2.516-.68-4.692-.816v-2.04c3.876.204 9.724.306 17.544.306l11.73-.102c1.36-.068 2.924-.102 4.692-.102 10.336 0 18.02 1.462 23.052 4.386 5.1 2.924 7.65 7.378 7.65 13.362 0 5.1-1.904 9.452-5.712 13.056-3.808 3.604-10.2 5.814-19.176 6.63 6.936.476 12.172 1.802 15.708 3.978 3.536 2.108 5.712 5.236 6.528 9.384l2.142 10.608c.476 2.516 1.054 4.25 1.734 5.202.68.952 1.632 1.428 2.856 1.428s2.278-.442 3.162-1.326l1.326 1.326zm-39.78-66.096c-1.564 0-2.754.238-3.57.714-.748.476-1.258 1.326-1.53 2.55-.272 1.224-.408 3.06-.408 5.508v25.092h2.754c4.828 0 8.126-1.462 9.894-4.386 1.768-2.992 2.652-7.174 2.652-12.546 0-5.576-.782-9.792-2.346-12.648-1.496-2.856-3.978-4.284-7.446-4.284zm80.246 0c-2.176.136-3.774.408-4.794.816-.952.408-1.598 1.19-1.938 2.346-.34 1.156-.51 3.026-.51 5.61v50.592c0 2.584.17 4.454.51 5.61.408 1.156 1.088 1.938 2.04 2.346.952.408 2.516.68 4.692.816V110c-3.944-.204-9.622-.306-17.034-.306-8.228 0-14.28.102-18.156.306v-2.04c2.176-.136 3.74-.408 4.692-.816 1.02-.408 1.7-1.19 2.04-2.346.34-1.156.51-3.026.51-5.61V48.596c0-2.584-.204-4.454-.612-5.61-.34-1.156-.986-1.938-1.938-2.346-.952-.408-2.516-.68-4.692-.816v-2.04c3.876.204 9.928.306 18.156.306 7.344 0 13.022-.102 17.034-.306v2.04zm69.093 53.04c0 6.936.24 12.648.71 17.136-4.62-.204-12.41-.306-23.35-.306-15.915 0-27.815.102-35.703.306v-2.04c2.176-.136 3.74-.408 4.692-.816 1.02-.408 1.7-1.19 2.04-2.346.34-1.156.51-3.026.51-5.61V48.596c0-2.584-.204-4.454-.612-5.61-.34-1.156-.986-1.938-1.938-2.346-.952-.408-2.516-.68-4.692-.816v-2.04c7.888.204 19.788.306 35.703.306 9.99 0 17.1-.102 21.31-.306-.47 6.392-.71 12.104-.71 17.136 0 3.128.1 5.576.31 7.344h-2.35c-1.22-7.888-3.5-13.532-6.83-16.932-3.34-3.468-7.31-5.202-11.94-5.202h-1.32c-1.84 0-3.2.17-4.08.51-.82.272-1.4.85-1.74 1.734-.27.816-.41 2.21-.41 4.182v26.112h1.02c3.54 0 6.57-1.394 9.08-4.182 2.52-2.788 4.12-5.882 4.8-9.282h2.34c-.2 2.856-.3 6.052-.3 9.588v4.896c0 3.468.2 8.296.61 14.484h-2.35c-.61-3.876-2.21-7.072-4.79-9.588-2.52-2.584-5.65-3.876-9.39-3.876h-1.02v26.52c0 1.972.14 3.4.41 4.284.34.816.92 1.394 1.74 1.734.88.272 2.24.408 4.08.408h3.36c3.95 0 7.69-1.904 11.22-5.712 3.54-3.876 6.05-10.03 7.55-18.462h2.35c-.21 2.448-.31 5.576-.31 9.384zM547.936 161.712c-.635 10.064-.952 19.04-.952 26.928 0 4.171.136 7.435.408 9.792h-3.128c-2.992-11.877-6.845-20.445-11.56-25.704-4.715-5.259-9.792-7.888-15.232-7.888h-.136v77.792c0 3.808.363 6.573 1.088 8.296.816 1.723 2.221 2.901 4.216 3.536 2.085.544 5.349.816 9.792.816V258c-12.784-.272-22.712-.408-29.784-.408-6.437 0-15.776.136-28.016.408v-2.72c4.443 0 7.661-.272 9.656-.816 2.085-.635 3.491-1.813 4.216-3.536.816-1.723 1.224-4.488 1.224-8.296V164.84h-.136c-5.531 0-10.653 2.629-15.368 7.888-4.624 5.168-8.432 13.736-11.424 25.704h-3.128c.272-2.357.408-5.621.408-9.792 0-7.888-.317-16.864-.952-26.928 8.613.272 23.437.408 44.472.408 20.944 0 35.723-.136 44.336-.408zM657.55 252.56c-2.72 2.72-5.712 4.624-8.976 5.712-3.264 1.088-7.072 1.632-11.424 1.632-6.256 0-11.107-1.088-14.552-3.264-3.446-2.267-5.576-6.075-6.392-11.424l-2.04-13.6c-.907-6.347-2.176-11.152-3.808-14.416-1.542-3.264-3.899-4.896-7.072-4.896h-6.12v31.28c0 3.445.226 5.939.68 7.48.544 1.541 1.45 2.584 2.72 3.128 1.269.544 3.354.907 6.256 1.088V258c-5.259-.272-12.83-.408-22.712-.408-10.971 0-19.04.136-24.208.408v-2.72c2.901-.181 4.986-.544 6.256-1.088 1.36-.544 2.266-1.587 2.72-3.128.453-1.541.68-4.035.68-7.48v-67.456c0-3.445-.272-5.939-.816-7.48-.454-1.541-1.315-2.584-2.584-3.128-1.27-.544-3.355-.907-6.256-1.088v-2.72c5.168.272 12.965.408 23.392.408l15.64-.136c1.813-.091 3.898-.136 6.256-.136 13.781 0 24.026 1.949 30.736 5.848 6.8 3.899 10.2 9.837 10.2 17.816 0 6.8-2.539 12.603-7.616 17.408-5.078 4.805-13.6 7.752-25.568 8.84 9.248.635 16.229 2.403 20.944 5.304 4.714 2.811 7.616 6.981 8.704 12.512l2.856 14.144c.634 3.355 1.405 5.667 2.312 6.936.906 1.269 2.176 1.904 3.808 1.904 1.632 0 3.037-.589 4.216-1.768l1.768 1.768zm-53.04-88.128c-2.086 0-3.672.317-4.76.952-.998.635-1.678 1.768-2.04 3.4-.363 1.632-.544 4.08-.544 7.344v33.456h3.672c6.437 0 10.834-1.949 13.192-5.848 2.357-3.989 3.536-9.565 3.536-16.728 0-7.435-1.043-13.056-3.128-16.864-1.995-3.808-5.304-5.712-9.928-5.712zm141.639 82.144c1.179 2.901 2.448 5.077 3.808 6.528 1.451 1.36 2.856 2.085 4.216 2.176V258c-6.528-.272-14.778-.408-24.752-.408-10.336 0-17.952.136-22.848.408v-2.72c3.446-.181 5.894-.589 7.344-1.224 1.451-.725 2.176-1.949 2.176-3.672 0-1.632-.544-3.808-1.632-6.528l-8.024-22.304h-27.472l-2.312 6.12c-2.992 7.707-4.488 13.6-4.488 17.68 0 3.717 1.043 6.256 3.128 7.616 2.086 1.36 5.168 2.131 9.248 2.312V258c-6.8-.272-12.738-.408-17.816-.408-4.261 0-7.752.136-10.472.408v-2.72c2.267-.363 4.398-1.768 6.392-4.216 1.995-2.448 4.035-6.347 6.12-11.696l30.192-77.656c2.902.181 5.304.272 7.208.272 1.814 0 4.171-.091 7.072-.272l32.912 84.864zm-40.664-27.744l-12.376-34-13.056 34h25.432zm107.764-59.024c5.44 0 10.064.771 13.872 2.312s7.526 3.717 11.152 6.528c.907.816 1.768 1.224 2.584 1.224 1.814 0 2.992-2.72 3.536-8.16h3.128c-.362 6.437-.544 17.771-.544 34h-3.128c-.634-7.253-1.813-12.965-3.536-17.136-1.722-4.171-4.714-7.661-8.976-10.472-4.261-2.72-8.477-4.08-12.648-4.08-9.429 0-16.048 4.533-19.856 13.6-3.808 9.067-5.712 19.901-5.712 32.504 0 12.603 1.904 23.437 5.712 32.504 3.808 9.067 10.427 13.6 19.856 13.6 4.171 0 8.387-1.36 12.648-4.08 4.262-2.629 7.254-6.165 8.976-10.608 1.723-4.443 2.902-10.744 3.536-18.904h3.128c0 16.955.182 28.741.544 35.36h-3.128c-.272-2.901-.68-4.941-1.224-6.12-.453-1.269-1.133-1.904-2.04-1.904-.725 0-1.677.363-2.856 1.088-4.08 2.901-7.978 5.123-11.696 6.664-3.717 1.451-8.205 2.176-13.464 2.176-10.245 0-19.221-1.949-26.928-5.848-7.706-3.899-13.69-9.52-17.952-16.864-4.261-7.435-6.392-16.275-6.392-26.52 0-9.973 2.176-18.813 6.528-26.52 4.352-7.707 10.427-13.691 18.224-17.952 7.798-4.261 16.683-6.392 26.656-6.392zm127.781 75.344c0 9.248.317 16.864.952 22.848-6.166-.272-16.547-.408-31.144-.408-21.216 0-37.083.136-47.6.408v-2.72c2.901-.181 4.986-.544 6.256-1.088 1.36-.544 2.266-1.587 2.72-3.128.453-1.541.68-4.035.68-7.48v-67.456c0-3.445-.272-5.939-.816-7.48-.454-1.541-1.315-2.584-2.584-3.128-1.27-.544-3.355-.907-6.256-1.088v-2.72c10.517.272 26.384.408 47.6.408 13.328 0 22.802-.136 28.424-.408-.635 8.523-.952 16.139-.952 22.848 0 4.171.136 7.435.408 9.792h-3.128c-1.632-10.517-4.67-18.043-9.112-22.576-4.443-4.624-9.747-6.936-15.912-6.936h-1.768c-2.448 0-4.262.227-5.44.68-1.088.363-1.859 1.133-2.312 2.312-.363 1.088-.544 2.947-.544 5.576v34.816h1.36c4.714 0 8.749-1.859 12.104-5.576 3.354-3.717 5.485-7.843 6.392-12.376h3.128c-.272 3.808-.408 8.069-.408 12.784v6.528c0 4.624.272 11.061.816 19.312h-3.128c-.816-5.168-2.947-9.429-6.392-12.784-3.355-3.445-7.526-5.168-12.512-5.168h-1.36v35.36c0 2.629.181 4.533.544 5.712.453 1.088 1.224 1.859 2.312 2.312 1.178.363 2.992.544 5.44.544h4.488c5.258 0 10.245-2.539 14.96-7.616 4.714-5.168 8.069-13.373 10.064-24.616h3.128c-.272 3.264-.408 7.435-.408 12.512zm52.925-75.344c5.168 0 9.335.499 12.515 1.496 3.26.907 6.43 2.221 9.52 3.944.99.544 1.86.997 2.58 1.36.82.363 1.5.544 2.04.544.82 0 1.45-.453 1.9-1.36.46-.997.82-2.539 1.09-4.624h3.13c-.45 6.528-.68 17.589-.68 33.184h-3.13c-.36-5.168-1.54-10.109-3.53-14.824-2-4.715-4.72-8.568-8.16-11.56-3.45-2.992-7.44-4.488-11.971-4.488-4.171 0-7.526 1.133-10.064 3.4-2.539 2.176-3.808 5.259-3.808 9.248 0 3.083.68 5.757 2.04 8.024 1.36 2.267 3.354 4.488 5.984 6.664 2.629 2.085 6.939 5.213 12.919 9.384.54.272 1.04.589 1.5.952.54.363 1.04.725 1.49 1.088 4.99 3.445 8.98 6.528 11.97 9.248 2.99 2.629 5.4 5.712 7.21 9.248 1.9 3.536 2.85 7.616 2.85 12.24 0 5.893-1.67 10.88-5.03 14.96-3.26 3.989-7.7 6.981-13.33 8.976-5.62 1.995-11.83 2.992-18.627 2.992-5.531 0-10.155-.453-13.872-1.36-3.627-.907-7.027-2.131-10.2-3.672-1.995-1.269-3.536-1.904-4.624-1.904-.816 0-1.451.499-1.904 1.496-.454.907-.816 2.403-1.088 4.488h-3.128c.362-6.165.544-19.312.544-39.44h3.128c.634 10.789 2.901 19.539 6.8 26.248 3.898 6.709 9.882 10.064 17.952 10.064 4.986 0 8.93-1.179 11.832-3.536 2.987-2.357 4.487-5.621 4.487-9.792 0-5.168-1.63-9.565-4.895-13.192-3.174-3.717-8.16-7.843-14.96-12.376-5.44-3.627-9.792-6.8-13.056-9.52-3.264-2.72-5.939-5.848-8.024-9.384-2.086-3.627-3.128-7.797-3.128-12.512 0-5.712 1.541-10.472 4.624-14.28 3.082-3.899 7.162-6.755 12.24-8.568 5.168-1.904 10.789-2.856 16.864-2.856z" fill="#092F47"/><rect x="55.7913" y="18.1845" width="53.0803" height="233.649" rx="2" fill="#fff"/><rect x="109.803" y="35.0992" width="53.0803" height="233.649" rx="2" fill="#fff"/><rect x="163.193" y="18.2723" width="53.0803" height="233.649" rx="2" fill="#fff"/><rect x="216.907" y="35.0992" width="53.0803" height="233.649" rx="2" fill="#fff"/><rect x="270.892" y="18.7416" width="53.4941" height="235.47" rx="2" fill="#fff"/><rect x="326.322" y="35.0992" width="53.0803" height="233.649" rx="2" fill="#fff"/><path d="M0 120.293L323.916 15.0949l92.872 178.0271-271.819 64.737L0 120.293z" fill="#F9F7EB"/><path d="M102.799 20.8085H62.795c-3.183 0-5.7633 2.5804-5.7633 5.7633V246.207c0 3.182 2.5803 5.763 5.7633 5.763h40.004c3.183 0 5.763-2.581 5.763-5.763V26.5718c0-3.1829-2.58-5.7633-5.763-5.7633zm-48.5306 5.7633c0-4.7091 3.8175-8.5265 8.5266-8.5265h40.004c4.709 0 8.526 3.8174 8.526 8.5265V246.207c0 4.709-3.817 8.526-8.526 8.526H62.795c-4.7091 0-8.5266-3.817-8.5266-8.526V26.5718zM210.214 20.8085h-40.003c-3.183 0-5.764 2.5804-5.764 5.7633V246.207c0 3.182 2.581 5.763 5.764 5.763h40.003c3.183 0 5.763-2.581 5.763-5.763V26.5718c0-3.1829-2.58-5.7633-5.763-5.7633zm-48.53 5.7633c0-4.7091 3.817-8.5265 8.527-8.5265h40.003c4.709 0 8.527 3.8174 8.527 8.5265V246.207c0 4.709-3.818 8.526-8.527 8.526h-40.003c-4.71 0-8.527-3.817-8.527-8.526V26.5718zM317.641 20.8085h-40.004c-3.183 0-5.763 2.5804-5.763 5.7633V246.207c0 3.182 2.58 5.763 5.763 5.763h40.004c3.183 0 5.763-2.581 5.763-5.763V26.5718c0-3.1829-2.58-5.7633-5.763-5.7633zm-48.53 5.7633c0-4.7091 3.817-8.5265 8.526-8.5265h40.004c4.709 0 8.526 3.8174 8.526 8.5265V246.207c0 4.709-3.817 8.526-8.526 8.526h-40.004c-4.709 0-8.526-3.817-8.526-8.526V26.5718z" fill="#092F47" stroke="#092F47" stroke-width="2"/><path d="M79.4248 47.6826c0-1.4826 1.2019-2.6844 2.6844-2.6844 1.4826 0 2.6844 1.2018 2.6844 2.6844V161.186c0 1.483-1.2018 2.685-2.6844 2.685-1.4825 0-2.6844-1.202-2.6844-2.685V47.6826zM187.533 62.0198c0-1.4825 1.202-2.6844 2.684-2.6844 1.483 0 2.684 1.2019 2.684 2.6845v78.7621c0 1.482-1.201 2.684-2.684 2.684-1.482 0-2.684-1.202-2.684-2.684V62.0198zM294.954 36.6606c0-1.4826 1.202-2.6844 2.685-2.6844 1.482 0 2.684 1.2018 2.684 2.6844v45.3493c0 1.4825-1.202 2.6844-2.684 2.6844-1.483 0-2.685-1.2018-2.685-2.6844V36.6606zM294.954 186.357c0-1.483 1.202-2.685 2.685-2.685 1.482 0 2.684 1.202 2.684 2.685v45.349c0 1.483-1.202 2.685-2.684 2.685-1.483 0-2.685-1.202-2.685-2.685v-45.349zM74.0563 187.466c0-1.483 1.2018-2.685 2.6844-2.685h10.7376c1.4825 0 2.6844 1.202 2.6844 2.685 0 1.482-1.2019 2.684-2.6844 2.684H76.7407c-1.4826 0-2.6844-1.202-2.6844-2.684zM74.0563 206.347c0-1.483 1.2018-2.684 2.6844-2.684h10.7376c1.4825 0 2.6844 1.201 2.6844 2.684 0 1.482-1.2019 2.684-2.6844 2.684H76.7407c-1.4826 0-2.6844-1.202-2.6844-2.684zM74.0563 225.228c0-1.482 1.2018-2.684 2.6844-2.684h10.7376c1.4825 0 2.6844 1.202 2.6844 2.684 0 1.483-1.2019 2.685-2.6844 2.685H76.7407c-1.4826 0-2.6844-1.202-2.6844-2.685zM289.586 111.94c0-1.483 1.201-2.685 2.684-2.685h10.738c1.482 0 2.684 1.202 2.684 2.685 0 1.482-1.202 2.684-2.684 2.684H292.27c-1.483 0-2.684-1.202-2.684-2.684zM289.586 130.821c0-1.483 1.201-2.684 2.684-2.684h10.738c1.482 0 2.684 1.201 2.684 2.684s-1.202 2.684-2.684 2.684H292.27c-1.483 0-2.684-1.201-2.684-2.684zM289.586 149.703c0-1.483 1.201-2.685 2.684-2.685h10.738c1.482 0 2.684 1.202 2.684 2.685 0 1.482-1.202 2.684-2.684 2.684H292.27c-1.483 0-2.684-1.202-2.684-2.684z" fill="#092F47"/><path d="M155.376 38.3757h-37.122c-3.183 0-5.763 2.5803-5.763 5.7633v218.335c0 3.183 2.58 5.763 5.763 5.763h37.122c3.183 0 5.764-2.58 5.764-5.763V44.139c0-3.183-2.581-5.7633-5.764-5.7633zm-45.649 5.7633c0-4.7091 3.818-8.5266 8.527-8.5266h37.122c4.71 0 8.527 3.8175 8.527 8.5266v218.335c0 4.709-3.818 8.526-8.527 8.526h-37.122c-4.709 0-8.527-3.817-8.527-8.526V44.139zM262.291 38.3753h-37.122c-3.183 0-5.763 2.5803-5.763 5.7633V262.473c0 3.183 2.58 5.764 5.763 5.764h37.122c3.183 0 5.764-2.581 5.764-5.764V44.1386c0-3.183-2.581-5.7633-5.764-5.7633zm-45.649 5.7633c0-4.7091 3.818-8.5266 8.527-8.5266h37.122c4.71 0 8.527 3.8175 8.527 8.5266V262.473c0 4.709-3.817 8.527-8.527 8.527h-37.122c-4.709 0-8.527-3.818-8.527-8.527V44.1386zM372.831 38.3753h-38.935c-3.183 0-5.763 2.5803-5.763 5.7633V262.473c0 3.183 2.58 5.764 5.763 5.764h38.935c3.183 0 5.763-2.581 5.763-5.764V44.1386c0-3.183-2.58-5.7633-5.763-5.7633zm-47.461 5.7633c0-4.7091 3.817-8.5266 8.526-8.5266h38.935c4.709 0 8.527 3.8175 8.527 8.5266V262.473c0 4.709-3.818 8.527-8.527 8.527h-38.935c-4.709 0-8.526-3.818-8.526-8.527V44.1386z" fill="#092F47" stroke="#092F47" stroke-width="2"/><path d="M349.576 102.924c0-1.482 1.202-2.684 2.684-2.684 1.483 0 2.685 1.202 2.685 2.684v62.702c0 1.482-1.202 2.684-2.685 2.684-1.482 0-2.684-1.202-2.684-2.684v-62.702zM133.815 134.21c0-1.482 1.202-2.684 2.685-2.684 1.482 0 2.684 1.202 2.684 2.684v88.791c0 1.483-1.202 2.684-2.684 2.684-1.483 0-2.685-1.201-2.685-2.684V134.21z" fill="#A8CBCC"/><path d="M241.25 63.8923c0-1.4825 1.202-2.6844 2.684-2.6844 1.483 0 2.685 1.2019 2.685 2.6844V164.496c0 1.482-1.202 2.684-2.685 2.684-1.482 0-2.684-1.202-2.684-2.684V63.8923z" fill="#FF846E"/><path d="M344.207 187.055c0-1.483 1.202-2.685 2.684-2.685h10.738c1.483 0 2.684 1.202 2.684 2.685 0 1.482-1.201 2.684-2.684 2.684h-10.738c-1.482 0-2.684-1.202-2.684-2.684zM344.207 53.3147c0-1.4825 1.202-2.6844 2.684-2.6844h10.738c1.483 0 2.684 1.2019 2.684 2.6844 0 1.4826-1.201 2.6844-2.684 2.6844h-10.738c-1.482 0-2.684-1.2018-2.684-2.6844zM344.207 209.488c0-1.483 1.202-2.685 2.684-2.685h10.738c1.483 0 2.684 1.202 2.684 2.685 0 1.482-1.201 2.684-2.684 2.684h-10.738c-1.482 0-2.684-1.202-2.684-2.684zM128.451 53.3147c0-1.4825 1.202-2.6844 2.685-2.6844h10.737c1.483 0 2.685 1.2019 2.685 2.6844 0 1.4826-1.202 2.6844-2.685 2.6844h-10.737c-1.483 0-2.685-1.2018-2.685-2.6844zM128.451 72.1961c0-1.4826 1.202-2.6844 2.685-2.6844h10.737c1.483 0 2.685 1.2018 2.685 2.6844 0 1.4825-1.202 2.6844-2.685 2.6844h-10.737c-1.483 0-2.685-1.2019-2.685-2.6844zM128.451 91.0769c0-1.4825 1.202-2.6844 2.685-2.6844h10.737c1.483 0 2.685 1.2019 2.685 2.6844 0 1.4826-1.202 2.6844-2.685 2.6844h-10.737c-1.483 0-2.685-1.2018-2.685-2.6844zM128.451 109.959c0-1.482 1.202-2.684 2.685-2.684h10.737c1.483 0 2.685 1.202 2.685 2.684 0 1.483-1.202 2.685-2.685 2.685h-10.737c-1.483 0-2.685-1.202-2.685-2.685zM235.881 190.607c0-1.483 1.202-2.685 2.685-2.685h10.737c1.483 0 2.685 1.202 2.685 2.685 0 1.482-1.202 2.684-2.685 2.684h-10.737c-1.483 0-2.685-1.202-2.685-2.684zM235.881 209.488c0-1.483 1.202-2.685 2.685-2.685h10.737c1.483 0 2.685 1.202 2.685 2.685 0 1.482-1.202 2.684-2.685 2.684h-10.737c-1.483 0-2.685-1.202-2.685-2.684zM235.881 228.369c0-1.483 1.202-2.684 2.685-2.684h10.737c1.483 0 2.685 1.201 2.685 2.684s-1.202 2.684-2.685 2.684h-10.737c-1.483 0-2.685-1.201-2.685-2.684zM235.881 247.251c0-1.482 1.202-2.684 2.685-2.684h10.737c1.483 0 2.685 1.202 2.685 2.684 0 1.483-1.202 2.685-2.685 2.685h-10.737c-1.483 0-2.685-1.202-2.685-2.685zM128.451 247.251c0-1.482 1.202-2.684 2.685-2.684h10.737c1.483 0 2.685 1.202 2.685 2.684 0 1.483-1.202 2.685-2.685 2.685h-10.737c-1.483 0-2.685-1.202-2.685-2.685zM182.159 236.659c0-1.483 1.202-2.685 2.685-2.685h10.737c1.483 0 2.685 1.202 2.685 2.685 0 1.482-1.202 2.684-2.685 2.684h-10.737c-1.483 0-2.685-1.202-2.685-2.684zM182.159 216.84c0-1.483 1.202-2.685 2.685-2.685h10.737c1.483 0 2.685 1.202 2.685 2.685 0 1.482-1.202 2.684-2.685 2.684h-10.737c-1.483 0-2.685-1.202-2.685-2.684zM182.159 39.5134c0-1.4825 1.202-2.6844 2.685-2.6844h10.737c1.483 0 2.685 1.2019 2.685 2.6844 0 1.4826-1.202 2.6844-2.685 2.6844h-10.737c-1.483 0-2.685-1.2018-2.685-2.6844z" fill="#092F47"/></svg>