<svg width="118" height="58" viewBox="0 0 118 58" fill="none" xmlns="http://www.w3.org/2000/svg">
<rect width="50" height="50" rx="10" fill="#FFD2CA"/>
<g filter="url(#filter0_d)">
<rect x="60" width="50" height="50" rx="10" fill="#FF846E"/>
<rect x="60" width="50" height="50" rx="10" fill="url(#paint0_linear)"/>
</g>
<path d="M86.5 20H83.5C82.9696 20 82.4609 19.7893 82.0858 19.4142C81.7107 19.0391 81.5 18.5304 81.5 18V15C81.5 14.4696 81.7107 13.9609 82.0858 13.5858C82.4609 13.2107 82.9696 13 83.5 13H86.5C87.0304 13 87.5391 13.2107 87.9142 13.5858C88.2893 13.9609 88.5 14.4696 88.5 15V18C88.5 18.5304 88.2893 19.0391 87.9142 19.4142C87.5391 19.7893 87.0304 20 86.5 20Z" fill="white"/>
<path d="M78 20H75C74.4696 20 73.9609 19.7893 73.5858 19.4142C73.2107 19.0391 73 18.5304 73 18V15C73 14.4696 73.2107 13.9609 73.5858 13.5858C73.9609 13.2107 74.4696 13 75 13H78C78.5304 13 79.0391 13.2107 79.4142 13.5858C79.7893 13.9609 80 14.4696 80 15V18C80 18.5304 79.7893 19.0391 79.4142 19.4142C79.0391 19.7893 78.5304 20 78 20Z" fill="white"/>
<path d="M95 20H92C91.4696 20 90.9609 19.7893 90.5858 19.4142C90.2107 19.0391 90 18.5304 90 18V15C90 14.4696 90.2107 13.9609 90.5858 13.5858C90.9609 13.2107 91.4696 13 92 13H95C95.5304 13 96.0391 13.2107 96.4142 13.5858C96.7893 13.9609 97 14.4696 97 15V18C97 18.5304 96.7893 19.0391 96.4142 19.4142C96.0391 19.7893 95.5304 20 95 20Z" fill="white"/>
<path d="M86.5 37H83.5C82.9696 37 82.4609 36.7893 82.0858 36.4142C81.7107 36.0391 81.5 35.5304 81.5 35V32C81.5 31.4696 81.7107 30.9609 82.0858 30.5858C82.4609 30.2107 82.9696 30 83.5 30H86.5C87.0304 30 87.5391 30.2107 87.9142 30.5858C88.2893 30.9609 88.5 31.4696 88.5 32V35C88.5 35.5304 88.2893 36.0391 87.9142 36.4142C87.5391 36.7893 87.0304 37 86.5 37Z" fill="white"/>
<path d="M78 37H75C74.4696 37 73.9609 36.7893 73.5858 36.4142C73.2107 36.0391 73 35.5304 73 35V32C73 31.4696 73.2107 30.9609 73.5858 30.5858C73.9609 30.2107 74.4696 30 75 30H78C78.5304 30 79.0391 30.2107 79.4142 30.5858C79.7893 30.9609 80 31.4696 80 32V35C80 35.5304 79.7893 36.0391 79.4142 36.4142C79.0391 36.7893 78.5304 37 78 37Z" fill="white"/>
<path d="M95 37H92C91.4696 37 90.9609 36.7893 90.5858 36.4142C90.2107 36.0391 90 35.5304 90 35V32C90 31.4696 90.2107 30.9609 90.5858 30.5858C90.9609 30.2107 91.4696 30 92 30H95C95.5304 30 96.0391 30.2107 96.4142 30.5858C96.7893 30.9609 97 31.4696 97 32V35C97 35.5304 96.7893 36.0391 96.4142 36.4142C96.0391 36.7893 95.5304 37 95 37Z" fill="white"/>
<path d="M86.5 28.5H83.5C82.9696 28.5 82.4609 28.2893 82.0858 27.9142C81.7107 27.5391 81.5 27.0304 81.5 26.5V23.5C81.5 22.9696 81.7107 22.4609 82.0858 22.0858C82.4609 21.7107 82.9696 21.5 83.5 21.5H86.5C87.0304 21.5 87.5391 21.7107 87.9142 22.0858C88.2893 22.4609 88.5 22.9696 88.5 23.5V26.5C88.5 27.0304 88.2893 27.5391 87.9142 27.9142C87.5391 28.2893 87.0304 28.5 86.5 28.5Z" fill="white"/>
<path d="M78 28.5H75C74.4696 28.5 73.9609 28.2893 73.5858 27.9142C73.2107 27.5391 73 27.0304 73 26.5V23.5C73 22.9696 73.2107 22.4609 73.5858 22.0858C73.9609 21.7107 74.4696 21.5 75 21.5H78C78.5304 21.5 79.0391 21.7107 79.4142 22.0858C79.7893 22.4609 80 22.9696 80 23.5V26.5C80 27.0304 79.7893 27.5391 79.4142 27.9142C79.0391 28.2893 78.5304 28.5 78 28.5Z" fill="white"/>
<path d="M95 28.5H92C91.4696 28.5 90.9609 28.2893 90.5858 27.9142C90.2107 27.5391 90 27.0304 90 26.5V23.5C90 22.9696 90.2107 22.4609 90.5858 22.0858C90.9609 21.7107 91.4696 21.5 92 21.5H95C95.5304 21.5 96.0391 21.7107 96.4142 22.0858C96.7893 22.4609 97 22.9696 97 23.5V26.5C97 27.0304 96.7893 27.5391 96.4142 27.9142C96.0391 28.2893 95.5304 28.5 95 28.5Z" fill="white"/>
<g clip-path="url(#clip0)">
<path d="M13.75 19.643H10.5356C10.3906 19.643 10.265 19.6957 10.159 19.8018C10.0529 19.9079 10 20.0335 10 20.1787V23.3929C10 23.538 10.0529 23.6638 10.159 23.7696C10.2651 23.8754 10.3906 23.9287 10.5356 23.9287H13.75C13.8951 23.9287 14.0206 23.8756 14.1266 23.7696C14.2327 23.6636 14.2856 23.538 14.2856 23.3929V20.1787C14.2856 20.0335 14.2326 19.9079 14.1266 19.8018C14.0206 19.6959 13.8951 19.643 13.75 19.643Z" fill="black"/>
<path d="M13.75 32.5001H10.5356C10.3906 32.5001 10.265 32.5527 10.159 32.6589C10.0529 32.7649 10 32.8904 10 33.0356V36.2501C10 36.395 10.0529 36.5203 10.159 36.6265C10.2651 36.7328 10.3906 36.7857 10.5356 36.7857H13.75C13.8951 36.7857 14.0206 36.7327 14.1266 36.6265C14.2327 36.5206 14.2856 36.395 14.2856 36.2501V33.0356C14.2856 32.8904 14.2326 32.7649 14.1266 32.6588C14.0206 32.5531 13.8951 32.5001 13.75 32.5001Z" fill="black"/>
<path d="M13.75 26.0712H10.5356C10.3906 26.0712 10.265 26.1246 10.159 26.2304C10.053 26.3362 10 26.4622 10 26.6071V29.8212C10 29.9665 10.0529 30.0921 10.159 30.1981C10.2651 30.3041 10.3906 30.3568 10.5356 30.3568H13.75C13.8951 30.3568 14.0206 30.3043 14.1266 30.1981C14.2327 30.0921 14.2856 29.9665 14.2856 29.8212V26.6071C14.2856 26.4622 14.2326 26.3366 14.1266 26.2304C14.0206 26.1244 13.8951 26.0712 13.75 26.0712Z" fill="black"/>
<path d="M13.75 13.2143H10.5356C10.3906 13.2143 10.265 13.2672 10.159 13.3733C10.053 13.4794 10 13.6049 10 13.75V16.9643C10 17.1094 10.0529 17.2349 10.159 17.3409C10.2651 17.447 10.3906 17.5 10.5356 17.5H13.75C13.8951 17.5 14.0206 17.4472 14.1266 17.3409C14.2327 17.2349 14.2856 17.1094 14.2856 16.9643V13.75C14.2856 13.6049 14.2326 13.4794 14.1266 13.3733C14.0206 13.2675 13.8951 13.2143 13.75 13.2143Z" fill="black"/>
<path d="M39.4643 32.5001H16.9644C16.8193 32.5001 16.6937 32.5527 16.5877 32.6589C16.4817 32.765 16.4287 32.8904 16.4287 33.0357V36.2501C16.4287 36.395 16.4817 36.5204 16.5877 36.6266C16.6938 36.7329 16.8191 36.7857 16.9644 36.7857H39.4643C39.6096 36.7857 39.735 36.7328 39.8412 36.6266C39.9473 36.5204 40.0001 36.395 40.0001 36.2501V33.0357C40.0001 32.8904 39.9471 32.765 39.8412 32.6589C39.735 32.5531 39.6095 32.5001 39.4643 32.5001Z" fill="black"/>
<path d="M39.4643 26.0712H16.9644C16.8193 26.0712 16.6937 26.1246 16.5877 26.2304C16.4817 26.3362 16.4287 26.4622 16.4287 26.6071V29.8212C16.4287 29.9665 16.4817 30.0921 16.5877 30.1981C16.6938 30.3041 16.8191 30.3568 16.9644 30.3568H39.4643C39.6096 30.3568 39.735 30.3043 39.8412 30.1981C39.9473 30.0921 40.0001 29.9665 40.0001 29.8212V26.6071C40.0001 26.4622 39.9471 26.3366 39.8412 26.2304C39.735 26.1246 39.6095 26.0712 39.4643 26.0712Z" fill="black"/>
<path d="M39.8412 13.3733C39.735 13.2675 39.6096 13.2143 39.4643 13.2143H16.9644C16.8193 13.2143 16.6937 13.2672 16.5877 13.3733C16.4817 13.4794 16.4287 13.6049 16.4287 13.75V16.9643C16.4287 17.1094 16.4817 17.2349 16.5877 17.3409C16.6938 17.447 16.8191 17.5 16.9644 17.5H39.4643C39.6096 17.5 39.735 17.4472 39.8412 17.3409C39.9473 17.2349 40.0001 17.1094 40.0001 16.9643V13.75C40 13.6049 39.9471 13.4794 39.8412 13.3733Z" fill="black"/>
<path d="M39.4643 19.643H16.9644C16.8193 19.643 16.6937 19.6957 16.5877 19.8018C16.4817 19.9079 16.4287 20.0335 16.4287 20.1787V23.3929C16.4287 23.538 16.4817 23.6636 16.5877 23.7696C16.6938 23.8754 16.8191 23.9287 16.9644 23.9287H39.4643C39.6096 23.9287 39.735 23.8756 39.8412 23.7696C39.9473 23.6636 40.0001 23.538 40.0001 23.3929V20.1787C40.0001 20.0335 39.9471 19.9079 39.8412 19.8018C39.735 19.6959 39.6095 19.643 39.4643 19.643Z" fill="black"/>
</g>
<defs>
<filter id="filter0_d" x="60" y="0" width="58" height="58" filterUnits="userSpaceOnUse" color-interpolation-filters="sRGB">
<feFlood flood-opacity="0" result="BackgroundImageFix"/>
<feColorMatrix in="SourceAlpha" type="matrix" values="0 0 0 0 0 0 0 0 0 0 0 0 0 0 0 0 0 0 127 0"/>
<feOffset dx="4" dy="4"/>
<feGaussianBlur stdDeviation="2"/>
<feColorMatrix type="matrix" values="0 0 0 0 0 0 0 0 0 0 0 0 0 0 0 0 0 0 0.25 0"/>
<feBlend mode="normal" in2="BackgroundImageFix" result="effect1_dropShadow"/>
<feBlend mode="normal" in="SourceGraphic" in2="effect1_dropShadow" result="shape"/>
</filter>
<linearGradient id="paint0_linear" x1="85" y1="0" x2="85" y2="25" gradientUnits="userSpaceOnUse">
<stop stop-color="#FFAEA0"/>
<stop offset="1" stop-color="#FF846E"/>
</linearGradient>
<clipPath id="clip0">
<rect width="30" height="30" fill="white" transform="translate(10 10)"/>
</clipPath>
</defs>
</svg>
