<svg width="89" height="120" fill="none" xmlns="http://www.w3.org/2000/svg"><path d="M.764648 120V0H88.7646v120L46.355 83.0769.764648 120z" fill="#0C4568"/><path d="M54.8389 28c-.4706-.0006-.9408.0286-1.4081.0875-4.9766.6354-7.3263 3.5268-8.4308 6.013-1.1088-2.4862-3.4541-5.3776-8.4352-6.0084-.3972-.0507-.7967-.0799-1.1968-.0875h-.2068c-12.2722 0-23.3915 20.1064 9.7332 40.9494.0317.0229.0677.0386.1056.046.0303-.0257.0669-.0416.1056-.046C78.226 48.1064 67.1155 28.0046 54.8389 28zM45 66.3204c-7.9775-5.1567-13.6406-10.5297-16.8968-16.0041-2.6401-4.4153-3.4937-8.7064-2.5125-12.4035.5869-2.1853 1.8388-4.1107 3.5659-5.4841 1.7272-1.3735 3.8353-2.1201 6.0046-2.1266h.1584c.3236.0073.6467.0319.968.0737 3.2474.4143 5.5003 1.9936 6.7059 4.6962L45 39.5518l1.9933-4.4798c1.2013-2.7026 3.4586-4.2819 6.7059-4.6962.3796-.0487.7617-.0733 1.1441-.0737 2.172.0092 4.2817.7603 6.0084 2.139 1.7266 1.3787 2.9758 3.3097 3.5576 5.4993.9813 3.6833.11 7.9836-2.5169 12.4036C58.6407 55.7907 52.9732 61.1637 45 66.3204z" fill="#fff"/></svg>
