<svg width="220" height="150" fill="none" xmlns="http://www.w3.org/2000/svg"><rect x="28.565" y="22.668" width="26.629" height="117.215" rx="2" fill="#fff"/><rect x="55.661" y="31.153" width="26.629" height="117.215" rx="2" fill="#fff"/><rect x="82.445" y="22.712" width="26.629" height="117.215" rx="2" fill="#fff"/><rect x="109.392" y="31.153" width="26.629" height="117.215" rx="2" fill="#fff"/><rect x="136.474" y="22.947" width="26.836" height="118.128" rx="2" fill="#fff"/><rect x="164.282" y="31.153" width="26.629" height="117.215" rx="2" fill="#fff"/><path d="M.576 73.892l162.499-52.774 46.591 89.31-136.363 32.477L.576 73.892z" fill="#F9F7EB"/><path d="M52.147 23.485H32.078a3.39 3.39 0 0 0-3.39 3.39V137.06a3.39 3.39 0 0 0 3.39 3.39h20.069a3.39 3.39 0 0 0 3.39-3.39V26.875a3.39 3.39 0 0 0-3.39-3.39zm-23.848 3.39a3.78 3.78 0 0 1 3.78-3.78h20.068a3.78 3.78 0 0 1 3.78 3.78V137.06a3.78 3.78 0 0 1-3.78 3.779H32.078a3.78 3.78 0 0 1-3.779-3.779V26.875zM106.034 23.485H85.966a3.39 3.39 0 0 0-3.39 3.39V137.06a3.39 3.39 0 0 0 3.39 3.39h20.068a3.39 3.39 0 0 0 3.39-3.39V26.875a3.39 3.39 0 0 0-3.39-3.39zm-23.848 3.39a3.78 3.78 0 0 1 3.78-3.78h20.068a3.78 3.78 0 0 1 3.779 3.78V137.06a3.78 3.78 0 0 1-3.779 3.779H85.966a3.78 3.78 0 0 1-3.78-3.779V26.875zM159.927 23.485h-20.069a3.39 3.39 0 0 0-3.389 3.39V137.06a3.39 3.39 0 0 0 3.389 3.39h20.069a3.39 3.39 0 0 0 3.389-3.39V26.875a3.39 3.39 0 0 0-3.389-3.39zm-23.848 3.39a3.78 3.78 0 0 1 3.779-3.78h20.069a3.78 3.78 0 0 1 3.779 3.78V137.06a3.78 3.78 0 0 1-3.779 3.779h-20.069a3.78 3.78 0 0 1-3.779-3.779V26.875z" fill="#092F47" stroke="#092F47" stroke-width="2"/><path d="M40.421 37.466a1.347 1.347 0 0 1 2.694 0v56.941a1.347 1.347 0 1 1-2.694 0v-56.94zM94.656 44.659a1.347 1.347 0 1 1 2.693 0V84.17a1.347 1.347 0 0 1-2.694 0V44.66zM148.546 31.937a1.347 1.347 0 0 1 2.693 0v22.75a1.347 1.347 0 1 1-2.693 0v-22.75zM148.546 107.035a1.347 1.347 0 1 1 2.693 0v22.75a1.347 1.347 0 1 1-2.693 0v-22.75zM37.728 107.591c0-.744.603-1.347 1.347-1.347h5.386a1.347 1.347 0 0 1 0 2.694h-5.386a1.347 1.347 0 0 1-1.347-1.347zM37.728 117.063c0-.744.603-1.346 1.347-1.346h5.386a1.346 1.346 0 1 1 0 2.693h-5.386a1.347 1.347 0 0 1-1.347-1.347zM37.728 126.535c0-.744.603-1.347 1.347-1.347h5.386a1.347 1.347 0 0 1 0 2.694h-5.386a1.347 1.347 0 0 1-1.347-1.347zM145.852 69.702c0-.744.603-1.347 1.347-1.347h5.387a1.347 1.347 0 1 1 0 2.693h-5.387a1.347 1.347 0 0 1-1.347-1.346zM145.852 79.174c0-.744.603-1.347 1.347-1.347h5.387a1.347 1.347 0 1 1 0 2.694h-5.387a1.347 1.347 0 0 1-1.347-1.347zM145.852 88.646c0-.743.603-1.346 1.347-1.346h5.387a1.347 1.347 0 1 1 0 2.693h-5.387a1.347 1.347 0 0 1-1.347-1.347z" fill="#092F47"/><path d="M78.524 32.3H59.9a3.39 3.39 0 0 0-3.39 3.389V145.22a3.39 3.39 0 0 0 3.39 3.389h18.624a3.39 3.39 0 0 0 3.39-3.389V35.689a3.39 3.39 0 0 0-3.39-3.39zM56.12 35.688a3.78 3.78 0 0 1 3.78-3.78h18.623a3.78 3.78 0 0 1 3.779 3.78V145.22a3.78 3.78 0 0 1-3.78 3.779H59.9a3.78 3.78 0 0 1-3.779-3.779V35.689zM132.16 32.298h-18.623a3.39 3.39 0 0 0-3.39 3.39V145.22a3.39 3.39 0 0 0 3.39 3.39h18.623a3.39 3.39 0 0 0 3.389-3.39V35.688a3.39 3.39 0 0 0-3.389-3.39zm-22.403 3.39a3.78 3.78 0 0 1 3.78-3.78h18.623a3.78 3.78 0 0 1 3.779 3.78V145.22a3.78 3.78 0 0 1-3.779 3.779h-18.623a3.78 3.78 0 0 1-3.78-3.779V35.688zM187.614 32.298h-19.532a3.39 3.39 0 0 0-3.39 3.39V145.22a3.39 3.39 0 0 0 3.39 3.39h19.532a3.39 3.39 0 0 0 3.39-3.39V35.688a3.39 3.39 0 0 0-3.39-3.39zm-23.312 3.39a3.78 3.78 0 0 1 3.78-3.78h19.532a3.78 3.78 0 0 1 3.779 3.78V145.22a3.78 3.78 0 0 1-3.779 3.779h-19.532a3.78 3.78 0 0 1-3.78-3.779V35.688z" fill="#092F47" stroke="#092F47" stroke-width="2"/><path d="M175.948 65.179a1.347 1.347 0 1 1 2.693 0v31.455a1.347 1.347 0 0 1-2.693 0V65.18zM67.707 80.874a1.347 1.347 0 0 1 2.694 0v44.544a1.347 1.347 0 1 1-2.694 0V80.874z" fill="#A8CBCC"/><path d="M121.604 45.598a1.347 1.347 0 0 1 2.693 0v50.47a1.347 1.347 0 1 1-2.693 0v-50.47z" fill="#FF846E"/><path d="M173.254 107.385c0-.744.603-1.347 1.347-1.347h5.387a1.346 1.346 0 0 1 0 2.693h-5.387a1.346 1.346 0 0 1-1.347-1.346zM173.254 40.291c0-.743.603-1.346 1.347-1.346h5.387a1.346 1.346 0 1 1 0 2.693h-5.387a1.347 1.347 0 0 1-1.347-1.346zM173.254 118.639c0-.744.603-1.347 1.347-1.347h5.387a1.346 1.346 0 0 1 0 2.694h-5.387a1.347 1.347 0 0 1-1.347-1.347zM65.016 40.291c0-.743.603-1.346 1.347-1.346h5.387a1.347 1.347 0 0 1 0 2.693h-5.387a1.347 1.347 0 0 1-1.347-1.346zM65.016 49.764c0-.744.603-1.347 1.347-1.347h5.387a1.347 1.347 0 1 1 0 2.693h-5.387a1.347 1.347 0 0 1-1.347-1.346zM65.016 59.236c0-.744.603-1.347 1.347-1.347h5.387a1.347 1.347 0 1 1 0 2.693h-5.387a1.347 1.347 0 0 1-1.347-1.346zM65.016 68.708c0-.743.603-1.346 1.347-1.346h5.387a1.347 1.347 0 1 1 0 2.693h-5.387a1.347 1.347 0 0 1-1.347-1.347zM118.911 109.167c0-.744.602-1.347 1.346-1.347h5.387a1.347 1.347 0 1 1 0 2.693h-5.387a1.346 1.346 0 0 1-1.346-1.346zM118.911 118.639c0-.744.602-1.347 1.346-1.347h5.387a1.347 1.347 0 1 1 0 2.694h-5.387a1.346 1.346 0 0 1-1.346-1.347zM118.911 128.111c0-.744.602-1.347 1.346-1.347h5.387a1.347 1.347 0 1 1 0 2.694h-5.387a1.346 1.346 0 0 1-1.346-1.347zM118.911 137.584c0-.744.602-1.347 1.346-1.347h5.387a1.347 1.347 0 1 1 0 2.693h-5.387a1.346 1.346 0 0 1-1.346-1.346zM65.016 137.584c0-.744.603-1.347 1.347-1.347h5.387a1.347 1.347 0 0 1 0 2.693h-5.387a1.347 1.347 0 0 1-1.347-1.346zM91.96 132.27c0-.744.603-1.347 1.347-1.347h5.386a1.347 1.347 0 0 1 0 2.693h-5.386a1.347 1.347 0 0 1-1.347-1.346zM91.96 122.327c0-.744.603-1.347 1.347-1.347h5.386a1.347 1.347 0 0 1 0 2.694h-5.386a1.347 1.347 0 0 1-1.347-1.347zM91.96 33.368c0-.744.603-1.347 1.347-1.347h5.386a1.347 1.347 0 0 1 0 2.694h-5.386a1.347 1.347 0 0 1-1.347-1.347zM75.346 8.596c1.1 0 1.886.337 2.358 1.01.494.674.74 1.472.74 2.392 0 1.01-.291 1.82-.875 2.425-.561.584-1.302.876-2.223.876-.966 0-1.707-.213-2.223-.64-.517-.449-.775-1.044-.775-1.785 0-1.325.573-2.369 1.718-3.133-.404 0-.764.08-1.078.236-.561.247-1.033.652-1.415 1.213a3.02 3.02 0 0 0-.572 1.785V23.08c0 1.055.213 1.785.64 2.19.449.38 1.201.572 2.256.572v.707c-.291 0-.538-.011-.74-.034-2.358-.067-3.93-.1-4.716-.1-.696 0-2.257.033-4.682.1a5.93 5.93 0 0 1-.707.034v-.707c.696 0 1.179-.169 1.448-.505.292-.36.438-1 .438-1.92V12.739c0-1.033-.146-1.785-.438-2.257-.27-.471-.752-.707-1.448-.707v-.707c.718.067 1.414.1 2.088.1 2.335 0 4.289-.156 5.86-.47v2.425c.854-1.685 2.302-2.527 4.346-2.527zM92.52 18.189c-1.437 0-2.526-.382-3.267-1.146-.719-.785-1.078-1.762-1.078-2.93 0-1.01.258-1.841.775-2.492a5.628 5.628 0 0 1 1.886-1.55c.718-.36 1.65-.73 2.795-1.111 1.213-.405 2.1-.775 2.661-1.112.562-.337.842-.808.842-1.415V3.436c0-.719-.18-1.359-.538-1.92-.36-.562-.977-.842-1.853-.842-.696 0-1.325.19-1.886.572.763.27 1.325.674 1.684 1.213.382.516.573 1.1.573 1.751 0 .876-.315 1.583-.944 2.122-.606.517-1.347.775-2.223.775-.875 0-1.572-.27-2.088-.808-.494-.562-.741-1.27-.741-2.122 0-.674.168-1.258.505-1.752.337-.494.865-.943 1.583-1.347C92.464.359 94.26 0 96.596 0c1.234 0 2.301.124 3.2.37a4.704 4.704 0 0 1 2.29 1.314c.449.472.741 1.067.876 1.785.157.696.235 1.673.235 2.93v9.028c0 .561.034.943.101 1.145.09.202.236.303.438.303.157 0 .326-.045.505-.135.18-.112.349-.235.506-.37l.337.572c-.966.831-2.347 1.247-4.143 1.247-1.348 0-2.29-.225-2.83-.674-.539-.472-.83-1.1-.876-1.886-1.055 1.706-2.627 2.56-4.715 2.56zm3.368-2.695c.472 0 .887-.19 1.246-.573V7.814c-.202.337-.572.775-1.111 1.314-.606.584-1.067 1.156-1.381 1.718-.314.539-.472 1.28-.472 2.223 0 1.617.573 2.425 1.718 2.425zM123.724 8.125a9.87 9.87 0 0 1 2.527.303c.786.18 1.426.415 1.92.707a4 4 0 0 1 1.482 1.449c.359.606.538 1.29.538 2.054 0 .943-.303 1.73-.909 2.358-.606.606-1.381.91-2.324.91-.966 0-1.729-.27-2.29-.809-.539-.561-.809-1.302-.809-2.223 0-.808.258-1.516.775-2.122a3.814 3.814 0 0 1 1.987-1.246c-.337-.27-.786-.404-1.347-.404-1.437 0-2.448.774-3.032 2.324-.583 1.527-.875 3.345-.875 5.456 0 2.156.404 3.694 1.212 4.615.809.92 1.808 1.38 2.998 1.38 1.639 0 2.998-.752 4.076-2.256l.572.202a9.299 9.299 0 0 1-2.526 4.042c-1.168 1.123-2.672 1.684-4.514 1.684-2.447 0-4.412-.73-5.894-2.19-1.482-1.459-2.223-3.794-2.223-7.005 0-3.077.786-5.378 2.358-6.905 1.594-1.55 3.694-2.324 6.298-2.324zM152.459 14.753c1.64 0 2.998-.752 4.076-2.257l.573.202a9.291 9.291 0 0 1-2.527 4.042c-1.167 1.123-2.672 1.684-4.513 1.684-2.358 0-4.244-.73-5.659-2.189-1.414-1.46-2.122-3.795-2.122-7.006 0-3.076.786-5.378 2.358-6.905C146.239.774 148.339 0 150.944 0c4.244 0 6.366 2.515 6.366 7.545h-8.69c-.023.27-.034.674-.034 1.212 0 2.156.371 3.694 1.112 4.615.763.92 1.684 1.381 2.761 1.381zM150.708.775c-1.257 0-1.998 2.043-2.223 6.13h3.907c.023-1.796-.112-3.267-.404-4.412-.27-1.146-.696-1.718-1.28-1.718zM49.648.108a89.887 89.887 0 0 0-.198 5.596c0 .866.028 1.545.085 2.035h-.65c-.622-2.468-1.422-4.249-2.402-5.342-.98-1.092-2.035-1.639-3.165-1.639h-.028v14.17c0 .79.075 1.365.226 1.723.17.358.461.603.876.735.433.113 1.111.17 2.034.17v.564c-2.656-.056-4.719-.084-6.188-.084-1.338 0-3.279.028-5.822.084v-.565c.923 0 1.592-.056 2.007-.17.433-.131.725-.376.876-.734.17-.358.254-.932.254-1.724V.758h-.028c-1.15 0-2.214.547-3.194 1.64-.96 1.073-1.752 2.854-2.374 5.34h-.65c.057-.49.085-1.168.085-2.034 0-1.64-.066-3.504-.198-5.596 1.79.057 4.87.085 9.241.085 4.352 0 7.423-.028 9.213-.085zM176.629 7.887c.911 0 1.763.105 2.556.315.817.187 1.436.397 1.856.63.257.14.467.21.63.21.49 0 .782-.373.876-1.12h.7c-.094 1.214-.14 3.314-.14 6.302h-.7c-.187-1.54-.631-2.836-1.331-3.886-.677-1.074-1.669-1.61-2.976-1.61-.584 0-1.074.174-1.471.524-.397.35-.595.829-.595 1.436 0 .77.257 1.459.77 2.066.514.583 1.319 1.307 2.416 2.17.047.024.385.292 1.016.806 1.307 1.073 2.264 2.03 2.871 2.87.607.818.91 1.833.91 3.047a4.56 4.56 0 0 1-.945 2.801c-.63.817-1.494 1.46-2.591 1.926-1.074.444-2.253.665-3.537.665-1.47 0-2.672-.292-3.606-.875a8.263 8.263 0 0 0-.98-.455 2.244 2.244 0 0 0-.771-.14c-.443 0-.77.408-.98 1.225h-.7c.093-1.33.14-3.665.14-7.003h.7c.21 1.915.724 3.455 1.541 4.622.817 1.167 1.844 1.75 3.081 1.75.583 0 1.062-.163 1.435-.49.397-.326.596-.805.596-1.435 0-.654-.14-1.237-.421-1.75a5.191 5.191 0 0 0-.98-1.366c-.373-.42-.992-1.015-1.856-1.786a56.816 56.816 0 0 1-2.241-2.17 8.352 8.352 0 0 1-1.33-1.856 5.395 5.395 0 0 1-.525-2.381c0-1.004.303-1.891.91-2.661s1.412-1.354 2.416-1.751c1.004-.42 2.089-.63 3.256-.63z" fill="#092F47"/></svg>