<svg width="220" height="130" fill="none" xmlns="http://www.w3.org/2000/svg"><rect x="28.565" y="1.668" width="26.629" height="117.215" rx="2" fill="#fff"/><rect x="55.661" y="10.153" width="26.629" height="117.215" rx="2" fill="#fff"/><rect x="82.445" y="1.712" width="26.629" height="117.215" rx="2" fill="#fff"/><rect x="109.392" y="10.153" width="26.629" height="117.215" rx="2" fill="#fff"/><rect x="136.474" y="1.947" width="26.836" height="118.128" rx="2" fill="#fff"/><rect x="164.282" y="10.153" width="26.629" height="117.215" rx="2" fill="#fff"/><path d="M.576 52.892L163.075.118l46.591 89.31-136.363 32.477L.576 52.892z" fill="#F9F7EB"/><path d="M52.147 2.486H32.078a3.39 3.39 0 0 0-3.39 3.39v110.183a3.39 3.39 0 0 0 3.39 3.39h20.069a3.39 3.39 0 0 0 3.39-3.39V5.875a3.39 3.39 0 0 0-3.39-3.39zm-23.848 3.39a3.78 3.78 0 0 1 3.78-3.78h20.068a3.78 3.78 0 0 1 3.78 3.78v110.183a3.78 3.78 0 0 1-3.78 3.779H32.078a3.78 3.78 0 0 1-3.779-3.779V5.875zM106.034 2.486H85.966a3.39 3.39 0 0 0-3.39 3.39v110.183a3.39 3.39 0 0 0 3.39 3.39h20.068a3.39 3.39 0 0 0 3.39-3.39V5.875a3.39 3.39 0 0 0-3.39-3.39zm-23.848 3.39a3.78 3.78 0 0 1 3.78-3.78h20.068a3.78 3.78 0 0 1 3.779 3.78v110.183a3.78 3.78 0 0 1-3.779 3.779H85.966a3.78 3.78 0 0 1-3.78-3.779V5.875zM159.927 2.486h-20.069a3.39 3.39 0 0 0-3.389 3.39v110.183a3.39 3.39 0 0 0 3.389 3.39h20.069a3.39 3.39 0 0 0 3.389-3.39V5.875a3.39 3.39 0 0 0-3.389-3.39zm-23.848 3.39a3.78 3.78 0 0 1 3.779-3.78h20.069a3.78 3.78 0 0 1 3.779 3.78v110.183a3.78 3.78 0 0 1-3.779 3.779h-20.069a3.78 3.78 0 0 1-3.779-3.779V5.875z" fill="#092F47" stroke="#092F47" stroke-width="2"/><path d="M40.421 16.466a1.347 1.347 0 0 1 2.694 0v56.942a1.347 1.347 0 1 1-2.694 0V16.465zM94.656 23.659a1.347 1.347 0 1 1 2.693 0V63.17a1.347 1.347 0 0 1-2.694 0V23.66zM148.546 10.937a1.347 1.347 0 0 1 2.693 0v22.75a1.347 1.347 0 1 1-2.693 0v-22.75zM148.546 86.035a1.347 1.347 0 0 1 2.693 0v22.75a1.347 1.347 0 1 1-2.693 0v-22.75zM37.728 86.591c0-.744.603-1.347 1.347-1.347h5.386a1.347 1.347 0 1 1 0 2.694h-5.386a1.347 1.347 0 0 1-1.347-1.347zM37.728 96.063c0-.743.603-1.346 1.347-1.346h5.386a1.347 1.347 0 1 1 0 2.693h-5.386a1.347 1.347 0 0 1-1.347-1.347zM37.728 105.535c0-.744.603-1.347 1.347-1.347h5.386a1.347 1.347 0 0 1 0 2.694h-5.386a1.347 1.347 0 0 1-1.347-1.347zM145.852 48.702c0-.744.603-1.347 1.347-1.347h5.387a1.347 1.347 0 1 1 0 2.693h-5.387a1.347 1.347 0 0 1-1.347-1.346zM145.852 58.174c0-.744.603-1.347 1.347-1.347h5.387a1.347 1.347 0 1 1 0 2.694h-5.387a1.347 1.347 0 0 1-1.347-1.347zM145.852 67.646c0-.743.603-1.346 1.347-1.346h5.387a1.347 1.347 0 1 1 0 2.693h-5.387a1.347 1.347 0 0 1-1.347-1.347z" fill="#092F47"/><path d="M78.524 11.3H59.9a3.39 3.39 0 0 0-3.39 3.389V124.22a3.39 3.39 0 0 0 3.39 3.389h18.624a3.39 3.39 0 0 0 3.39-3.389V14.689a3.39 3.39 0 0 0-3.39-3.39zM56.12 14.688a3.78 3.78 0 0 1 3.78-3.78h18.623a3.78 3.78 0 0 1 3.779 3.78V124.22a3.78 3.78 0 0 1-3.78 3.779H59.9a3.78 3.78 0 0 1-3.779-3.779V14.689zM132.16 11.299h-18.623a3.39 3.39 0 0 0-3.39 3.39V124.22a3.39 3.39 0 0 0 3.39 3.39h18.623a3.39 3.39 0 0 0 3.389-3.39V14.688a3.39 3.39 0 0 0-3.389-3.39zm-22.403 3.39a3.78 3.78 0 0 1 3.78-3.78h18.623a3.78 3.78 0 0 1 3.779 3.78V124.22a3.78 3.78 0 0 1-3.779 3.779h-18.623a3.78 3.78 0 0 1-3.78-3.779V14.688zM187.614 11.299h-19.532a3.39 3.39 0 0 0-3.39 3.39V124.22a3.39 3.39 0 0 0 3.39 3.39h19.532a3.39 3.39 0 0 0 3.39-3.39V14.688a3.39 3.39 0 0 0-3.39-3.39zm-23.312 3.39a3.78 3.78 0 0 1 3.78-3.78h19.532a3.78 3.78 0 0 1 3.779 3.78V124.22a3.78 3.78 0 0 1-3.779 3.779h-19.532a3.78 3.78 0 0 1-3.78-3.779V14.688z" fill="#092F47" stroke="#092F47" stroke-width="2"/><path d="M175.948 44.179a1.347 1.347 0 1 1 2.693 0v31.455a1.347 1.347 0 0 1-2.693 0V44.18zM67.707 59.874a1.347 1.347 0 0 1 2.694 0v44.544a1.347 1.347 0 1 1-2.694 0V59.874z" fill="#A8CBCC"/><path d="M121.604 24.598a1.347 1.347 0 0 1 2.693 0v50.47a1.347 1.347 0 1 1-2.693 0v-50.47z" fill="#FF846E"/><path d="M173.254 86.385c0-.744.603-1.347 1.347-1.347h5.387a1.346 1.346 0 1 1 0 2.693h-5.387a1.347 1.347 0 0 1-1.347-1.346zM173.254 19.291c0-.743.603-1.346 1.347-1.346h5.387a1.346 1.346 0 1 1 0 2.693h-5.387a1.347 1.347 0 0 1-1.347-1.347zM173.254 97.639c0-.744.603-1.347 1.347-1.347h5.387a1.346 1.346 0 1 1 0 2.694h-5.387a1.347 1.347 0 0 1-1.347-1.347zM65.016 19.291c0-.743.603-1.346 1.347-1.346h5.387a1.347 1.347 0 0 1 0 2.693h-5.387a1.347 1.347 0 0 1-1.347-1.347zM65.016 28.764c0-.744.603-1.347 1.347-1.347h5.387a1.347 1.347 0 1 1 0 2.693h-5.387a1.347 1.347 0 0 1-1.347-1.346zM65.016 38.236c0-.744.603-1.347 1.347-1.347h5.387a1.347 1.347 0 1 1 0 2.693h-5.387a1.347 1.347 0 0 1-1.347-1.346zM65.016 47.708c0-.743.603-1.346 1.347-1.346h5.387a1.347 1.347 0 1 1 0 2.693h-5.387a1.347 1.347 0 0 1-1.347-1.347zM118.911 88.166c0-.743.602-1.346 1.346-1.346h5.387a1.347 1.347 0 1 1 0 2.693h-5.387a1.346 1.346 0 0 1-1.346-1.347zM118.911 97.639c0-.744.602-1.347 1.346-1.347h5.387a1.347 1.347 0 1 1 0 2.694h-5.387a1.346 1.346 0 0 1-1.346-1.347zM118.911 107.111c0-.744.602-1.347 1.346-1.347h5.387a1.347 1.347 0 1 1 0 2.694h-5.387a1.346 1.346 0 0 1-1.346-1.347zM118.911 116.584c0-.744.602-1.347 1.346-1.347h5.387a1.347 1.347 0 1 1 0 2.693h-5.387a1.346 1.346 0 0 1-1.346-1.346zM65.016 116.584c0-.744.603-1.347 1.347-1.347h5.387a1.347 1.347 0 0 1 0 2.693h-5.387a1.347 1.347 0 0 1-1.347-1.346zM91.96 111.27c0-.744.603-1.347 1.347-1.347h5.386a1.347 1.347 0 0 1 0 2.693h-5.386a1.347 1.347 0 0 1-1.347-1.346zM91.96 101.327c0-.744.603-1.347 1.347-1.347h5.386a1.347 1.347 0 1 1 0 2.694h-5.386a1.347 1.347 0 0 1-1.347-1.347zM91.96 12.368c0-.744.603-1.347 1.347-1.347h5.386a1.347 1.347 0 0 1 0 2.694h-5.386a1.347 1.347 0 0 1-1.347-1.347z" fill="#092F47"/></svg>