<svg width="165" height="40" fill="none" xmlns="http://www.w3.org/2000/svg"><path d="M74.576 10.592a82.74 82.74 0 0 0-.182 5.148c0 .797.026 1.421.078 1.872h-.598c-.572-2.27-1.309-3.909-2.21-4.914s-1.872-1.508-2.912-1.508h-.026v14.872c0 .728.07 1.257.208 1.586.156.33.425.555.806.676.399.104 1.023.156 1.872.156V29a285.809 285.809 0 0 0-5.694-.078c-1.23 0-3.016.026-5.356.078v-.52c.85 0 1.465-.052 1.846-.156.399-.121.667-.347.806-.676.156-.33.234-.858.234-1.586V11.19h-.026c-1.057 0-2.037.503-2.938 1.508-.884.988-1.612 2.626-2.184 4.914h-.598c.052-.45.078-1.075.078-1.872 0-1.508-.06-3.224-.182-5.148 1.647.052 4.48.078 8.502.078 4.004 0 6.83-.026 8.476-.078zM94.576 27.96c-.52.52-1.092.884-1.716 1.092-.624.208-1.352.312-2.184.312-1.196 0-2.124-.208-2.782-.624-.659-.433-1.066-1.161-1.222-2.184l-.39-2.6c-.174-1.213-.416-2.132-.728-2.756-.295-.624-.746-.936-1.352-.936h-1.17v5.98c0 .659.043 1.135.13 1.43.104.295.277.494.52.598.242.104.641.173 1.196.208V29c-1.006-.052-2.453-.078-4.342-.078-2.098 0-3.64.026-4.628.078v-.52c.554-.035.953-.104 1.196-.208.26-.104.433-.303.52-.598.086-.295.13-.771.13-1.43V13.348c0-.659-.052-1.135-.156-1.43-.087-.295-.252-.494-.494-.598-.243-.104-.642-.173-1.196-.208v-.52c.988.052 2.478.078 4.472.078l2.99-.026c.346-.017.745-.026 1.196-.026 2.634 0 4.593.373 5.876 1.118 1.3.745 1.95 1.88 1.95 3.406 0 1.3-.486 2.41-1.456 3.328-.971.919-2.6 1.482-4.888 1.69 1.768.121 3.102.46 4.004 1.014.901.537 1.456 1.335 1.664 2.392l.546 2.704c.121.641.268 1.083.442 1.326a.843.843 0 0 0 .728.364 1.1 1.1 0 0 0 .806-.338l.338.338zm-10.14-16.848c-.399 0-.702.06-.91.182-.191.121-.321.338-.39.65-.07.312-.104.78-.104 1.404v6.396h.702c1.23 0 2.071-.373 2.522-1.118.45-.763.676-1.829.676-3.198 0-1.421-.2-2.496-.598-3.224-.382-.728-1.014-1.092-1.898-1.092z" fill="#092F47"/><path d="M110.558 26.816c.225.555.468.97.728 1.248.277.26.546.399.806.416V29a117.503 117.503 0 0 0-4.732-.078c-1.976 0-3.432.026-4.368.078v-.52c.659-.035 1.127-.113 1.404-.234.277-.139.416-.373.416-.702 0-.312-.104-.728-.312-1.248l-1.534-4.264h-5.252l-.442 1.17c-.572 1.473-.858 2.6-.858 3.38 0 .71.2 1.196.598 1.456.399.26.988.407 1.768.442V29a86.595 86.595 0 0 0-3.406-.078c-.815 0-1.482.026-2.002.078v-.52c.433-.07.84-.338 1.222-.806.381-.468.771-1.213 1.17-2.236l5.772-14.846c.555.035 1.014.052 1.378.052.347 0 .797-.017 1.352-.052l6.292 16.224zm-7.774-5.304l-2.366-6.5-2.496 6.5h4.862zM122.43 10.228c1.04 0 1.924.147 2.652.442.728.295 1.439.71 2.132 1.248.173.156.338.234.494.234.347 0 .572-.52.676-1.56h.598c-.069 1.23-.104 3.397-.104 6.5h-.598c-.121-1.387-.347-2.479-.676-3.276-.329-.797-.901-1.465-1.716-2.002-.815-.52-1.621-.78-2.418-.78-1.803 0-3.068.867-3.796 2.6-.728 1.733-1.092 3.805-1.092 6.214 0 2.41.364 4.48 1.092 6.214.728 1.733 1.993 2.6 3.796 2.6.797 0 1.603-.26 2.418-.78.815-.503 1.387-1.179 1.716-2.028.329-.85.555-2.054.676-3.614h.598c0 3.241.035 5.495.104 6.76h-.598c-.052-.555-.13-.945-.234-1.17-.087-.243-.217-.364-.39-.364-.139 0-.321.07-.546.208-.78.555-1.525.98-2.236 1.274-.711.277-1.569.416-2.574.416-1.959 0-3.675-.373-5.148-1.118-1.473-.745-2.617-1.82-3.432-3.224-.815-1.421-1.222-3.111-1.222-5.07 0-1.907.416-3.597 1.248-5.07a8.732 8.732 0 0 1 3.484-3.432c1.491-.815 3.189-1.222 5.096-1.222zM145.903 24.632c0 1.768.06 3.224.182 4.368-1.179-.052-3.164-.078-5.954-.078-4.056 0-7.09.026-9.1.078v-.52c.554-.035.953-.104 1.196-.208.26-.104.433-.303.52-.598.086-.295.13-.771.13-1.43V13.348c0-.659-.052-1.135-.156-1.43-.087-.295-.252-.494-.494-.598-.243-.104-.642-.173-1.196-.208v-.52c2.01.052 5.044.078 9.1.078 2.548 0 4.359-.026 5.434-.078a59.088 59.088 0 0 0-.182 4.368c0 .797.026 1.421.078 1.872h-.598c-.312-2.01-.893-3.45-1.742-4.316-.85-.884-1.864-1.326-3.042-1.326h-.338c-.468 0-.815.043-1.04.13a.699.699 0 0 0-.442.442c-.07.208-.104.563-.104 1.066v6.656h.26c.901 0 1.672-.355 2.314-1.066.641-.71 1.048-1.5 1.222-2.366h.598a34.576 34.576 0 0 0-.078 2.444v1.248c0 .884.052 2.115.156 3.692h-.598c-.156-.988-.564-1.803-1.222-2.444-.642-.659-1.439-.988-2.392-.988h-.26v6.76c0 .503.034.867.104 1.092a.79.79 0 0 0 .442.442c.225.07.572.104 1.04.104h.858c1.005 0 1.958-.485 2.86-1.456.901-.988 1.542-2.557 1.924-4.706h.598a29.835 29.835 0 0 0-.078 2.392zM155.065 10.228c.988 0 1.785.095 2.392.286a8.241 8.241 0 0 1 1.82.754c.191.104.355.19.494.26.156.07.286.104.39.104.156 0 .277-.087.364-.26.087-.19.156-.485.208-.884h.598c-.087 1.248-.13 3.363-.13 6.344h-.598a8.804 8.804 0 0 0-.676-2.834c-.381-.901-.901-1.638-1.56-2.21a3.384 3.384 0 0 0-2.288-.858c-.797 0-1.439.217-1.924.65-.485.416-.728 1.005-.728 1.768 0 .59.13 1.1.39 1.534.26.433.641.858 1.144 1.274.503.399 1.326.997 2.47 1.794.104.052.199.113.286.182.104.07.199.139.286.208.953.659 1.716 1.248 2.288 1.768a5.95 5.95 0 0 1 1.378 1.768c.364.676.546 1.456.546 2.34 0 1.127-.321 2.08-.962 2.86-.624.763-1.473 1.335-2.548 1.716s-2.262.572-3.562.572c-1.057 0-1.941-.087-2.652-.26a10.012 10.012 0 0 1-1.95-.702c-.381-.243-.676-.364-.884-.364-.156 0-.277.095-.364.286-.087.173-.156.46-.208.858h-.598c.069-1.179.104-3.692.104-7.54h.598c.121 2.063.555 3.735 1.3 5.018s1.889 1.924 3.432 1.924c.953 0 1.707-.225 2.262-.676.572-.45.858-1.075.858-1.872 0-.988-.312-1.829-.936-2.522-.607-.71-1.56-1.5-2.86-2.366-1.04-.693-1.872-1.3-2.496-1.82a6.869 6.869 0 0 1-1.534-1.794c-.399-.693-.598-1.49-.598-2.392 0-1.092.295-2.002.884-2.73.589-.745 1.369-1.291 2.34-1.638.988-.364 2.063-.546 3.224-.546z" fill="#092F47"/><rect x="7.05" y="2.71" width="6.707" height="29.525" rx="2" fill="#fff"/><rect x="13.875" y="4.847" width="6.707" height="29.525" rx="2" fill="#fff"/><rect x="20.622" y="2.721" width="6.707" height="29.525" rx="2" fill="#fff"/><rect x="27.409" y="4.847" width="6.707" height="29.525" rx="2" fill="#fff"/><rect x="34.231" y="2.78" width="6.76" height="29.755" rx="2" fill="#fff"/><rect x="41.235" y="4.847" width="6.707" height="29.525" rx="2" fill="#fff"/><path d="M0 15.612L40.931 2.32l11.736 22.496-34.348 8.18L0 15.613z" fill="#F9F7EB"/><mask id="a" fill="#fff"><path fill-rule="evenodd" clip-rule="evenodd" d="M12.99 3.168H7.935a.602.602 0 0 0-.602.602v27.753c0 .333.27.602.602.602h5.055c.332 0 .602-.27.602-.602V3.77a.602.602 0 0 0-.602-.602zm-5.055-.602c-.665 0-1.204.539-1.204 1.204v27.753c0 .665.54 1.204 1.204 1.204h5.055c.665 0 1.204-.539 1.204-1.204V3.77c0-.665-.54-1.204-1.204-1.204H7.935z"/></mask><path fill-rule="evenodd" clip-rule="evenodd" d="M12.99 3.168H7.935a.602.602 0 0 0-.602.602v27.753c0 .333.27.602.602.602h5.055c.332 0 .602-.27.602-.602V3.77a.602.602 0 0 0-.602-.602zm-5.055-.602c-.665 0-1.204.539-1.204 1.204v27.753c0 .665.54 1.204 1.204 1.204h5.055c.665 0 1.204-.539 1.204-1.204V3.77c0-.665-.54-1.204-1.204-1.204H7.935z" fill="#092F47"/><path d="M7.935 5.168h5.055v-4H7.935v4zM9.333 3.77c0 .772-.626 1.398-1.398 1.398v-4A2.602 2.602 0 0 0 5.333 3.77h4zm0 27.753V3.77h-4v27.753h4zm-1.398-1.398c.772 0 1.398.626 1.398 1.398h-4a2.602 2.602 0 0 0 2.602 2.602v-4zm5.055 0H7.935v4h5.055v-4zm-1.398 1.398c0-.772.626-1.398 1.398-1.398v4a2.602 2.602 0 0 0 2.602-2.602h-4zm0-27.753v27.753h4V3.77h-4zm1.398 1.398a1.398 1.398 0 0 1-1.398-1.398h4a2.602 2.602 0 0 0-2.602-2.602v4zM8.731 3.77c0 .44-.356.796-.796.796v-4A3.204 3.204 0 0 0 4.731 3.77h4zm0 27.753V3.77h-4v27.753h4zm-.796-.796c.44 0 .796.357.796.796h-4a3.204 3.204 0 0 0 3.204 3.204v-4zm5.055 0H7.935v4h5.055v-4zm-.796.796c0-.44.356-.796.796-.796v4a3.204 3.204 0 0 0 3.204-3.204h-4zm0-27.753v27.753h4V3.77h-4zm.796.796a.796.796 0 0 1-.796-.796h4A3.204 3.204 0 0 0 12.99.566v4zm-5.055 0h5.055v-4H7.935v4z" fill="#092F47" mask="url(#a)"/><mask id="b" fill="#fff"><path fill-rule="evenodd" clip-rule="evenodd" d="M26.564 3.168h-5.055a.602.602 0 0 0-.602.602v27.753c0 .333.27.602.602.602h5.055c.332 0 .601-.27.601-.602V3.77a.602.602 0 0 0-.601-.602zm-5.055-.602c-.665 0-1.204.539-1.204 1.204v27.753c0 .665.539 1.204 1.204 1.204h5.055c.664 0 1.203-.539 1.203-1.204V3.77c0-.665-.539-1.204-1.203-1.204h-5.055z"/></mask><path fill-rule="evenodd" clip-rule="evenodd" d="M26.564 3.168h-5.055a.602.602 0 0 0-.602.602v27.753c0 .333.27.602.602.602h5.055c.332 0 .601-.27.601-.602V3.77a.602.602 0 0 0-.601-.602zm-5.055-.602c-.665 0-1.204.539-1.204 1.204v27.753c0 .665.539 1.204 1.204 1.204h5.055c.664 0 1.203-.539 1.203-1.204V3.77c0-.665-.539-1.204-1.203-1.204h-5.055z" fill="#092F47"/><path d="M21.509 5.168h5.055v-4h-5.055v4zm1.398-1.398c0 .772-.626 1.398-1.398 1.398v-4a2.602 2.602 0 0 0-2.602 2.602h4zm0 27.753V3.77h-4v27.753h4zm-1.398-1.398c.772 0 1.398.626 1.398 1.398h-4a2.602 2.602 0 0 0 2.602 2.602v-4zm5.055 0h-5.055v4h5.055v-4zm-1.399 1.398c0-.772.626-1.398 1.399-1.398v4a2.602 2.602 0 0 0 2.601-2.602h-4zm0-27.753v27.753h4V3.77h-4zm1.399 1.398a1.398 1.398 0 0 1-1.399-1.398h4a2.602 2.602 0 0 0-2.601-2.602v4zm-4.26-1.398c0 .44-.356.796-.795.796v-4a3.204 3.204 0 0 0-3.204 3.204h4zm0 27.753V3.77h-4v27.753h4zm-.795-.796c.44 0 .796.357.796.796h-4a3.204 3.204 0 0 0 3.204 3.204v-4zm5.055 0h-5.055v4h5.055v-4zm-.797.796c0-.44.357-.796.797-.796v4a3.204 3.204 0 0 0 3.203-3.204h-4zm0-27.753v27.753h4V3.77h-4zm.797.796a.796.796 0 0 1-.797-.796h4A3.204 3.204 0 0 0 26.564.566v4zm-5.055 0h5.055v-4h-5.055v4z" fill="#092F47" mask="url(#b)"/><mask id="c" fill="#fff"><path fill-rule="evenodd" clip-rule="evenodd" d="M40.138 3.168h-5.055a.602.602 0 0 0-.602.602v27.753c0 .333.27.602.602.602h5.055c.333 0 .602-.27.602-.602V3.77a.602.602 0 0 0-.602-.602zm-5.055-.602c-.664 0-1.203.539-1.203 1.204v27.753c0 .665.538 1.204 1.203 1.204h5.055c.665 0 1.204-.539 1.204-1.204V3.77c0-.665-.539-1.204-1.204-1.204h-5.055z"/></mask><path fill-rule="evenodd" clip-rule="evenodd" d="M40.138 3.168h-5.055a.602.602 0 0 0-.602.602v27.753c0 .333.27.602.602.602h5.055c.333 0 .602-.27.602-.602V3.77a.602.602 0 0 0-.602-.602zm-5.055-.602c-.664 0-1.203.539-1.203 1.204v27.753c0 .665.538 1.204 1.203 1.204h5.055c.665 0 1.204-.539 1.204-1.204V3.77c0-.665-.539-1.204-1.204-1.204h-5.055z" fill="#092F47"/><path d="M35.083 5.168h5.055v-4h-5.055v4zm1.398-1.398c0 .772-.626 1.398-1.398 1.398v-4a2.602 2.602 0 0 0-2.602 2.602h4zm0 27.753V3.77h-4v27.753h4zm-1.398-1.398c.773 0 1.398.626 1.398 1.398h-4a2.602 2.602 0 0 0 2.602 2.602v-4zm5.055 0h-5.055v4h5.055v-4zm-1.398 1.398c0-.772.626-1.398 1.398-1.398v4a2.602 2.602 0 0 0 2.602-2.602h-4zm0-27.753v27.753h4V3.77h-4zm1.398 1.398A1.398 1.398 0 0 1 38.74 3.77h4a2.602 2.602 0 0 0-2.602-2.602v4zM35.88 3.77c0 .44-.357.796-.797.796v-4A3.204 3.204 0 0 0 31.88 3.77h4zm0 27.753V3.77h-4v27.753h4zm-.797-.796c.44 0 .797.357.797.796h-4a3.204 3.204 0 0 0 3.203 3.204v-4zm5.055 0h-5.055v4h5.055v-4zm-.796.796c0-.44.357-.796.796-.796v4a3.204 3.204 0 0 0 3.204-3.204h-4zm0-27.753v27.753h4V3.77h-4zm.796.796a.796.796 0 0 1-.796-.796h4A3.204 3.204 0 0 0 40.138.566v4zm-5.055 0h5.055v-4h-5.055v4z" fill="#092F47" mask="url(#c)"/><path d="M10.036 6.437a.34.34 0 1 1 .679 0V20.78a.34.34 0 0 1-.679 0V6.437zM23.697 8.249a.34.34 0 0 1 .679 0v9.953a.34.34 0 0 1-.679 0V8.249zM37.272 5.044a.34.34 0 0 1 .678 0v5.73a.34.34 0 1 1-.678 0v-5.73zM37.272 23.96a.34.34 0 0 1 .678 0v5.731a.34.34 0 1 1-.678 0v-5.73zM9.358 24.1a.34.34 0 0 1 .34-.338h1.356a.34.34 0 0 1 0 .678H9.697a.34.34 0 0 1-.34-.34zM9.358 26.487a.34.34 0 0 1 .34-.34h1.356a.34.34 0 0 1 0 .679H9.697a.34.34 0 0 1-.34-.34zM9.358 28.873a.34.34 0 0 1 .34-.34h1.356a.34.34 0 1 1 0 .679H9.697a.34.34 0 0 1-.34-.34zM36.593 14.557a.34.34 0 0 1 .34-.34h1.356a.34.34 0 1 1 0 .68h-1.357a.34.34 0 0 1-.339-.34zM36.593 16.943a.34.34 0 0 1 .34-.34h1.356a.34.34 0 1 1 0 .68h-1.357a.34.34 0 0 1-.339-.34zM36.593 19.329a.34.34 0 0 1 .34-.34h1.356a.34.34 0 1 1 0 .679h-1.357a.34.34 0 0 1-.339-.34z" fill="#092F47"/><mask id="d" fill="#fff"><path fill-rule="evenodd" clip-rule="evenodd" d="M19.634 5.388h-4.691a.602.602 0 0 0-.602.602v27.59c0 .332.27.601.602.601h4.69c.333 0 .603-.27.603-.602V5.99a.602.602 0 0 0-.602-.601zm-4.691-.602c-.665 0-1.204.539-1.204 1.204v27.59c0 .664.54 1.203 1.204 1.203h4.69c.666 0 1.205-.539 1.205-1.204V5.99c0-.664-.54-1.203-1.204-1.203h-4.691z"/></mask><path fill-rule="evenodd" clip-rule="evenodd" d="M19.634 5.388h-4.691a.602.602 0 0 0-.602.602v27.59c0 .332.27.601.602.601h4.69c.333 0 .603-.27.603-.602V5.99a.602.602 0 0 0-.602-.601zm-4.691-.602c-.665 0-1.204.539-1.204 1.204v27.59c0 .664.54 1.203 1.204 1.203h4.69c.666 0 1.205-.539 1.205-1.204V5.99c0-.664-.54-1.203-1.204-1.203h-4.691z" fill="#092F47"/><path d="M14.943 7.388h4.69v-4h-4.69v4zm1.398-1.398c0 .772-.626 1.398-1.398 1.398v-4a2.602 2.602 0 0 0-2.602 2.602h4zm0 27.59V5.99h-4v27.59h4zm-1.398-1.399c.772 0 1.398.626 1.398 1.398h-4a2.602 2.602 0 0 0 2.602 2.602v-4zm4.69 0h-4.69v4h4.69v-4zm-1.397 1.398c0-.772.626-1.398 1.398-1.398v4a2.602 2.602 0 0 0 2.602-2.602h-4zm0-27.59v27.59h4V5.99h-4zm1.398 1.399a1.398 1.398 0 0 1-1.398-1.398h4a2.602 2.602 0 0 0-2.602-2.602v4zM15.739 5.99c0 .44-.356.796-.796.796v-4a3.204 3.204 0 0 0-3.204 3.204h4zm0 27.59V5.99h-4v27.59h4zm-.796-.797c.44 0 .796.357.796.796h-4a3.204 3.204 0 0 0 3.204 3.204v-4zm4.69 0h-4.69v4h4.69v-4zm-.795.796c0-.44.356-.796.796-.796v4a3.204 3.204 0 0 0 3.204-3.204h-4zm0-27.59v27.59h4V5.99h-4zm.796.797a.796.796 0 0 1-.796-.796h4a3.204 3.204 0 0 0-3.204-3.204v4zm-4.691 0h4.69v-4h-4.69v4z" fill="#092F47" mask="url(#d)"/><mask id="e" fill="#fff"><path fill-rule="evenodd" clip-rule="evenodd" d="M33.144 5.387h-4.69a.602.602 0 0 0-.603.602v27.59c0 .332.27.602.602.602h4.691c.333 0 .602-.27.602-.602V5.989a.602.602 0 0 0-.602-.602zm-4.69-.601c-.666 0-1.205.538-1.205 1.203v27.59c0 .665.54 1.204 1.204 1.204h4.691c.665 0 1.204-.54 1.204-1.204V5.989c0-.665-.539-1.203-1.204-1.203h-4.69z"/></mask><path fill-rule="evenodd" clip-rule="evenodd" d="M33.144 5.387h-4.69a.602.602 0 0 0-.603.602v27.59c0 .332.27.602.602.602h4.691c.333 0 .602-.27.602-.602V5.989a.602.602 0 0 0-.602-.602zm-4.69-.601c-.666 0-1.205.538-1.205 1.203v27.59c0 .665.54 1.204 1.204 1.204h4.691c.665 0 1.204-.54 1.204-1.204V5.989c0-.665-.539-1.203-1.204-1.203h-4.69z" fill="#092F47"/><path d="M28.453 7.387h4.691v-4h-4.69v4zm1.398-1.398c0 .772-.626 1.398-1.398 1.398v-4a2.602 2.602 0 0 0-2.602 2.602h4zm0 27.59V5.989h-4v27.59h4zm-1.398-1.398c.772 0 1.398.626 1.398 1.398h-4a2.602 2.602 0 0 0 2.602 2.602v-4zm4.691 0h-4.69v4h4.69v-4zm-1.398 1.398c0-.772.626-1.398 1.398-1.398v4a2.602 2.602 0 0 0 2.602-2.602h-4zm0-27.59v27.59h4V5.989h-4zm1.398 1.398a1.398 1.398 0 0 1-1.398-1.398h4a2.602 2.602 0 0 0-2.602-2.602v4zM29.25 5.99c0 .44-.356.797-.796.797v-4a3.204 3.204 0 0 0-3.204 3.203h4zm0 27.59V5.989h-4v27.59h4zm-.796-.796c.44 0 .796.356.796.796h-4a3.204 3.204 0 0 0 3.204 3.204v-4zm4.691 0h-4.69v4h4.69v-4zm-.796.796c0-.44.356-.796.796-.796v4a3.204 3.204 0 0 0 3.204-3.204h-4zm0-27.59v27.59h4V5.989h-4zm.796.797a.796.796 0 0 1-.796-.797h4a3.204 3.204 0 0 0-3.204-3.203v4zm-4.69 0h4.69v-4h-4.69v4z" fill="#092F47" mask="url(#e)"/><mask id="f" fill="#fff"><path fill-rule="evenodd" clip-rule="evenodd" d="M47.112 5.387h-4.92a.602.602 0 0 0-.602.602v27.59c0 .332.27.602.602.602h4.92c.333 0 .602-.27.602-.602V5.989a.602.602 0 0 0-.602-.602zm-4.92-.601c-.664 0-1.203.538-1.203 1.203v27.59c0 .665.539 1.204 1.203 1.204h4.92c.665 0 1.204-.54 1.204-1.204V5.989c0-.665-.539-1.203-1.204-1.203h-4.92z"/></mask><path fill-rule="evenodd" clip-rule="evenodd" d="M47.112 5.387h-4.92a.602.602 0 0 0-.602.602v27.59c0 .332.27.602.602.602h4.92c.333 0 .602-.27.602-.602V5.989a.602.602 0 0 0-.602-.602zm-4.92-.601c-.664 0-1.203.538-1.203 1.203v27.59c0 .665.539 1.204 1.203 1.204h4.92c.665 0 1.204-.54 1.204-1.204V5.989c0-.665-.539-1.203-1.204-1.203h-4.92z" fill="#092F47"/><path d="M42.192 7.387h4.92v-4h-4.92v4zM43.59 5.99c0 .772-.626 1.398-1.398 1.398v-4A2.602 2.602 0 0 0 39.59 5.99h4zm0 27.59V5.989h-4v27.59h4zm-1.398-1.398c.773 0 1.398.626 1.398 1.398h-4a2.602 2.602 0 0 0 2.602 2.602v-4zm4.92 0h-4.92v4h4.92v-4zm-1.398 1.398c0-.772.626-1.398 1.398-1.398v4a2.602 2.602 0 0 0 2.602-2.602h-4zm0-27.59v27.59h4V5.989h-4zm1.398 1.398a1.398 1.398 0 0 1-1.398-1.398h4a2.602 2.602 0 0 0-2.602-2.602v4zM42.99 5.99c0 .44-.357.797-.797.797v-4a3.204 3.204 0 0 0-3.203 3.203h4zm0 27.59V5.989h-4v27.59h4zm-.797-.796c.44 0 .797.356.797.796h-4a3.204 3.204 0 0 0 3.203 3.204v-4zm4.92 0h-4.92v4h4.92v-4zm-.796.796c0-.44.357-.796.796-.796v4a3.204 3.204 0 0 0 3.204-3.204h-4zm0-27.59v27.59h4V5.989h-4zm.796.797a.796.796 0 0 1-.796-.797h4a3.204 3.204 0 0 0-3.204-3.203v4zm-4.92 0h4.92v-4h-4.92v4z" fill="#092F47" mask="url(#f)"/><path d="M44.174 13.418a.34.34 0 0 1 .678 0v7.923a.34.34 0 1 1-.678 0v-7.923zM16.91 17.371a.34.34 0 0 1 .678 0v11.22a.34.34 0 1 1-.679 0v-11.22z" fill="#A8CBCC"/><path d="M30.485 8.485a.34.34 0 0 1 .679 0v12.713a.34.34 0 0 1-.679 0V8.485z" fill="#FF846E"/><path d="M43.495 24.049a.34.34 0 0 1 .34-.34h1.356a.34.34 0 1 1 0 .679h-1.356a.34.34 0 0 1-.34-.34zM43.495 7.149a.34.34 0 0 1 .34-.34h1.356a.34.34 0 1 1 0 .68h-1.356a.34.34 0 0 1-.34-.34zM43.495 26.884a.34.34 0 0 1 .34-.34h1.356a.34.34 0 1 1 0 .679h-1.356a.34.34 0 0 1-.34-.34zM16.232 7.149a.34.34 0 0 1 .339-.34h1.357a.34.34 0 1 1 0 .68H16.57a.34.34 0 0 1-.34-.34zM16.232 9.535a.34.34 0 0 1 .339-.34h1.357a.34.34 0 1 1 0 .679H16.57a.34.34 0 0 1-.34-.34zM16.232 11.92a.34.34 0 0 1 .339-.338h1.357a.34.34 0 1 1 0 .678H16.57a.34.34 0 0 1-.34-.34zM16.232 14.307a.34.34 0 0 1 .339-.34h1.357a.34.34 0 1 1 0 .679H16.57a.34.34 0 0 1-.34-.34zM29.807 24.498a.34.34 0 0 1 .339-.34h1.357a.34.34 0 1 1 0 .679h-1.357a.34.34 0 0 1-.34-.34zM29.807 26.884a.34.34 0 0 1 .339-.34h1.357a.34.34 0 1 1 0 .679h-1.357a.34.34 0 0 1-.34-.34zM29.807 29.27a.34.34 0 0 1 .339-.34h1.357a.34.34 0 1 1 0 .679h-1.357a.34.34 0 0 1-.34-.34zM29.807 31.655a.34.34 0 0 1 .339-.339h1.357a.34.34 0 1 1 0 .679h-1.357a.34.34 0 0 1-.34-.34zM16.232 31.655a.34.34 0 0 1 .339-.339h1.357a.34.34 0 1 1 0 .679H16.57a.34.34 0 0 1-.34-.34zM23.018 30.317a.34.34 0 0 1 .34-.34h1.357a.34.34 0 1 1 0 .68h-1.357a.34.34 0 0 1-.34-.34zM23.018 27.813a.34.34 0 0 1 .34-.34h1.357a.34.34 0 1 1 0 .679h-1.357a.34.34 0 0 1-.34-.34zM23.018 5.405a.34.34 0 0 1 .34-.34h1.357a.34.34 0 0 1 0 .68h-1.357a.34.34 0 0 1-.34-.34z" fill="#092F47"/></svg>