<svg width="56" height="68" fill="none" xmlns="http://www.w3.org/2000/svg"><path d="M0 12L14 0v12H0z" fill="#AF5848"/><path d="M14 68V0h42v68L35.759 50.154 14 68z" fill="#FF846E"/><path d="M41.538 13c-.29 0-.578.017-.864.053-3.054.388-4.496 2.15-5.174 3.667-.68-1.516-2.12-3.28-5.176-3.664a6.889 6.889 0 0 0-.735-.053h-.127c-7.53 0-14.353 12.26 5.973 24.969.02.014.042.023.065.028a.123.123 0 0 1 .065-.028C55.889 25.26 49.07 13.002 41.538 13zM35.5 36.366c-4.895-3.144-8.37-6.42-10.369-9.758-1.62-2.693-2.143-5.31-1.541-7.564a6.375 6.375 0 0 1 2.188-3.344 5.968 5.968 0 0 1 3.684-1.296h.098c.198.004.397.02.594.045 1.993.252 3.375 1.215 4.115 2.863l1.231 2.732 1.223-2.732c.737-1.648 2.123-2.61 4.115-2.863.233-.03.468-.045.702-.045a5.969 5.969 0 0 1 3.687 1.304 6.377 6.377 0 0 1 2.183 3.353c.602 2.246.068 4.868-1.544 7.563-1.996 3.322-5.473 6.598-10.366 9.742z" fill="#fff"/></svg>