<svg width="40" height="40" fill="none" xmlns="http://www.w3.org/2000/svg"><mask id="a" maskUnits="userSpaceOnUse" x="0" y="0" width="40" height="40"><path fill="#C4C4C4" d="M0 0h40v40H0z"/></mask><g mask="url(#a)"><path d="M38.745 22.857L9.271 31.672l-8.434-7.46L20.351.49l18.394 22.366z" fill="#fff"/><path d="M21.865 6.149l-.07-.071a2.343 2.343 0 0 1 3.314 0l-3.244.07zm0 0l-.07-.071a2.343 2.343 0 0 0 0 3.311l5.816 5.802.004.003a2.343 2.343 0 0 0 3.315-3.299l-.004-.005-5.816-5.812-3.245.07zM11.34 11.948v-.001a.648.648 0 0 1 .384-.45l8.088-3.042.077-.029-.014-.081a3.638 3.638 0 0 1 6.152-3.187l5.813 5.816a3.638 3.638 0 0 1-2.576 6.206 3.684 3.684 0 0 1-.615-.054l-.081-.014-.03.077-3.038 8.07a.647.647 0 0 1-.45.402l-17.147 4.22a.647.647 0 0 1-.783-.783l4.22-17.15zm9.055-2.239l-.043-.068-.076.029-7.711 2.9-.05.019-.012.051-3.484 14.163-.086.348.254-.253 6.145-6.134.055-.055-.04-.067a2.864 2.864 0 1 1 4.494.578 2.857 2.857 0 0 1-3.482.441l-.067-.04-.055.056-6.138 6.137-.253.254.348-.086 14.167-3.484.051-.012.019-.05 2.919-7.715.029-.075-.068-.044a3.668 3.668 0 0 1-.6-.484l-5.832-5.809a3.636 3.636 0 0 1-.484-.6zm-3.8 8.49c-.231.28-.357.632-.357.995l.53 1.04-.071.07a1.569 1.569 0 1 0-.103-2.105z" fill="#000" stroke="#F5F5F5" stroke-width=".2"/></g></svg>