<svg width="30" height="30" viewBox="0 0 30 30" fill="none" xmlns="http://www.w3.org/2000/svg">
<path d="M1 10.6667L18.3571 2L28 15.7647L11.2857 28L1 10.6667Z" fill="#D7E7E8"/>
<path d="M15 3C10.0345 3 6 7.03448 6 12C6 17.8488 11.252 23.9125 13.5199 26.252C13.9019 26.6578 14.4271 26.8727 15 26.8727C15.5729 26.8727 16.0743 26.6578 16.4801 26.252C18.748 23.9125 24 17.8488 24 12C24 7.03448 19.9655 3 15 3ZM15.8117 25.6074C15.382 26.061 14.6419 26.061 14.2122 25.6074C12.183 23.5066 6.95491 17.5623 6.95491 12C6.93103 7.53581 10.5358 3.93103 15 3.93103C19.4642 3.93103 23.069 7.53581 23.069 12C23.069 17.5623 17.8408 23.4828 15.8117 25.6074Z" fill="black"/>
<path d="M15 7.79834C12.8992 7.79834 11.1804 9.51717 11.1804 11.618C11.1804 13.7188 12.8992 15.4376 15 15.4376C17.1008 15.4376 18.8196 13.7188 18.8196 11.618C18.8196 9.51717 17.1008 7.79834 15 7.79834ZM15 14.5066C13.4005 14.5066 12.1114 13.2174 12.1114 11.618C12.1114 10.0185 13.4005 8.72937 15 8.72937C16.5995 8.72937 17.8886 10.0185 17.8886 11.618C17.8886 13.2174 16.5995 14.5066 15 14.5066Z" fill="black"/>
</svg>
