<svg width="25" height="30" viewBox="0 0 25 30" fill="none" xmlns="http://www.w3.org/2000/svg">
<path opacity="0.65" d="M0.5 3L20 10L24.5 22L6 30L0.5 3Z" fill="#FF846E"/>
<path d="M12.4532 26.5582C12.773 26.9581 12.7735 27.526 12.4543 27.9264C12.0158 28.4764 11.1802 28.4771 10.7408 27.9278L0.999292 15.7493C0.415053 15.0189 0.415054 13.9811 0.999294 13.2507L10.7451 1.0668C11.1827 0.519731 12.0146 0.519371 12.4527 1.06606C12.7726 1.46534 12.773 2.03308 12.4536 2.43278L3.80808 13.251C3.22442 13.9813 3.2246 15.0186 3.80852 15.7487L12.4532 26.5582Z" fill="black"/>
<path d="M18.5436 26.6237C18.815 26.9913 18.8154 27.4928 18.5446 27.8608C18.1283 28.4264 17.2832 28.4271 16.8661 27.8621L7.87716 15.688C7.35575 14.9818 7.35575 14.0182 7.87716 13.312L16.8703 1.13213C17.2858 0.56942 18.1272 0.569059 18.5431 1.13142C18.8147 1.49853 18.815 1.99983 18.5439 2.3673L10.4699 13.3123C9.94904 14.0184 9.9492 14.9815 10.4703 15.6874L18.5436 26.6237Z" fill="black"/>
</svg>
