<?xml version="1.0" encoding="utf-8"?>
<!-- Generator: Adobe Illustrator 23.1.1, SVG Export Plug-In . SVG Version: 6.00 Build 0)  -->
<svg version="1.1" id="Calque_1" xmlns="http://www.w3.org/2000/svg" xmlns:xlink="http://www.w3.org/1999/xlink" x="0px" y="0px"
	 viewBox="0 0 25 30" style="enable-background:new 0 0 25 30;" xml:space="preserve">
<style type="text/css">
	.st0{opacity:0.65;fill:#FCC1B9;enable-background:new    ;}
	.st1{fill:#9B9B9B;}
</style>
<path class="st0" d="M0.5,3L20,10l4.5,12L6,30L0.5,3z"/>
<path class="st1" d="M12.5,26.6c0.3,0.4,0.3,1,0,1.4c-0.4,0.6-1.3,0.6-1.7,0L1,15.7C0.4,15,0.4,14,1,13.3l9.7-12.2
	c0.4-0.5,1.3-0.5,1.7,0c0.3,0.4,0.3,1,0,1.4L3.8,13.3c-0.6,0.7-0.6,1.8,0,2.5L12.5,26.6z"/>
<path class="st1" d="M18.5,26.6c0.3,0.4,0.3,0.9,0,1.2c-0.4,0.6-1.3,0.6-1.7,0l-9-12.2c-0.5-0.7-0.5-1.7,0-2.4l9-12.2
	c0.4-0.6,1.3-0.6,1.7,0c0.3,0.4,0.3,0.9,0,1.2l-8.1,10.9c-0.5,0.7-0.5,1.7,0,2.4L18.5,26.6z"/>
</svg>
