<svg width="46" height="44" viewBox="0 0 46 44" fill="none" xmlns="http://www.w3.org/2000/svg">
<path d="M32.8389 1.00001C32.3683 0.999378 31.8981 1.02859 31.4308 1.08749C26.4542 1.72286 24.1045 4.61427 23 7.10051C21.8912 4.61427 19.5459 1.72286 14.5648 1.09209C14.1676 1.04144 13.7681 1.01224 13.368 1.00461H13.1612C0.888994 1.00461 -10.2303 21.111 22.8944 41.954C22.9261 41.9769 22.9621 41.9926 23 42C23.0303 41.9743 23.0669 41.9584 23.1056 41.954C56.226 21.1064 45.1155 1.00461 32.8389 1.00001ZM23 39.3204C15.0225 34.1637 9.35939 28.7907 6.10324 23.3163C3.46311 18.901 2.60947 14.6099 3.59072 10.9128C4.17756 8.72751 5.42949 6.80215 7.15662 5.42869C8.88375 4.05523 10.9919 3.30861 13.1612 3.30209H13.3196C13.6432 3.30938 13.9663 3.33397 14.2876 3.37575C17.535 3.79013 19.7879 5.36935 20.9935 8.07199L23 12.5518L24.9933 8.07199C26.1946 5.36935 28.4519 3.79013 31.6992 3.37575C32.0788 3.32714 32.4609 3.30254 32.8433 3.30209C35.0153 3.31131 37.125 4.06237 38.8517 5.44108C40.5783 6.8198 41.8275 8.75076 42.4093 10.9404C43.3906 14.6237 42.5193 18.924 39.8924 23.344C36.6407 28.7907 30.9732 34.1637 23 39.3204Z" fill="white" stroke="white" stroke-width="2"/>
</svg>
