<svg width="40" height="40" fill="none" xmlns="http://www.w3.org/2000/svg"><path d="M12.952 5L36 14.79 27.619 36l-8.905-6.526H3L12.952 5z" fill="#fff"/><path d="M9.636 10c-.455 0-.884.152-1.184.451-.3.3-.452.72-.452 1.154v12.306c0 .434.151.849.452 1.145.3.296.727.45 1.176.46h1.1v3.745a.548.548 0 00.331.488.567.567 0 00.589-.104l4.474-4.13h10.969c.456 0 .884-.16 1.185-.46.3-.298.451-.71.451-1.144V11.605c0-.434-.142-.854-.443-1.154-.3-.299-.737-.451-1.193-.451H9.636zm0 1.07h17.455c.224 0 .334.06.409.134.075.074.136.19.136.401v12.306c0 .21-.061.326-.136.4-.075.076-.185.135-.41.135H15.91a.564.564 0 00-.376.142l-3.716 3.427v-3.034c0-.28-.26-.535-.545-.535H9.636c-.222-.008-.343-.07-.417-.143-.075-.073-.128-.181-.128-.392V11.605c0-.21.061-.327.136-.401.075-.075.185-.134.41-.134zm21.759 2.934a.558.558 0 00-.486.535v12.582c0 .211-.053.311-.128.384-.074.073-.197.142-.434.15h-1.893a.561.561 0 00-.545.536v3.034l-3.716-3.427a.557.557 0 00-.375-.142h-7.09c-.289-.004-.554.252-.554.535 0 .283.265.539.553.535h6.878l4.474 4.13a.567.567 0 00.59.103.548.548 0 00.331-.488v-3.745h1.381c.446-.016.867-.165 1.167-.46.3-.295.452-.712.452-1.145V14.539c.002-.3-.3-.568-.605-.535z" fill="#000"/></svg>