<svg width="57" height="58" viewBox="0 0 57 58" fill="none" xmlns="http://www.w3.org/2000/svg">
<path d="M0 12L15 0H18V12H0Z" fill="#041A28"/>
<rect x="22" y="16" width="22" height="4" transform="rotate(-180 22 16)" fill="white"/>
<path d="M15 58V0H57V58L36.759 40.1538L15 58Z" fill="#0C4568"/>
<path d="M41.3667 11C41.11 10.9997 40.8535 11.016 40.5986 11.0491C37.8841 11.4055 36.6024 13.0275 36 14.4222C35.3952 13.0275 34.1159 11.4055 31.399 11.0517C31.1823 11.0232 30.9644 11.0069 30.7462 11.0026H30.6334C23.9395 11.0026 17.8744 22.2818 35.9424 33.9742C35.9597 33.9871 35.9793 33.9959 36 34C36.0165 33.9856 36.0365 33.9766 36.0576 33.9742C54.1233 22.2792 48.063 11.0026 41.3667 11ZM36 32.4968C31.6486 29.604 28.5597 26.5899 26.7836 23.5189C25.3435 21.042 24.8779 18.6348 25.4131 16.5608C25.7332 15.3349 26.4161 14.2549 27.3582 13.4844C28.3002 12.7139 29.4501 12.2951 30.6334 12.2914H30.7198C30.8963 12.2955 31.0726 12.3093 31.2478 12.3327C33.0191 12.5652 34.2479 13.4511 34.9056 14.9672L36 17.4803L37.0873 14.9672C37.7425 13.4511 38.9738 12.5652 40.745 12.3327C40.9521 12.3055 41.1605 12.2917 41.3691 12.2914C42.5538 12.2966 43.7045 12.7179 44.6464 13.4913C45.5882 14.2648 46.2696 15.348 46.5869 16.5763C47.1221 18.6426 46.6469 21.0549 45.214 23.5344C43.4404 26.5899 40.349 29.604 36 32.4968Z" fill="white"/>
</svg>
