<svg width="30" height="30" fill="none" xmlns="http://www.w3.org/2000/svg"><path d="M4.70588 24L0 13.1053 30 1l-4.7059 20.5789L4.70588 24z" fill="#D7E7E8"/><path d="M18.4664 17.8576c-.9101 1.1564-2.3589 1.9043-3.9907 1.9043-2.755 0-4.98843-2.132-4.98843-4.7619 0-2.6299 2.23343-4.7619 4.98843-4.7619 1.6318 0 3.0806.748 3.9907 1.9043v-1.9043h.9977v7.619c0 1.0498.9904 1.6511 2.147 1.3512 1.3941-.3615 2.3788-1.8343 2.3426-4.2083 0-4.9969-4.2434-9.04762-9.478-9.04762-5.23456 0-9.47801 4.05072-9.47801 9.04762s4.24345 9.0476 9.47801 9.0476c2.0561 0 4.0117-.626 5.6296-1.7681l.5933.7657C18.9104 24.3076 16.7472 25 14.4757 25 8.69013 25 4 20.5228 4 15 4 9.47715 8.69013 5 14.4757 5c5.7856 0 10.4757 4.47715 10.4756 9.9931.0424 2.7752-1.2112 4.6501-3.0788 5.1343-1.753.4545-3.4058-.5488-3.4061-2.2698zm-3.9907.9519c2.204 0 3.9907-1.7055 3.9907-3.8095 0-2.1039-1.7867-3.8095-3.9907-3.8095-2.204 0-3.9907 1.7056-3.9907 3.8095 0 2.104 1.7867 3.8095 3.9907 3.8095z" fill="#000"/></svg>