<svg width="30" height="30" viewBox="0 0 30 30" fill="none" xmlns="http://www.w3.org/2000/svg">
<path d="M15 0C6.71591 0 0 6.71591 0 15C0 23.2841 6.71591 30 15 30C23.2841 30 30 23.2841 30 15C30 6.71591 23.2841 0 15 0ZM15 28.9773C7.29545 28.9773 1.02273 22.7045 1.02273 15C1.02273 7.29545 7.29545 1.02273 15 1.02273C22.7045 1.02273 28.9773 7.29545 28.9773 15C28.9773 22.7045 22.7045 28.9773 15 28.9773Z" fill="black"/>
<path d="M22.2956 10.3637L12.4433 20.25L7.70465 15.4773C7.5001 15.2728 7.19328 15.2728 6.98874 15.4773C6.78419 15.6819 6.78419 15.9887 6.98874 16.1932L12.1024 21.3069C12.2046 21.4091 12.341 21.4432 12.4774 21.4432C12.6137 21.4432 12.7501 21.4091 12.8524 21.3069L23.0796 11.0796C23.2842 10.875 23.2842 10.5682 23.0796 10.3637C22.841 10.1932 22.5001 10.1932 22.2956 10.3637Z" fill="black"/>
</svg>
