<svg width="25" height="25" fill="none" xmlns="http://www.w3.org/2000/svg"><path d="M19 3.5L1 10l15 12.5 4-8.5-1-10.5z" fill="#fff"/><path d="M18.589 17.589A7.88 7.88 0 0 1 13 19.9a7.88 7.88 0 0 1-5.589-2.31c-3.081-3.083-3.081-8.097 0-11.179 3.082-3.081 8.096-3.082 11.178 0a.513.513 0 1 1-.726.726l-.07.071.07-.07a6.885 6.885 0 0 0-9.726 0 6.885 6.885 0 0 0 0 9.725 6.885 6.885 0 0 0 9.726 0 .513.513 0 1 1 .726.726z" fill="#262626" stroke="#fff" stroke-width=".2"/><path d="M20.476 9.024c.2-.2.525-.2.726 0l2.61 2.61a.513.513 0 0 1 .004.73L21.2 14.975a.512.512 0 0 1-.726 0c-.201-.2-.201-.526 0-.726l1.565-1.566.171-.17h-9.211a.513.513 0 1 1 0-1.028h9.211l-.17-.17-1.566-1.566c-.201-.2-.201-.526 0-.726z" fill="#262626" stroke="#fff" stroke-width=".2"/></svg>