<svg width="40" height="40" fill="none" xmlns="http://www.w3.org/2000/svg"><path d="M33.713 32.147l-25.83.316-3.53-18.148L32.273 7l1.44 25.147z" fill="#fff"/><path d="M19.766 32c-6.617 0-12-5.383-12-12s5.383-12 12-12 12 5.383 12 12-5.383 12-12 12zm0-23c-6.065 0-11 4.935-11 11s4.935 11 11 11 11-4.935 11-11-4.935-11-11-11z" fill="#000"/><path d="M26.214 25.776l-.67.671-8-4-.225-.224-4-8 .671-.671 8 4 .224.224 4 8zm-8.074-4.149l6.51 3.254-3.256-6.509-6.509-3.255 3.255 6.51z" fill="#000"/><path d="M19.766 21a1 1 0 1 0 0-2 1 1 0 0 0 0 2z" fill="#000"/></svg>