<svg width="44" height="44" viewBox="0 0 44 44" fill="none" xmlns="http://www.w3.org/2000/svg">
<path d="M24.1651 4.75L38.0215 28.75C38.9837 30.4167 37.7809 32.5 35.8564 32.5H8.1436C6.21909 32.5 5.01628 30.4167 5.97853 28.75L19.8349 4.75C20.7972 3.08333 23.2028 3.08333 24.1651 4.75Z" stroke="black"/>
<path d="M22.3281 24.2539H21.0273L20.957 11.9375H22.4102L22.3281 24.2539ZM20.793 28.1797C20.793 27.9141 20.8789 27.6914 21.0508 27.5117C21.2227 27.3242 21.457 27.2305 21.7539 27.2305C22.0508 27.2305 22.2852 27.3242 22.457 27.5117C22.6367 27.6914 22.7266 27.9141 22.7266 28.1797C22.7266 28.4375 22.6367 28.6562 22.457 28.8359C22.2852 29.0078 22.0508 29.0938 21.7539 29.0938C21.457 29.0938 21.2227 29.0078 21.0508 28.8359C20.8789 28.6562 20.793 28.4375 20.793 28.1797Z" fill="black"/>
</svg>
