<svg width="32" height="32" fill="none" xmlns="http://www.w3.org/2000/svg"><path d="M7.4691 29.6845c-.20586.0027-.40718-.0607-.5744-.1808-.33196-.2413-.47244-.6736-.38407-1.1863l1.32724-7.7387c.07364-.4306-.14388-1.0997-.45657-1.4045l-5.62168-5.4838c-.37274-.3631-.51323-.7932-.38634-1.1858.12689-.3926.4951-.6572 1.00946-.732l7.76916-1.1291c.4322-.0629 1.0015-.4765 1.1947-.86801l3.4742-7.03896C15.0508 2.27025 15.4184 2 15.8291 2c.4107 0 .7778.26742 1.0083.73653l3.4742 7.04123c.1932.39154.7625.80504 1.1947.86794l7.7692 1.1292c.5149.0748.8825.3399 1.0094.732.1269.392-.0141.8226-.3863 1.1858l-5.6217 5.4809c-.3127.3048-.5302.9745-.4566 1.4045l1.3273 7.7393c.0878.5127-.0521.945-.3841 1.1863-.3319.2414-.7868.2408-1.2462 0l-6.9518-3.6548c-.3863-.2034-1.0904-.2034-1.4768 0l-6.94663 3.6537c-.20631.1142-.43724.1766-.67297.1819zM2.56004 12.8927l5.61149 5.4702c.58346.5665.91938 1.6033.78173 2.4067l-1.32498 7.7245 6.93592-3.6469c.7211-.3791 1.8087-.3791 2.5298 0l6.9359 3.6469-1.3249-7.7245c-.1377-.8034.1982-1.8379.7817-2.4062l5.6115-5.4701-7.7545-1.1292c-.8061-.1173-1.6864-.7563-2.0466-1.4872l-3.468-7.0265-3.4679 7.0254c-.3603.7308-1.2406 1.3699-2.0467 1.4872l-7.75446 1.1297z" fill="#000"/></svg>
