<svg width="30" height="30" fill="none" xmlns="http://www.w3.org/2000/svg"><mask id="a" maskUnits="userSpaceOnUse" x="0" y="0" width="30" height="30"><path d="M0 0h30v30H0V0z" fill="#fff"/></mask><g mask="url(#a)"><path fill-rule="evenodd" clip-rule="evenodd" d="M30 15.0917C30 6.75677 23.2843 0 15 0 6.71572 0 0 6.75677 0 15.0917 0 22.6244 5.48528 28.8678 12.6563 30V19.4541H8.84766v-4.3624h3.80864v-3.3249c0-3.78236 2.2393-5.87162 5.6657-5.87162 1.6411 0 3.3577.29476 3.3577.29476v3.71397h-1.8915c-1.8633 0-2.4444 1.16329-2.4444 2.35679v2.831h4.1601l-.665 4.3624h-3.4951V30C24.5147 28.8678 30 22.6244 30 15.0917z" fill="#fff"/></g></svg>
