<svg width="37" height="30" fill="none" xmlns="http://www.w3.org/2000/svg"><path d="M29.3613 30c-3.1032 0-5.4505-1.2698-7.0419-3.8095-1.3527-2.1429-2.0291-4.7619-2.0291-7.8572 0-3.9682.9946-7.5396 2.9839-10.71425C25.343 4.44445 28.4462 1.90477 32.5839 0l1.0742 2.14286c-2.4667 1.03174-4.6151 2.65873-6.4452 4.88095-1.7505 2.22222-2.6258 4.48409-2.6258 6.78569 0 .9524.1194 1.7857.3581 2.5 1.2731-1.0317 2.7451-1.5476 4.4161-1.5476 2.1484 0 3.9387.7143 5.371 2.1429C36.2441 18.254 37 20.0794 37 22.381c0 2.1428-.7559 3.9682-2.2677 5.4761C33.3 29.2857 31.5097 30 29.3613 30zM9.07097 30c-3.10323 0-5.45054-1.2698-7.04194-3.8095C.676344 24.0476 0 21.4286 0 18.3333c0-3.9682.994624-7.5396 2.98387-10.71425C5.05269 4.44445 8.15591 1.90477 12.2935 0l1.0742 2.14286C10.9011 3.1746 8.75269 4.80159 6.92258 7.02381 5.17204 9.24603 4.29677 11.5079 4.29677 13.8095c0 .9524.11936 1.7857.35807 2.5C5.92796 15.2778 7.4 14.7619 9.07097 14.7619c2.14843 0 3.93873.7143 5.37093 2.1429 1.5119 1.3492 2.2678 3.1746 2.2678 5.4762 0 2.1428-.7559 3.9682-2.2678 5.4761C13.0097 29.2857 11.2194 30 9.07097 30z" fill="#EBEBEB"/></svg>
