<svg width="14" height="14" viewBox="0 0 14 14" fill="none" xmlns="http://www.w3.org/2000/svg">
<circle cx="7" cy="7" r="6.5" stroke="black"/>
<path d="M7.07278 2.98199C7.4233 2.98199 7.69293 3.05614 7.88167 3.20444C8.07715 3.35274 8.17489 3.56844 8.17489 3.85155C8.17489 4.13466 8.07715 4.35037 7.88167 4.49866C7.69293 4.64696 7.4233 4.72111 7.07278 4.72111C6.71552 4.72111 6.44252 4.64696 6.25378 4.49866C6.06504 4.35037 5.97067 4.13466 5.97067 3.85155C5.97067 3.56844 6.06504 3.35274 6.25378 3.20444C6.44252 3.05614 6.71552 2.98199 7.07278 2.98199ZM8.04345 9.94855C8.04345 10.2249 8.08389 10.417 8.16478 10.5249C8.25241 10.626 8.40071 10.6765 8.60967 10.6765V10.8889C7.88167 10.8619 7.40308 10.8484 7.17389 10.8484C6.94471 10.8484 6.43915 10.8619 5.65723 10.8889V10.6765C5.86619 10.6765 6.01112 10.626 6.092 10.5249C6.17963 10.417 6.22345 10.2249 6.22345 9.94855V6.74333C6.22345 6.43325 6.17963 6.20744 6.092 6.06588C6.01112 5.92433 5.86619 5.85355 5.65723 5.85355V5.64122C5.87293 5.66144 6.08189 5.67155 6.28412 5.67155C6.98515 5.67155 7.5716 5.62437 8.04345 5.52999V9.94855Z" fill="black"/>
</svg>
