<svg width="31" height="30" fill="none" xmlns="http://www.w3.org/2000/svg"><mask id="a" maskUnits="userSpaceOnUse" x="0" y="0" width="31" height="30"><path d="M.493164 0H30.4967v30H.493164V0z" fill="#fff"/></mask><g mask="url(#a)"><path fill-rule="evenodd" clip-rule="evenodd" d="M15.495 0c-4.0743 0-4.5852.0172694-6.18527.0902773C7.71297.163107 6.62243.416729 5.66821.787604c-.9865.383326-1.82311.896286-2.65717 1.730276-.83399.83405-1.34695 1.67067-1.73027 2.65717C.909893 6.12927.656271 7.2198.583441 8.81657.510433 10.4167.493164 10.9275.493164 15.0018c0 4.0742.017269 4.5851.090277 6.1852.07283 1.5968.326452 2.6873.697329 3.6415.38332.9865.89628 1.8231 1.73027 2.6572.83406.834 1.67067 1.3469 2.65717 1.7303.95422.3708 2.04476.6245 3.64152.6973 1.60007.073 2.11097.0903 6.18527.0903 4.0742 0 4.5851-.0173 6.1852-.0903 1.5967-.0728 2.6873-.3265 3.6415-.6973.9865-.3834 1.8231-.8963 2.6572-1.7303.834-.8341 1.3469-1.6707 1.7303-2.6572.3708-.9542.6244-2.0447.6973-3.6415.073-1.6001.0902-2.111.0902-6.1852 0-4.0743-.0172-4.5851-.0902-6.18523-.0729-1.59677-.3265-2.6873-.6973-3.64152-.3834-.9865-.8963-1.82312-1.7303-2.65717-.8341-.83399-1.6707-1.34695-2.6572-1.730276-.9542-.370875-2.0448-.624497-3.6415-.6973267C20.0801.0172694 19.5692 0 15.495 0zm0 2.70302c4.0056 0 4.4801.0153 6.062.08748 1.4626.06669 2.257.31109 2.7856.51653.7002.27214 1.2.59723 1.7249 1.12222.525.52493.8501 1.02467 1.1222 1.72491.2055.52862.4498 1.32296.5165 2.78562.0722 1.58192.0875 2.05632.0875 6.06202 0 4.0056-.0153 4.4801-.0875 6.062-.0667 1.4627-.311 2.257-.5165 2.7856-.2721.7003-.5972 1.2-1.1222 1.7249-.5249.525-1.0247.8501-1.7249 1.1222-.5286.2055-1.323.4499-2.7856.5166-1.5817.0722-2.0561.0875-6.062.0875-4.006 0-4.4804-.0153-6.06206-.0875-1.46266-.0667-2.25699-.3111-2.78561-.5166-.70025-.2721-1.19999-.5972-1.72492-1.1222-.52493-.5249-.85007-1.0246-1.12221-1.7249-.20545-.5286-.44984-1.3229-.51654-2.7856-.07217-1.5819-.08748-2.0564-.08748-6.062 0-4.0057.01531-4.4801.08748-6.06202.0667-1.46266.31109-2.257.51654-2.78562.27214-.70024.59722-1.19998 1.12221-1.72491.52493-.52499 1.02467-.85008 1.72492-1.12222.52862-.20544 1.32295-.44984 2.78561-.51653 1.58186-.07218 2.05636-.08748 6.06206-.08748z" fill="#fff"/></g><path fill-rule="evenodd" clip-rule="evenodd" d="M15.4951 20.0028c-2.7618 0-5.0007-2.2388-5.0007-5.0006 0-2.7618 2.2389-5.0006 5.0007-5.0006 2.7617 0 5.0005 2.2388 5.0005 5.0006 0 2.7618-2.2388 5.0006-5.0005 5.0006zm0-12.70422c-4.2547 0-7.70369 3.44902-7.70369 7.70362s3.44899 7.7036 7.70369 7.7036c4.2545 0 7.7035-3.449 7.7035-7.7036s-3.449-7.70362-7.7035-7.70362zM25.3031 6.99409c0 .99425-.806 1.80019-1.8002 1.80019s-1.8002-.80594-1.8002-1.80019c0-.99424.806-1.80024 1.8002-1.80024s1.8002.806 1.8002 1.80024z" fill="#fff"/></svg>
