<svg width="25" height="25" fill="none" xmlns="http://www.w3.org/2000/svg"><path d="M7.5 1l16 7L17 21l-14.5.5L7.5 1z" fill="#fff"/><path d="M13 4c-4.40889 0-8 3.59111-8 8 0 1.4222.37333 2.7911 1.08444 4.0178l-1.01333 3.5378c-.03555.1244 0 .2488.08889.3555l.01778.0178c.07111.0711.16.1067.24889.1067.03555 0 .07111 0 .08889-.0178l3.57333-1.0134C10.2978 19.6444 11.6489 20 13 20c4.4089 0 8-3.5911 8-8 0-4.40889-3.5911-8-8-8zm0 15.2889c-1.28 0-2.5422-.3378-3.66222-.9778-.05334-.0355-.12445-.0533-.17778-.0533-.03556 0-.07111 0-.08889.0178l-3.14667.8888.87112-3.0933c.03555-.0889.01777-.1955-.03556-.2844C6.08444 14.6489 5.71111 13.3333 5.71111 12c0-4.01778 3.27111-7.28889 7.28889-7.28889 4.0178 0 7.2889 3.27111 7.2889 7.28889 0 4.0178-3.2711 7.2889-7.2889 7.2889z" fill="#262626"/><path d="M19.0444 11.6445h-1.6178c-.0177-1.0667-.2133-2.20448-.6933-3.37782h.8889c.1956 0 .3556-.16.3556-.35555 0-.19556-.16-.35556-.3556-.35556h-1.2089c-.3022-.60444-.6933-1.20889-1.1733-1.81333-.1245-.16-.3378-.17778-.4978-.05333-.16.12444-.1778.33777-.0533.49777.3555.44445.6755.90667.9244 1.38667h-2.2578v-1.6c0-.19556-.16-.35556-.3555-.35556-.1956 0-.3556.16-.3556.35556v1.6h-2.1689c.4445-.85333.8356-1.36889.8534-1.38667.1244-.16.0889-.37333-.0534-.49777-.16-.12445-.3733-.08889-.4977.05333-.0178.01778-.5512.69333-1.08449 1.81333H8.37775c-.19555 0-.35555.16-.35555.35556 0 .19555.16.35555.35555.35555h.99556c-.37333.94223-.71111 2.09782-.78222 3.37782H6.95553c-.19555 0-.35555.16-.35555.3555 0 .1956.16.3556.35555.3556h1.61778c.01778 1.0666.21333 2.2044.69333 3.3777h-.88889c-.19555 0-.35555.16-.35555.3556 0 .1956.16.3556.35555.3556h1.20889c.30222.6044.69336 1.2088 1.17336 1.8133.0711.0889.1778.1422.2844.1422.0711 0 .16-.0178.2134-.0711.16-.1244.1777-.3378.0533-.4978-.3556-.4444-.6756-.9066-.9245-1.3866h2.2578v1.6c0 .1955.16.3555.3556.3555.1955 0 .3555-.16.3555-.3555v-1.6h2.1689c-.4444.8533-.8355 1.3688-.8533 1.3866-.1245.16-.0889.3734.0533.4978.0711.0533.1422.0711.2134.0711.1066 0 .2133-.0533.2844-.1422.0178-.0178.5511-.6933 1.0844-1.8133h1.3156c.1956 0 .3556-.16.3556-.3556 0-.1956-.16-.3556-.3556-.3556h-.9956c.3734-.9422.7112-2.0977.7823-3.3777h1.6355c.1956 0 .3556-.16.3556-.3556 0-.1955-.16-.3555-.3556-.3555zm-3.0755-3.37782c.4977 1.08445.7466 2.20442.7644 3.37782h-3.3778V8.26668h2.6134zM9.58664 9.84891c.16-.58667.35556-1.12.55116-1.58223h2.5066v3.37782H9.28442c.03556-.5867.14222-1.1911.30222-1.79559zm.44446 5.88439c-.49779-1.0844-.74668-2.2044-.76446-3.3777h3.37776v3.3777h-2.6133zm6.3822-1.5822c-.16.5867-.3555 1.12-.5511 1.5822h-2.5067v-3.3777h3.36c-.0355.5866-.1422 1.1911-.3022 1.7955z" fill="#262626"/></svg>
