<svg width="40" height="40" fill="none" xmlns="http://www.w3.org/2000/svg"><path d="M7.497 7.155l26.306 5.532-.766 17.478-30.108.43 4.568-23.44z" fill="#fff"/><path d="M7.177 26.48l13.211 5.5a.26.26 0 0 0 .2 0l13.232-5.5a.29.29 0 0 0 .18-.267V9.292a.29.29 0 0 0-.401-.267l-13.1 5.453L7.4 9.022A.29.29 0 0 0 7 9.289v16.92a.29.29 0 0 0 .177.271zm26.242-.465l-12.63 5.259V14.986l12.63-5.258v16.287zM7.579 9.728l12.629 5.258v16.288l-12.63-5.259V9.728z" fill="#000" stroke="#000" stroke-width=".2"/><path d="M30.602 8.023l-10.145 4.356L10.4 8.062a.281.281 0 0 0-.22 0 .294.294 0 0 0-.158.16.307.307 0 0 0 0 .228c.03.074.085.132.156.162l10.169 4.365a.283.283 0 0 0 .222 0l10.253-4.404a.294.294 0 0 0 .156-.161.307.307 0 0 0 0-.228.294.294 0 0 0-.157-.161.281.281 0 0 0-.222 0h.003z" fill="#000" stroke="#000" stroke-width=".2"/></svg>