<svg width="25" height="24" fill="none" xmlns="http://www.w3.org/2000/svg"><path opacity=".54" fill-rule="evenodd" clip-rule="evenodd" d="M16.108 14h-.794l-.276-.274c.975-1.137 1.568-2.611 1.568-4.22597 0-3.59-2.91-6.5-6.5-6.5-3.59004 0-6.50004 2.91-6.50004 6.5C3.60596 13.09 6.51596 16 10.106 16c1.615 0 3.088-.592 4.225-1.566l.276.274v.792l4.998 4.991L21.096 19l-4.988-5zm-6.002 0c-2.48604 0-4.50004-2.014-4.50004-4.49997 0-2.485 2.014-4.5 4.50004-4.5 2.485 0 4.5 2.015 4.5 4.5C14.606 11.986 12.591 14 10.106 14z" fill="#000"/></svg>