<svg width="40" height="40" fill="none" xmlns="http://www.w3.org/2000/svg"><path d="M36.88 14.108L26.23 33.905 9 28 7.5 4l29.38 10.108z" fill="#fff"/><path d="M32.526 9.896h-3.5v-2.43A.47.47 0 0 0 28.552 7H11.447a.47.47 0 0 0-.473.467v2.43h-3.5a.47.47 0 0 0-.474.466v5.9c0 .867.157 1.7.467 2.477 1.06 2.669 3.053 4.388 5.245 4.558 1.486 2.456 3.588 4.124 5.891 4.593l.005.001c.301.062.609.102.918.123v2.66a8.301 8.301 0 0 0-.897.09c-2.606.413-4.428 1.954-4.44 3.752l-.001.016a.467.467 0 0 0 .474.467H25.338a.475.475 0 0 0 .474-.467l-.002-.016c-.01-1.798-1.832-3.34-4.437-3.752a8.297 8.297 0 0 0-.899-.09v-2.66c.309-.021.617-.06.918-.123.002 0 .003 0 .005-.002 2.303-.469 4.404-2.136 5.891-4.593 2.192-.17 4.184-1.889 5.245-4.557.31-.777.467-1.61.467-2.476v-5.901a.471.471 0 0 0-.474-.467zM18.047 7.933v7.64l-1.143-.99a.477.477 0 0 0-.626 0l-1.142.99v-7.64h2.911zM8.349 18.4a5.735 5.735 0 0 1-.401-2.135v-5.435h3.026v6.681c0 1.288.233 2.529.695 3.688.146.368.307.72.476 1.063-1.572-.402-2.98-1.808-3.796-3.862zm16.448 15.667h-9.595c.312-1.123 1.72-2.086 3.58-2.38a7.828 7.828 0 0 1 2.438 0c1.858.294 3.266 1.257 3.578 2.38zM21.2 26.978h-.002a5.977 5.977 0 0 1-2.397 0H18.8c-2.598-.527-4.934-2.815-6.248-6.12a9.023 9.023 0 0 1-.63-3.348V7.933h2.267v8.672c0 .184.11.35.279.426a.48.48 0 0 0 .508-.075l1.616-1.401 1.616 1.4a.477.477 0 0 0 .508.076.467.467 0 0 0 .279-.425V7.932h9.083v9.577c0 1.17-.212 2.297-.63 3.348-1.313 3.305-3.649 5.593-6.247 6.12zm10.852-10.714c0 .749-.135 1.467-.402 2.135-.816 2.054-2.223 3.46-3.795 3.862.169-.344.33-.696.476-1.063.461-1.16.695-2.4.695-3.688v-6.68h3.026v5.434z" fill="#000"/></svg>