<svg width="41" height="33" fill="none" xmlns="http://www.w3.org/2000/svg"><path d="M20.779 25.3437c-5.8291 0-11.33853-2.9691-15.11596-8.146-.11187-.153-.11049-.3615.00346-.5131 3.79055-5.1814 9.2948-8.14392 15.1135-8.14392 5.8119 0 11.3088 2.95632 15.0845 8.11112.1254.1519.1509.3795.0328.5407-3.7767 5.1803-9.2871 8.1512-15.1183 8.1512zM6.54905 16.9439c3.60615 4.7943 8.77575 7.5366 14.22995 7.5366 5.4541 0 10.6227-2.7419 14.2279-7.5359-3.6052-4.796-8.7755-7.5407-14.2269-7.5407-5.452 0-10.6234 2.7443-14.23095 7.54z" fill="#000"/><path d="M20.6757 25.3468c-4.6334 0-8.4032-3.7698-8.4032-8.4032 0-4.6331 3.7695-8.40223 8.4032-8.40223 4.633 0 8.4022 3.76913 8.4022 8.40223 0 4.6334-3.7692 8.4032-8.4022 8.4032zm0-15.94222c-4.1576 0-7.54 3.38212-7.54 7.53902 0 4.1576 3.3824 7.54 7.54 7.54 4.1569 0 7.539-3.3824 7.539-7.54 0-4.1569-3.3821-7.53902-7.539-7.53902z" fill="#000"/><path d="M20.6768 12.845c2.2606 0 4.0996 1.839 4.0996 4.0993 0 2.2599-1.839 4.0985-4.0996 4.0985-.5483 0-1.0818-.1074-1.5866-.3184-.1153-.0486-.2041-.1446-.2431-.2634-.039-.1188-.0245-.249.0394-.356.1547-.2593.2268-.4855.2268-.712 0-.7852-.6391-1.4243-1.4243-1.4243-.1619 0-.3266.0494-.4668.097-.1174.0408-.2469.0284-.3553-.0338-.1077-.0621-.1837-.1675-.2082-.29-.0539-.27-.0812-.5387-.0812-.798.0004-2.2599 1.839-4.0989 4.0993-4.0989zm0 7.3346c1.7844 0 3.2364-1.4513 3.2364-3.2353 0-1.7845-1.452-3.2361-3.2364-3.2361-1.7841 0-3.2357 1.4516-3.2357 3.2361 0 .0587.0017.118.0055.1781.0777-.0107.1585-.0169.2428-.0169 1.2613 0 2.2875 1.0262 2.2875 2.2875 0 .2276-.0401.4534-.1222.6816.2669.0698.5421.105.8221.105z" fill="#000"/><path d="M4.94127 29.7228L37.0609 5.88309c.4434-.32915.5361-.9555.207-1.39898-.3292-.44348-.9555-.53615-1.399-.20699L3.74929 28.1168c-.44348.3292-.53616.9555-.207 1.399s.9555.5362 1.39898.207z" fill="#fff"/><path d="M5.12603 28.8517L36.3503 5.67651c.1778-.13195.2149-.38304.083-.56082-.132-.17778-.3831-.21493-.5609-.08298L4.64819 28.2079c-.17778.1319-.21493.383-.08298.5608.13195.1778.38304.2149.56082.083z" fill="#333"/></svg>