<svg width="29" height="29" viewBox="0 0 29 29" fill="none" xmlns="http://www.w3.org/2000/svg">
<path d="M1.31399 4.26105C1.14057 4.26105 1 4.40089 1 4.5734C1 4.74591 1.14057 4.88576 1.31399 4.88576H4.82678L8.20219 20.728C8.14461 20.924 8.33146 21.1482 8.53581 21.1282H24.2354C24.4013 21.1313 24.5539 20.9809 24.5539 20.8159C24.5539 20.6508 24.4013 20.5012 24.2354 20.5035H8.79093L8.1237 17.3799H25.4914C25.632 17.3799 25.7648 17.2724 25.7956 17.1359L27.9935 7.76528C28.0343 7.58399 27.8761 7.38591 27.6893 7.3846H5.99442L5.38609 4.50507C5.35532 4.3686 5.22247 4.26203 5.0819 4.26105H1.31399ZM6.13182 8.0093H27.2968L25.2461 16.7552H7.98632L6.13182 8.0093ZM11.6757 23.0023C10.2922 23.0023 9.16379 24.1248 9.16379 25.5012C9.16379 26.8775 10.2922 28 11.6757 28C13.0593 28 14.1877 26.8775 14.1877 25.5012C14.1877 24.1248 13.0593 23.0023 11.6757 23.0023ZM21.0955 23.0023C19.7119 23.0023 18.5836 24.1248 18.5836 25.5012C18.5836 26.8775 19.7119 28 21.0955 28C22.4791 28 23.6074 26.8775 23.6074 25.5012C23.6074 24.1248 22.4791 23.0023 21.0955 23.0023ZM11.6757 23.627C12.7199 23.627 13.5597 24.4624 13.5597 25.5012C13.5597 26.5399 12.7199 27.3753 11.6757 27.3753C10.6316 27.3753 9.79178 26.5399 9.79178 25.5012C9.79178 24.4624 10.6316 23.627 11.6757 23.627ZM21.0955 23.627C22.1397 23.627 22.9794 24.4624 22.9794 25.5012C22.9794 26.5399 22.1397 27.3753 21.0955 27.3753C20.0513 27.3753 19.2115 26.5399 19.2115 25.5012C19.2115 24.4624 20.0513 23.627 21.0955 23.627Z" fill="black" stroke="black" stroke-width="0.5"/>
<ellipse cx="19.923" cy="6.3947" rx="5.42298" ry="5.3947" fill="white" stroke="black"/>
<path d="M17.1061 6.7172C17.0257 6.7172 16.9587 6.69054 16.9051 6.63722C16.8515 6.58391 16.8247 6.51726 16.8247 6.43729C16.8247 6.3662 16.8515 6.30844 16.9051 6.26401C16.9587 6.21069 17.0257 6.18403 17.1061 6.18403H22.6533C22.7337 6.18403 22.8007 6.21069 22.8543 6.26401C22.9079 6.31732 22.9347 6.38397 22.9347 6.46395C22.9347 6.52615 22.9079 6.58391 22.8543 6.63722C22.8007 6.69054 22.7337 6.7172 22.6533 6.7172H17.1061ZM19.8797 9.6896C19.7993 9.6896 19.7323 9.66294 19.6787 9.60962C19.6251 9.55631 19.5983 9.48966 19.5983 9.40968V3.61151C19.5983 3.52265 19.6251 3.45156 19.6787 3.39824C19.7323 3.34493 19.7993 3.31827 19.8797 3.31827C19.969 3.31827 20.036 3.34493 20.0807 3.39824C20.1343 3.45156 20.1611 3.51821 20.1611 3.59818V9.39636C20.1611 9.48522 20.1343 9.55631 20.0807 9.60962C20.0271 9.66294 19.9601 9.6896 19.8797 9.6896Z" fill="black" stroke="black" stroke-width="0.5"/>
</svg>
