<svg width="40" height="40" fill="none" xmlns="http://www.w3.org/2000/svg"><path d="M6.31585 7.80518C6.1414 7.80518 6 7.94659 6 8.12102c0 .17444.1414.31585.31585.31585h3.53354L13.2448 24.4562c-.058.1983.13.425.3355.4047h15.7924c.1669.0032.3203-.1489.3203-.3158 0-.1669-.1534-.3182-.3203-.3159H13.837l-.6712-3.1584h17.4703c.1414 0 .275-.1088.306-.2468l2.2109-9.4754c.0411-.1833-.1181-.3836-.306-.3849H11.0239l-.6119-2.91177c-.0309-.138-.1646-.24576-.306-.24675H6.31585zm4.84625 3.79012h21.2901l-2.0628 8.8438H13.0276l-1.8655-8.8438zm5.5767 15.1607c-1.3917 0-2.5268 1.135-2.5268 2.5268 0 1.3918 1.1351 2.5268 2.5268 2.5268 1.3918 0 2.5268-1.135 2.5268-2.5268 0-1.3918-1.135-2.5268-2.5268-2.5268zm9.4754 0c-1.3917 0-2.5267 1.135-2.5267 2.5268 0 1.3918 1.135 2.5268 2.5267 2.5268 1.3918 0 2.5268-1.135 2.5268-2.5268 0-1.3918-1.135-2.5268-2.5268-2.5268zm-9.4754.6317c1.0504 0 1.8951.8447 1.8951 1.8951s-.8447 1.8951-1.8951 1.8951c-1.0503 0-1.8951-.8447-1.8951-1.8951s.8448-1.8951 1.8951-1.8951zm9.4754 0c1.0504 0 1.8951.8447 1.8951 1.8951s-.8447 1.8951-1.8951 1.8951c-1.0503 0-1.895-.8447-1.895-1.8951s.8447-1.8951 1.895-1.8951z" fill="#262626" stroke="#262626" stroke-width=".35"/></svg>