<svg width="40" height="40" fill="none" xmlns="http://www.w3.org/2000/svg"><path opacity=".65" d="M4.37897 11.091L33.4056 5.95874 30.0178 34.5273 7.89726 29.982l1.01511-4.1639-4.5334-14.7271z" fill="#FF846E"/><path d="M4.02445 6.91455c-.20708 0-.37494.16787-.37494.37494 0 .20708.16786.37495.37494.37495h4.19468L12.2498 26.6811c-.0688.2353.1543.5044.3984.4804h18.7471c.1981.0038.3803-.1768.3803-.3749 0-.1982-.1822-.3778-.3803-.375H12.9528l-.7968-3.7494h20.7391c.1679 0 .3265-.1292.3633-.293l2.6246-11.2483c.0487-.2176-.1403-.4553-.3633-.4569H9.61343l-.72641-3.45652c-.03675-.16382-.19539-.29174-.36325-.29293H4.02445zm5.75306 4.49935H35.051l-2.4488 10.4984H11.992L9.77751 11.4139zm6.62009 17.9973c-1.6522 0-2.9996 1.3473-2.9996 2.9995s1.3474 2.9996 2.9996 2.9996c1.6521 0 2.9995-1.3474 2.9995-2.9996 0-1.6522-1.3474-2.9995-2.9995-2.9995zm11.2483 0c-1.6522 0-2.9996 1.3473-2.9996 2.9995s1.3474 2.9996 2.9996 2.9996c1.6521 0 2.9995-1.3474 2.9995-2.9996 0-1.6522-1.3474-2.9995-2.9995-2.9995zm-11.2483.7499c1.2469 0 2.2497 1.0027 2.2497 2.2496 0 1.2469-1.0028 2.2497-2.2497 2.2497-1.2468 0-2.2497-1.0028-2.2497-2.2497s1.0029-2.2496 2.2497-2.2496zm11.2483 0c1.2469 0 2.2497 1.0027 2.2497 2.2496 0 1.2469-1.0028 2.2497-2.2497 2.2497-1.2468 0-2.2497-1.0028-2.2497-2.2497s1.0029-2.2496 2.2497-2.2496z" fill="#000"/><circle cx="26.2458" cy="9.47568" r="6.10068" fill="#fff" stroke="#000" stroke-width=".75"/><path d="M22.8818 9.86284c-.096 0-.176-.032-.24-.096s-.096-.144-.096-.24c0-.08534.032-.15467.096-.208.064-.064.144-.096.24-.096h6.624c.096 0 .176.032.24.096s.096.144.096.24c0 .07466-.032.144-.096.208s-.144.096-.24.096h-6.624zm3.312 3.56796c-.096 0-.176-.032-.24-.096s-.096-.144-.096-.24V6.13484c0-.10667.032-.192.096-.256s.144-.096.24-.096c.1066 0 .1866.032.24.096.064.064.096.144.096.24v6.95996c0 .1067-.032.192-.096.256s-.144.096-.24.096z" fill="#000"/></svg>
