<svg width="40" height="40" fill="none" xmlns="http://www.w3.org/2000/svg"><path opacity=".65" d="M6.614 11.323L31.067 7l-2.854 24.066-18.634-3.83.855-3.507-3.819-12.406z" fill="#FF846E"/><path d="M6.316 7.805a.316.316 0 1 0 0 .632h3.533l3.396 16.02c-.058.197.13.424.335.404h15.793a.328.328 0 0 0 .32-.316.328.328 0 0 0-.32-.316H13.837l-.671-3.158h17.47a.325.325 0 0 0 .306-.247l2.211-9.475a.33.33 0 0 0-.306-.385H11.024l-.612-2.912a.326.326 0 0 0-.306-.247h-3.79zm4.846 3.79h21.29L30.39 20.44H13.028l-1.866-8.844zm5.577 15.161a2.532 2.532 0 0 0-2.527 2.527 2.532 2.532 0 0 0 2.527 2.527 2.532 2.532 0 0 0 2.527-2.527 2.532 2.532 0 0 0-2.527-2.527zm9.475 0a2.532 2.532 0 0 0-2.526 2.527 2.532 2.532 0 0 0 2.526 2.527 2.532 2.532 0 0 0 2.527-2.527 2.532 2.532 0 0 0-2.527-2.527zm-9.475.632a1.89 1.89 0 0 1 1.895 1.895 1.89 1.89 0 0 1-1.895 1.895 1.89 1.89 0 0 1-1.895-1.895 1.89 1.89 0 0 1 1.895-1.895zm9.475 0a1.89 1.89 0 0 1 1.895 1.895 1.89 1.89 0 0 1-1.895 1.895 1.89 1.89 0 0 1-1.895-1.895 1.89 1.89 0 0 1 1.895-1.895z" fill="#262626" stroke="#262626" stroke-width=".35"/></svg>
