<svg width="30" height="30" fill="none" xmlns="http://www.w3.org/2000/svg">
    <path fill="#fff" d="M5 0h19v23H5z"/>
    <path d="M13.9543 15.0339c1.2329.0064 2.4377-.3681 3.4498-1.0723.0473-.0332.0876-.0754.1186-.1241.031-.0488.0522-.1032.0622-.1601.01-.057.0086-.1153-.0039-.1717-.0126-.0564-.0361-.1098-.0693-.1572-.0332-.0473-.0753-.0876-.1241-.1186-.0488-.031-.1032-.0522-.1601-.0622-.0569-.01-.1153-.0086-.1717.0039-.0564.0126-.1098.0361-.1571.0693-.8907.6232-1.9558.9484-3.0426.929-1.0869-.0195-2.1397-.3826-3.0074-1.0374-.86778-.6547-1.5059-1.5674-1.82291-2.6072-.31701-1.03978-.29661-2.15325.05827-3.18073.35487-1.02748 1.02604-1.9162 1.91714-2.53871.8911-.62251 1.9565-.94685 3.0434-.92649 1.0868.02035 2.1393.38434 3.0065 1.03978.8672.65545 1.5046 1.56867 1.8208 2.60871.037.10803.1147.19739.2165.24915s.2197.06186.3289.02816c.1091-.03371.2008-.10858.2557-.20874.0548-.10016.0686-.21774.0382-.32785-.3226-1.06943-.9362-2.02811-1.7722-2.76896s-1.8615-1.2347-2.962-1.42641c-1.1005-.1917-2.2326-.07369-3.2698.34083-1.0373.41453-1.93894 1.10926-2.6042 2.00659-.66525.89734-1.06796 1.96194-1.16312 3.07492-.09517 1.11298.12094 2.23055.6242 3.22775.50326.9973 1.27384 1.835 2.22572 2.4196.9518.5846 2.0474.8931 3.1645.891zM19.2808 10.7579c-.0533-.0224-.1106-.0339-.1685-.0341-.0578-.0001-.1151.0111-.1686.0332-.0535.022-.1021.0544-.143.0953-.041.0409-.0734.0894-.0956.1429-.0955.2274-.2071.4477-.334.6592-.0388.0493-.0667.1064-.0816.1675-.015.061-.0167.1245-.005.1862.0117.0618.0365.1203.0727.1716s.083.0943.1373.126c.0542.0317.1146.0515.1771.0579.0625.0063.1256-.0007.1852-.0208.0595-.0201.114-.0527.1599-.0956.0459-.043.082-.0953.1059-.1534.1486-.2466.2793-.5036.3911-.769.0427-.1062.0422-.2249-.0013-.3308-.0435-.1058-.1266-.1906-.2316-.2361z" fill="#000"/><path d="M20.699 15.9387c.2762-.0474.5265-.1904.7063-.4035.1798-.2131.2775-.4825.2755-.7603.0002-.0555.018-.1096.0509-.1545.033-.0449.0794-.0783.1327-.0956.2797-.0893.5161-.2781.6635-.5299.1475-.2519.1955-.549.1348-.8339-.012-.0544-.006-.1112.0172-.162.0231-.0508.0621-.0928.1113-.1199.2576-.145.4513-.3803.543-.6595.0917-.2792.0747-.5823-.0475-.8498-.024-.0508-.0307-.108-.0191-.1629.0115-.0549.0408-.1047.0833-.1417.2217-.1947.3619-.4644.3933-.7562.0314-.2918-.0483-.5847-.2235-.82132-.0335-.04469-.0516-.09889-.0516-.15457 0-.05568.0181-.10988.0516-.15457.1758-.23608.2562-.52865.2257-.82044-.0306-.29179-.1699-.56177-.3909-.75707-.0419-.03746-.0707-.08716-.0823-.14191-.0115-.05476-.0052-.11173.0181-.16269.1222-.2675.1391-.57059.0475-.84982-.0917-.27923-.2854-.51445-.543-.65951-.0495-.02784-.0887-.07068-.1119-.12223-.0231-.05156-.0289-.1091-.0166-.16417.0607-.28491.0127-.58199-.1348-.83387-.1474-.25188-.3838-.4407-.6636-.52998-.0536-.01661-.1004-.0499-.1335-.09493-.033-.04504-.0506-.09943-.05-.15511.0015-.29284-.1072-.57573-.3049-.79344-.1976-.21771-.4701-.35463-.7641-.38402-.0567-.00491-.1102-.02798-.1524-.06572-.0422-.03774-.0709-.08808-.0816-.1434-.0599-.28705-.2257-.54164-.465-.71399s-.5349-.25008-.8289-.21798c-.0559.00653-.1125-.00498-.1612-.03283-.0488-.02784-.0872-.07054-.1095-.12174-.1188-.26908-.3348-.484472-.6055-.603907-.2708-.119434-.5769-.134288-.8582-.041645-.0534.018139-.1114.018642-.1651.001432-.0538-.01721-.1005-.051206-.1331-.096902-.1723-.238407-.4281-.404552-.7175-.46593-.2894-.061379-.5914-.013575-.8471.13406-.0487.02812-.1052.040191-.1612.034472-.0561-.00572-.1089-.028933-.1508-.066295C14.9609.110261 14.6752 0 14.3787 0c-.2966 0-.5823.110261-.8007.308975-.0415.038012-.0944.061659-.1506.067396-.0563.005737-.1129-.006744-.1614-.035573-.2557-.147635-.5577-.195439-.8471-.13406-.2894.061378-.5452.227523-.7175.46593-.0331.045134-.0798.078695-.1334.095851-.0536.017156-.1113.017022-.1648-.000381-.2812-.093725-.5877-.07939-.8588.040167-.2711.119556-.4869.335615-.60485.605385-.02233.0512-.06073.0939-.1095.12174-.04877.02785-.10531.03936-.16121.03283-.29405-.0321-.58961.04563-.8289.21798-.23928.17235-.40508.42694-.46498.71399-.01076.05532-.03942.10566-.08164.1434-.04223.03774-.09571.06081-.15236.06572-.29489.02833-.56846.16479-.76708.38261-.19862.21782-.30795.5013-.30657.79485.00059.05568-.01695.11007-.05.15511-.03306.04503-.07988.07832-.13353.09493-.27972.08928-.51612.2781-.66357.52998-.14744.25188-.19546.54896-.13478.83387.01201.05442.006.11123-.01714.162-.02314.05077-.06218.0928-.11133.11986-.25766.14506-.45132.38027-.543.6595-.09167.27923-.07474.58233.04747.84983.02329.05095.02961.10793.01807.16268-.01155.05476-.04037.10445-.0823.14191-.22092.1953-.3603.46528-.39085.75707-.03056.29179.04992.58437.22567.82045.03461.0451.05334.10019.05334.15684 0 .05665-.01873.11175-.05334.15684-.17575.23608-.25623.52862-.22567.82042.03055.2918.16993.5618.39085.7571.04254.037.07181.0868.08339.1417.01159.0549.00486.1121-.01916.1629-.12221.2675-.13914.5706-.04747.8498.09168.2792.28534.5145.543.6595.05004.0273.08969.0701.11289.1218.0232.0517.02867.1095.01558.1646-.06045.2855-.01178.5831.13656.8351.14835.2519.38581.4404.66638.5288.05365.0166.10047.0499.13352.0949.03306.045.0506.0994.05001.1551-.00149.2929.1072.5757.30487.7935.19767.2177.47013.3546.76419.384.05665.0049.11013.028.15236.0657.04222.0377.07088.0881.08164.1434.04414.206.14407.3961.28906.5501l-1.8353 11.4063c-.0086.081.00491.1628.03915.2369.03423.0741.08792.1377.15544.1841.06753.0465.14642.0741.22842.08.082.006.16409-.0101.2377-.0464l3.01907-1.5366 2.6657 2.5641c.0862.0823.2015.128.3212.1273.0456.0068.0921.0068.1377 0 .0791-.025.1499-.0707.2048-.1323.0549-.0617.092-.1369.1072-.2178l1.2113-6.4555 1.8582 6.7465c.0223.0817.0672.1557.1296.2135.0624.0578.1399.0972.2237.1138h.0872c.0708.0005.1408-.0152.2045-.046.0637-.0307.1193-.0757.1625-.1313l2.0556-2.6504 3.5191 1.1729c.0787.0258.163.0301.2439.0122.0809-.0178.1554-.057.2157-.1134.0602-.0564.1039-.1279.1264-.207.0225-.079.0229-.1626.0013-.2419L20.699 15.9387zm-12.48463-.9092c-.06611-.0058-.12754-.0362-.17184-.0852-.04431-.049-.06817-.1128-.06675-.1785.00272-.2521-.07659-.4983-.22617-.7022-.14959-.2039-.36149-.3546-.6043-.4298-.0625-.02-.11534-.0621-.14837-.1183-.03304-.0563-.04392-.1226-.03057-.1863.05698-.2458.03186-.5032-.07158-.7336-.10343-.2304-.27958-.4212-.50195-.5439-.05716-.0326-.10008-.085-.12042-.1472-.02035-.0621-.01667-.1296.01031-.1892.10627-.2283.1351-.4845.08216-.7303-.05293-.2459-.18478-.4681-.37581-.6335-.04856-.0437-.07915-.1035-.08592-.1681-.00678-.0646.01075-.1294.04921-.182.15298-.20107.23573-.44603.23573-.69784 0-.2518-.08275-.49676-.23573-.69783-.03846-.05259-.05599-.11739-.04921-.18198.00677-.0646.03736-.12445.08592-.16808.18918-.16669.3197-.38889.37252-.63422.05282-.24532.02518-.50095-.07887-.72963-.02698-.05962-.03066-.12705-.01031-.18921.02034-.06216.06326-.11461.12042-.1472.22081-.12427.39564-.31536.49885-.54526.10321-.2299.12939-.48651.07468-.73222-.01444-.06377-.00402-.13059.02916-.18708.03319-.05648.08669-.09845.14978-.11751.24242-.07585.45391-.22673.60339-.43048.14947-.20375.22907-.44963.22708-.70151-.00035-.06546.02388-.1287.06797-.17744.0441-.04873.10492-.07947.17062-.08624.25317-.02291.492-.12658.68064-.29545.18863-.16887.31688-.39382.36548-.64106.01233-.06473.04907-.12238.10277-.16123.05369-.03885.1203-.05597.18629-.0479.24864.02712.49955-.02419.71705-.14664.2175-.12244.3905-.30976.4942-.53528.0256-.06067.0735-.10945.1339-.13646.0605-.02701.1291-.03023.1919-.00902.243.07669.5044.0739.7457-.00797.2413-.08186.4495-.23846.5941-.44664.0387-.05271.0958-.08931.1602-.10274.0644-.01344.1316-.00275.1885.03.2183.1298.4733.18579.7265.15956.2532-.02624.491-.1333.6775-.30504.0489-.044085.1127-.068511.1789-.068511.0662 0 .13.024426.179.068511.1864.17174.4242.2788.6774.30504.2533.02623.5082-.02976.7266-.15956.0569-.03275.124-.04344.1884-.03.0644.01343.1215.05003.1603.10274.1445.20818.3528.36478.594.44664.2413.08187.5027.08466.7457.00797.0629-.02012.131-.01638.1912.01051.0602.02689.1082.07499.1346.13497.1019.23008.2752.42199.4946.54788.2195.12589.4737.17921.7259.15223.0656-.00597.1311.01198.1843.05047.0533.0385.0905.09491.1047.15865.0488.24794.1778.47341.3673.64235.1896.16894.4294.2722.6834.29416.0661.00576.1276.0362.1719.08516.0443.04896.0681.11278.0667.17852-.0042.2524.0745.49931.2243.7035.1498.20418.3626.35457.6062.4285.0631.01905.1166.06102.1498.11751.0331.05648.0436.12331.0291.18708-.0547.24571-.0285.50232.0747.73221.1032.2299.278.42099.4988.54526.0572.03259.1001.08505.1205.14721.0203.06215.0166.12958-.0103.18921-.1041.22868-.1317.4843-.0789.72963.0528.24533.1833.46753.3725.63422.0495.04305.0807.10301.0875.1679.0068.06489-.0113.12994-.0508.18215-.1502.20224-.2312.44675-.2312.69784 0 .25109.081.4956.2312.69785.0385.0526.056.1174.0492.182-.0067.0646-.0373.1244-.0859.168-.191.1655-.3229.3877-.3758.6336-.0529.2458-.0241.502.0822.7303.0269.0596.0306.127.0103.1892-.0204.0622-.0633.1146-.1205.1472-.2212.1234-.3959.3148-.4977.5453-.1018.2304-.1252.4874-.0666.7322.0133.0637.0025.13-.0306.1862-.033.0563-.0858.0984-.1483.1184-.2425.0758-.454.2267-.6034.4305-.1495.2037-.2291.4496-.2271.7015.0003.0654-.0239.1287-.068.1774-.0441.0487-.1049.0795-.1706.0862-.2532.023-.492.1266-.6806.2955-.1887.1689-.3169.3938-.3655.6411-.0123.0647-.0491.1223-.1028.1612-.0537.0388-.1203.056-.1863.0479-.2521-.027-.5063.0263-.7258.1522-.2195.1259-.3927.3178-.4946.5479-.0265.06-.0744.1081-.1346.135-.0602.0268-.1284.0306-.1912.0105-.2406-.079-.5004-.0797-.7415-.002-.241.0777-.4506.2297-.5983.4339-.0381.0535-.0952.0908-.1599.1043-.0647.0135-.1321.0022-.1888-.0316-.2183-.1298-.4733-.1858-.7265-.1596-.2532.0263-.491.1333-.6775.3051-.049.0441-.1128.0685-.1789.0685-.0662 0-.13-.0244-.179-.0685-.2173-.199-.5024-.3094-.7983-.3092-.2131-.0002-.4222.0563-.6057.1637-.0569.0327-.124.0434-.1884.03-.0644-.0134-.1215-.05-.1603-.1027-.1456-.2065-.3552-.3603-.5969-.4382-.2417-.0779-.5025-.0757-.7428.0063-.0629.0201-.131.0163-.1912-.0105-.0602-.0269-.1082-.075-.1346-.135-.1013-.2305-.2745-.4229-.4941-.5488-.2196-.126-.47415-.179-.72637-.1513-.06598.0081-.13259-.0091-.18628-.0479-.0537-.0389-.09044-.0965-.10277-.1612-.04883-.248-.17776-.4734-.3673-.6424-.18955-.1689-.42942-.2722-.68341-.2942v-.0181zM13.188 28.3997l-2.2941-2.2003c-.0689-.0658-.1567-.1086-.2513-.1224-.0946-.0139-.1912.0019-.2763.0451l-2.50522 1.2775 1.6747-10.3016h.1193c.0559-.0066.11243.0049.1612.0328.04877.0278.08718.0705.1095.1217.11872.2691.33472.4845.60552.6039.2708.1195.5769.1343.8581.0417.0535-.0181.1114-.0187.1652-.0014.0537.0172.1004.0512.1331.0969.1722.2384.4281.4045.7174.4659.2894.0614.5915.0136.8471-.1341.0485-.0288.1051-.0413.1614-.0355.0562.0057.1091.0293.1506.0674.2005.1828.4588.291.7308.3059.2721.015.5409-.0643.7604-.2241l-1.8674 9.9606zm6.6713-2.2139c-.0912-.031-.1899-.0328-.2821-.005-.0923.0277-.1734.0835-.2318.1595l-1.7022 2.1958-2.0601-7.4421c-.0141-.0471-.0358-.0916-.0643-.1318l.4589-2.4913c.2051.0188.4116-.0158.5991-.1003.1874-.0845.3494-.216.4699-.3816.0327-.0457.0793-.0797.1331-.0969.0538-.0172.1117-.0167.1652.0014.2812.0938.5877.0794.8587-.0401.2711-.1196.487-.3356.6049-.6054.0223-.0512.0607-.0939.1095-.1218.0488-.0278.1053-.0393.1612-.0328.1647.0192.3316.0035.4898-.0458.1581-.0494.304-.1314.4279-.2406l2.8768 10.3653-3.0145-.9865z" fill="#000"/></svg>
