<?xml version="1.0" encoding="utf-8"?><svg xmlns="http://www.w3.org/2000/svg" xmlns:xlink="http://www.w3.org/1999/xlink">
    <symbol fill="none" viewBox="0 0 40 40" id="auteur" xmlns="http://www.w3.org/2000/svg"><mask id="aa" maskUnits="userSpaceOnUse" x="0" y="0" width="40" height="40"><path fill="#C4C4C4" d="M0 0h40v40H0z"/></mask><g mask="url(#aa)"><path d="M38.745 22.857L9.271 31.672l-8.434-7.46L20.351.49l18.394 22.366z" fill="#fff"/><path d="M21.865 6.149l-.07-.071a2.343 2.343 0 013.314 0l-3.244.07zm0 0l-.07-.071a2.343 2.343 0 000 3.311l5.816 5.802.004.003a2.343 2.343 0 003.315-3.299l-.004-.005-5.816-5.812-3.245.07zM11.34 11.948v-.001a.648.648 0 01.384-.45l8.088-3.042.077-.029-.014-.081a3.638 3.638 0 016.152-3.187l5.813 5.816a3.638 3.638 0 01-2.576 6.206 3.684 3.684 0 01-.615-.054l-.081-.014-.03.077-3.038 8.07a.647.647 0 01-.45.402l-17.147 4.22a.647.647 0 01-.783-.783l4.22-17.15zm9.055-2.239l-.043-.068-.076.029-7.711 2.9-.05.019-.012.051-3.484 14.163-.086.348.254-.253 6.145-6.134.055-.055-.04-.067a2.864 2.864 0 114.494.578 2.857 2.857 0 01-3.482.441l-.067-.04-.055.056-6.138 6.137-.253.254.348-.086 14.167-3.484.051-.012.019-.05 2.919-7.715.029-.075-.068-.044a3.668 3.668 0 01-.6-.484l-5.832-5.809a3.636 3.636 0 01-.484-.6zm-3.8 8.49c-.231.28-.357.632-.357.995l.53 1.04-.071.07a1.569 1.569 0 10-.103-2.105z" fill="#000" stroke="#F5F5F5" stroke-width=".2"/></g></symbol>
    <symbol fill="none" viewBox="0 0 30 30" id="carte" xmlns="http://www.w3.org/2000/svg"><path d="M1 10.667L18.357 2 28 15.765 11.286 28 1 10.667z" fill="#D7E7E8"/><path d="M15 3c-4.966 0-9 4.034-9 9 0 5.849 5.252 11.913 7.52 14.252a2 2 0 001.48.62c.573 0 1.074-.214 1.48-.62C18.748 23.912 24 17.849 24 12c0-4.966-4.035-9-9-9zm.812 22.607a1.11 1.11 0 01-1.6 0c-2.029-2.1-7.257-8.045-7.257-13.607C6.93 7.536 10.535 3.931 15 3.931A8.059 8.059 0 0123.069 12c0 5.562-5.228 11.483-7.257 13.607z" fill="#000"/><path d="M15 7.798a3.83 3.83 0 00-3.82 3.82 3.83 3.83 0 003.82 3.82 3.83 3.83 0 003.82-3.82A3.83 3.83 0 0015 7.798zm0 6.709c-1.6 0-2.889-1.29-2.889-2.889 0-1.6 1.29-2.889 2.889-2.889 1.6 0 2.889 1.29 2.889 2.889 0 1.6-1.29 2.889-2.889 2.889z" fill="#000"/></symbol>
    <symbol fill="none" viewBox="0 0 21 12" id="chevron" xmlns="http://www.w3.org/2000/svg"><rect x="10.211" y="11.21" width="14" height="1.5" rx=".75" transform="rotate(-135 10.211 11.21)" fill="#262626"/><rect x="9.297" y="10.235" width="14" height="1.5" rx=".75" transform="rotate(-45 9.297 10.235)" fill="#262626"/></symbol>
    <symbol fill="none" viewBox="0 0 21 12" id="contact" xmlns="http://www.w3.org/2000/svg"><path d="M12.952 5L36 14.79 27.619 36l-8.905-6.526H3L12.952 5z" fill="#fff"/><path d="M9.636 10c-.455 0-.884.152-1.184.451-.3.3-.452.72-.452 1.154v12.306c0 .434.151.849.452 1.145.3.296.727.45 1.176.46h1.1v3.745a.548.548 0 00.331.488.567.567 0 00.589-.104l4.474-4.13h10.969c.456 0 .884-.16 1.185-.46.3-.298.451-.71.451-1.144V11.605c0-.434-.142-.854-.443-1.154-.3-.299-.737-.451-1.193-.451H9.636zm0 1.07h17.455c.224 0 .334.06.409.134.075.074.136.19.136.401v12.306c0 .21-.061.326-.136.4-.075.076-.185.135-.41.135H15.91a.564.564 0 00-.376.142l-3.716 3.427v-3.034c0-.28-.26-.535-.545-.535H9.636c-.222-.008-.343-.07-.417-.143-.075-.073-.128-.181-.128-.392V11.605c0-.21.061-.327.136-.401.075-.075.185-.134.41-.134zm21.759 2.934a.558.558 0 00-.486.535v12.582c0 .211-.053.311-.128.384-.074.073-.197.142-.434.15h-1.893a.561.561 0 00-.545.536v3.034l-3.716-3.427a.557.557 0 00-.375-.142h-7.09c-.289-.004-.554.252-.554.535 0 .283.265.539.553.535h6.878l4.474 4.13a.567.567 0 00.59.103.548.548 0 00.331-.488v-3.745h1.381c.446-.016.867-.165 1.167-.46.3-.295.452-.712.452-1.145V14.539c.002-.3-.3-.568-.605-.535z" fill="#000"/></symbol>
    <symbol fill="none" viewBox="0 0 30 30" id="courriel_icone" xmlns="http://www.w3.org/2000/svg"><path d="M4.706 24L0 13.105 30 1l-4.706 20.579L4.706 24z" fill="#D7E7E8"/><path d="M18.466 17.858c-.91 1.156-2.359 1.904-3.99 1.904-2.755 0-4.989-2.132-4.989-4.762 0-2.63 2.234-4.762 4.989-4.762 1.631 0 3.08.748 3.99 1.904v-1.904h.998v7.62c0 1.049.99 1.65 2.147 1.35 1.394-.361 2.379-1.834 2.343-4.208 0-4.997-4.244-9.048-9.478-9.048-5.235 0-9.478 4.051-9.478 9.048s4.243 9.048 9.478 9.048a9.734 9.734 0 005.63-1.769l.593.766A10.763 10.763 0 0114.476 25C8.69 25 4 20.523 4 15S8.69 5 14.476 5C20.26 5 24.95 9.477 24.95 14.993c.043 2.775-1.21 4.65-3.079 5.134-1.753.455-3.405-.548-3.406-2.27zm-3.99.952c2.204 0 3.99-1.706 3.99-3.81s-1.786-3.81-3.99-3.81-3.991 1.706-3.991 3.81 1.787 3.81 3.99 3.81z" fill="#000"/></symbol>
    <symbol fill="none" viewBox="0 0 30 30" id="crochet" xmlns="http://www.w3.org/2000/svg"><path d="M15 0C6.71591 0 0 6.71591 0 15C0 23.2841 6.71591 30 15 30C23.2841 30 30 23.2841 30 15C30 6.71591 23.2841 0 15 0ZM15 28.9773C7.29545 28.9773 1.02273 22.7045 1.02273 15C1.02273 7.29545 7.29545 1.02273 15 1.02273C22.7045 1.02273 28.9773 7.29545 28.9773 15C28.9773 22.7045 22.7045 28.9773 15 28.9773Z" fill="black"/><path d="M22.2956 10.3637L12.4433 20.25L7.70465 15.4773C7.5001 15.2728 7.19328 15.2728 6.98874 15.4773C6.78419 15.6819 6.78419 15.9887 6.98874 16.1932L12.1024 21.3069C12.2046 21.4091 12.341 21.4432 12.4774 21.4432C12.6137 21.4432 12.7501 21.4091 12.8524 21.3069L23.0796 11.0796C23.2842 10.875 23.2842 10.5682 23.0796 10.3637C22.841 10.1932 22.5001 10.1932 22.2956 10.3637Z" fill="black"/></symbol>
    <symbol fill="none" viewBox="0 0 25 25" id="deconnexion" xmlns="http://www.w3.org/2000/svg"><path d="M19 3.5L1 10l15 12.5 4-8.5-1-10.5z" fill="#fff"/><path d="M18.589 17.589A7.88 7.88 0 0113 19.9a7.88 7.88 0 01-5.589-2.31c-3.081-3.083-3.081-8.097 0-11.179 3.082-3.081 8.096-3.082 11.178 0a.513.513 0 11-.726.726l-.07.071.07-.07a6.885 6.885 0 00-9.726 0 6.885 6.885 0 000 9.725 6.885 6.885 0 009.726 0 .513.513 0 11.726.726z" fill="#262626" stroke="#fff" stroke-width=".2"/><path d="M20.476 9.024c.2-.2.525-.2.726 0l2.61 2.61a.513.513 0 01.004.73L21.2 14.975a.512.512 0 01-.726 0 .512.512 0 010-.726l1.565-1.566.171-.17h-9.211a.513.513 0 110-1.028h9.211l-.17-.17-1.566-1.566a.512.512 0 010-.726z" fill="#262626" stroke="#fff" stroke-width=".2"/></symbol>
    <symbol fill="none" viewBox="0 0 40 40" id="decouvrir" xmlns="http://www.w3.org/2000/svg"><path d="M33.713 32.147l-25.83.316-3.53-18.148L32.273 7l1.44 25.147z" fill="#fff"/><path d="M19.766 32c-6.617 0-12-5.383-12-12s5.383-12 12-12 12 5.383 12 12-5.383 12-12 12zm0-23c-6.065 0-11 4.935-11 11s4.935 11 11 11 11-4.935 11-11-4.935-11-11-11z" fill="#000"/><path d="M26.214 25.776l-.67.671-8-4-.225-.224-4-8 .671-.671 8 4 .224.224 4 8zm-8.074-4.149l6.51 3.254-3.256-6.509-6.509-3.255 3.255 6.51z" fill="#000"/><path d="M19.766 21a1 1 0 100-2 1 1 0 000 2z" fill="#000"/></symbol>
    <symbol fill="none" viewBox="0 0 32 32" id="etoile--pleine" xmlns="http://www.w3.org/2000/svg"><path d="M11.823 2.356L1.792 21.036l10.917 7.39 15.777-3.65-1.378-12.075L11.823 2.356z" fill="#FCEFA6"/><path d="M8.47 29.684a.963.963 0 01-.575-.18c-.332-.242-.473-.674-.384-1.187l1.327-7.738c.074-.43-.144-1.1-.457-1.405L2.76 13.69c-.373-.363-.514-.793-.387-1.185.127-.393.495-.658 1.01-.732l7.769-1.13c.432-.062 1.001-.476 1.195-.868l3.474-7.038c.23-.467.597-.737 1.008-.737.41 0 .778.267 1.008.737l3.475 7.04c.193.392.762.806 1.194.869l7.77 1.129c.514.075.882.34 1.009.732.127.392-.014.823-.386 1.186l-5.622 5.48c-.313.305-.53.975-.457 1.405l1.328 7.74c.087.512-.052.944-.384 1.186-.332.241-.787.24-1.247 0l-6.952-3.655c-.386-.203-1.09-.203-1.476 0l-6.947 3.654a1.457 1.457 0 01-.673.182zM3.56 12.893l5.612 5.47c.583.566.919 1.603.781 2.407l-1.325 7.724 6.936-3.647c.721-.379 1.809-.379 2.53 0l6.936 3.647-1.325-7.724c-.138-.804.198-1.838.782-2.407l5.611-5.47-7.754-1.129c-.806-.117-1.687-.756-2.047-1.487L16.83 3.25l-3.468 7.026c-.36.73-1.24 1.37-2.047 1.487l-7.754 1.13z" fill="#000"/></symbol>
    <symbol fill="none" viewBox="0 0 32 32" id="etoile--vide" xmlns="http://www.w3.org/2000/svg"><path d="M7.47 29.684a.963.963 0 01-.575-.18c-.332-.242-.473-.674-.384-1.187l1.327-7.738c.074-.43-.144-1.1-.457-1.405L1.76 13.69c-.373-.363-.514-.793-.387-1.185.127-.393.495-.658 1.01-.732l7.769-1.13c.432-.062 1.001-.476 1.195-.868l3.474-7.038c.23-.467.597-.737 1.008-.737.41 0 .778.267 1.008.737l3.475 7.04c.193.392.762.806 1.194.869l7.77 1.129c.514.075.882.34 1.009.732.127.392-.014.823-.386 1.186l-5.622 5.48c-.313.305-.53.975-.457 1.405l1.328 7.74c.087.512-.052.944-.384 1.186-.332.241-.787.24-1.247 0l-6.952-3.655c-.386-.203-1.09-.203-1.476 0l-6.947 3.654a1.457 1.457 0 01-.673.182zM2.56 12.893l5.612 5.47c.583.566.919 1.603.781 2.407l-1.325 7.724 6.936-3.647c.721-.379 1.809-.379 2.53 0l6.936 3.647-1.325-7.724c-.138-.804.198-1.838.782-2.407l5.611-5.47-7.754-1.129c-.806-.117-1.687-.756-2.047-1.487L15.83 3.25l-3.468 7.026c-.36.73-1.24 1.37-2.047 1.487l-7.754 1.13z" fill="#000"/></symbol>
    <symbol fill="none" viewBox="0 0 32 32" id="erreur" xmlns="http://www.w3.org/2000/svg"><path d="M24.1651 4.75L38.0215 28.75C38.9837 30.4167 37.7809 32.5 35.8564 32.5H8.1436C6.21909 32.5 5.01628 30.4167 5.97853 28.75L19.8349 4.75C20.7972 3.08333 23.2028 3.08333 24.1651 4.75Z" stroke="black"/><path d="M22.3281 24.2539H21.0273L20.957 11.9375H22.4102L22.3281 24.2539ZM20.793 28.1797C20.793 27.9141 20.8789 27.6914 21.0508 27.5117C21.2227 27.3242 21.457 27.2305 21.7539 27.2305C22.0508 27.2305 22.2852 27.3242 22.457 27.5117C22.6367 27.6914 22.7266 27.9141 22.7266 28.1797C22.7266 28.4375 22.6367 28.6562 22.457 28.8359C22.2852 29.0078 22.0508 29.0938 21.7539 29.0938C21.457 29.0938 21.2227 29.0078 21.0508 28.8359C20.8789 28.6562 20.793 28.4375 20.793 28.1797Z" fill="black"/></symbol>
    <symbol fill="none" viewBox="0 0 30 30" id="facebook" xmlns="http://www.w3.org/2000/svg"><mask id="ia" maskUnits="userSpaceOnUse" x="0" y="0" width="30" height="30"><path d="M0 0h30v30H0V0z" fill="#fff"/></mask><g mask="url(#ia)"><path fill-rule="evenodd" clip-rule="evenodd" d="M30 15.092C30 6.757 23.284 0 15 0 6.716 0 0 6.757 0 15.092 0 22.624 5.485 28.868 12.656 30V19.454H8.848v-4.362h3.808v-3.325c0-3.783 2.24-5.872 5.666-5.872 1.641 0 3.358.295 3.358.295v3.714h-1.892c-1.863 0-2.444 1.163-2.444 2.357v2.83h4.16l-.665 4.363h-3.495V30C24.514 28.868 30 22.624 30 15.092z" fill="#fff"/></g></symbol>
    <symbol fill="none" viewBox="0 0 14 14" id="info" xmlns="http://www.w3.org/2000/svg"><circle cx="7" cy="7" r="6.5" stroke="black"/><path d="M7.07278 2.98199C7.4233 2.98199 7.69293 3.05614 7.88167 3.20444C8.07715 3.35274 8.17489 3.56844 8.17489 3.85155C8.17489 4.13466 8.07715 4.35037 7.88167 4.49866C7.69293 4.64696 7.4233 4.72111 7.07278 4.72111C6.71552 4.72111 6.44252 4.64696 6.25378 4.49866C6.06504 4.35037 5.97067 4.13466 5.97067 3.85155C5.97067 3.56844 6.06504 3.35274 6.25378 3.20444C6.44252 3.05614 6.71552 2.98199 7.07278 2.98199ZM8.04345 9.94855C8.04345 10.2249 8.08389 10.417 8.16478 10.5249C8.25241 10.626 8.40071 10.6765 8.60967 10.6765V10.8889C7.88167 10.8619 7.40308 10.8484 7.17389 10.8484C6.94471 10.8484 6.43915 10.8619 5.65723 10.8889V10.6765C5.86619 10.6765 6.01112 10.626 6.092 10.5249C6.17963 10.417 6.22345 10.2249 6.22345 9.94855V6.74333C6.22345 6.43325 6.17963 6.20744 6.092 6.06588C6.01112 5.92433 5.86619 5.85355 5.65723 5.85355V5.64122C5.87293 5.66144 6.08189 5.67155 6.28412 5.67155C6.98515 5.67155 7.5716 5.62437 8.04345 5.52999V9.94855Z" fill="black"/></symbol>
    <symbol fill="none" viewBox="0 0 31 30" id="instagram" xmlns="http://www.w3.org/2000/svg"><mask id="ja" maskUnits="userSpaceOnUse" x="0" y="0" width="31" height="30"><path d="M.493 0h30.004v30H.493V0z" fill="#fff"/></mask><g mask="url(#ja)"><path fill-rule="evenodd" clip-rule="evenodd" d="M15.495 0C11.421 0 10.91.017 9.31.09 7.713.163 6.622.417 5.668.788a7.353 7.353 0 00-2.657 1.73 7.353 7.353 0 00-1.73 2.657C.91 6.129.656 7.22.583 8.817c-.073 1.6-.09 2.11-.09 6.185 0 4.074.017 4.585.09 6.185.073 1.597.327 2.687.698 3.641a7.354 7.354 0 001.73 2.658 7.354 7.354 0 002.657 1.73c.954.37 2.045.624 3.642.697 1.6.073 2.11.09 6.185.09 4.074 0 4.585-.017 6.185-.09 1.597-.073 2.687-.326 3.642-.697a7.355 7.355 0 002.657-1.73 7.355 7.355 0 001.73-2.658c.371-.954.625-2.044.697-3.641.073-1.6.09-2.111.09-6.185 0-4.075-.017-4.585-.09-6.185-.072-1.597-.326-2.688-.697-3.642a7.354 7.354 0 00-1.73-2.657 7.354 7.354 0 00-2.657-1.73C24.368.417 23.277.163 21.68.09 20.08.017 19.57 0 15.495 0zm0 2.703c4.006 0 4.48.015 6.062.088 1.463.066 2.257.31 2.786.516.7.272 1.2.597 1.724 1.122.525.525.85 1.025 1.123 1.725.205.529.45 1.323.516 2.786.072 1.582.088 2.056.088 6.062 0 4.005-.016 4.48-.088 6.062-.067 1.463-.31 2.257-.516 2.785-.272.7-.598 1.2-1.123 1.725a4.647 4.647 0 01-1.724 1.122c-.529.206-1.323.45-2.786.517-1.582.072-2.056.088-6.062.088s-4.48-.016-6.062-.088c-1.463-.067-2.257-.311-2.786-.517-.7-.272-1.2-.597-1.725-1.122A4.647 4.647 0 013.8 23.85c-.205-.528-.45-1.323-.516-2.785-.073-1.582-.088-2.057-.088-6.062 0-4.006.015-4.48.088-6.062.066-1.463.31-2.257.516-2.786.272-.7.597-1.2 1.122-1.725a4.647 4.647 0 011.725-1.122c.529-.205 1.323-.45 2.786-.517 1.582-.072 2.056-.087 6.062-.087z" fill="#fff"/></g><path fill-rule="evenodd" clip-rule="evenodd" d="M15.495 20.003a5 5 0 110-10.001 5 5 0 010 10zm0-12.704a7.704 7.704 0 100 15.407 7.704 7.704 0 000-15.407zm9.808-.305a1.8 1.8 0 11-3.6 0 1.8 1.8 0 013.6 0z" fill="#fff"/></symbol>
    <symbol fill="none" viewBox="0 0 25 25" id="langue" xmlns="http://www.w3.org/2000/svg"><path d="M7.5 1l16 7L17 21l-14.5.5L7.5 1z" fill="#fff"/><path d="M13 4c-4.409 0-8 3.591-8 8 0 1.422.373 2.791 1.084 4.018l-1.013 3.538a.381.381 0 00.089.355l.018.018c.07.071.16.107.249.107.035 0 .07 0 .089-.018l3.573-1.014c1.209.64 2.56.996 3.911.996 4.409 0 8-3.591 8-8s-3.591-8-8-8zm0 15.289a7.384 7.384 0 01-3.662-.978.344.344 0 00-.178-.053c-.036 0-.071 0-.089.018l-3.147.888.872-3.093a.327.327 0 00-.036-.284A7.45 7.45 0 015.711 12c0-4.018 3.271-7.289 7.289-7.289S20.289 7.982 20.289 12 17.018 19.289 13 19.289z" fill="#262626"/><path d="M19.044 11.645h-1.617a9.251 9.251 0 00-.694-3.378h.89a.357.357 0 000-.711h-1.21a10.433 10.433 0 00-1.173-1.814c-.124-.16-.338-.178-.498-.053-.16.124-.178.338-.053.498.355.444.675.906.924 1.386h-2.257v-1.6A.357.357 0 0013 5.618a.357.357 0 00-.356.355v1.6h-2.168c.444-.853.835-1.369.853-1.386a.361.361 0 00-.053-.498.36.36 0 00-.498.053c-.018.018-.551.694-1.085 1.814H8.378a.357.357 0 00-.356.355c0 .196.16.356.356.356h.995c-.373.942-.71 2.098-.782 3.378H6.956A.357.357 0 006.6 12c0 .196.16.356.356.356h1.617a9.253 9.253 0 00.694 3.377h-.89a.357.357 0 00-.355.356c0 .196.16.356.356.356h1.209c.302.604.693 1.208 1.173 1.813a.371.371 0 00.284.142c.072 0 .16-.018.214-.071.16-.125.178-.338.053-.498a8.55 8.55 0 01-.924-1.387h2.257v1.6a.357.357 0 00.711 0v-1.6h2.17c-.445.854-.836 1.37-.854 1.387a.361.361 0 00.053.498.342.342 0 00.214.071.371.371 0 00.284-.142c.018-.018.551-.694 1.085-1.814h1.315c.196 0 .356-.16.356-.355a.357.357 0 00-.356-.356h-.995c.373-.942.71-2.097.782-3.377h1.635a.357.357 0 000-.711zM15.97 8.267a8.289 8.289 0 01.764 3.378h-3.378V8.267h2.614zM9.587 9.849c.16-.587.355-1.12.55-1.582h2.507v3.378h-3.36a9.248 9.248 0 01.303-1.796zm.444 5.884a8.287 8.287 0 01-.764-3.377h3.377v3.377h-2.613zm6.382-1.582c-.16.587-.355 1.12-.55 1.582h-2.507v-3.377h3.36a9.243 9.243 0 01-.303 1.795z" fill="#262626"/></symbol>
    <symbol fill="none" viewBox="0 0 40 40" id="livre" xmlns="http://www.w3.org/2000/svg"><path d="M7.497 7.155l26.306 5.532-.766 17.478-30.108.43 4.568-23.44z" fill="#fff"/><path d="M7.177 26.48l13.211 5.5a.26.26 0 00.2 0l13.232-5.5a.29.29 0 00.18-.267V9.292a.29.29 0 00-.401-.267l-13.1 5.453L7.4 9.022a.29.29 0 00-.4.267v16.92a.29.29 0 00.177.271zm26.242-.465l-12.63 5.259V14.986l12.63-5.258v16.287zM7.579 9.728l12.629 5.258v16.288l-12.63-5.259V9.728z" fill="#000" stroke="#000" stroke-width=".2"/><path d="M30.602 8.023l-10.145 4.356L10.4 8.062a.281.281 0 00-.22 0 .294.294 0 00-.158.16.307.307 0 000 .228c.03.074.085.132.156.162l10.169 4.365a.283.283 0 00.222 0l10.253-4.404a.294.294 0 00.156-.161.307.307 0 000-.228.294.294 0 00-.157-.161.281.281 0 00-.222 0h.003z" fill="#000" stroke="#000" stroke-width=".2"/></symbol>
    <symbol fill="none" viewBox="0 0 25 24" id="loupe" xmlns="http://www.w3.org/2000/svg"><path opacity=".54" fill-rule="evenodd" clip-rule="evenodd" d="M16.108 14h-.794l-.276-.274A6.47 6.47 0 0016.606 9.5a6.5 6.5 0 10-6.5 6.5 6.47 6.47 0 004.225-1.566l.276.274v.792l4.998 4.991L21.096 19l-4.988-5zm-6.002 0a4.5 4.5 0 110-9 4.5 4.5 0 010 9z" fill="#000"/></symbol>
    <symbol fill="none" viewBox="0 0 40 40" id="meilleur" xmlns="http://www.w3.org/2000/svg"><path d="M36.88 14.108L26.23 33.905 9 28 7.5 4l29.38 10.108z" fill="#fff"/><path d="M32.526 9.896h-3.5v-2.43A.47.47 0 0028.552 7H11.447a.47.47 0 00-.473.467v2.43h-3.5a.47.47 0 00-.474.466v5.9c0 .867.157 1.7.467 2.477 1.06 2.669 3.053 4.388 5.245 4.558 1.486 2.456 3.588 4.124 5.891 4.593l.005.001c.301.062.609.102.918.123v2.66a8.301 8.301 0 00-.897.09c-2.606.413-4.428 1.954-4.44 3.752l-.001.016a.467.467 0 00.474.467h10.676a.475.475 0 00.474-.467l-.002-.016c-.01-1.798-1.832-3.34-4.437-3.752a8.297 8.297 0 00-.899-.09v-2.66c.309-.021.617-.06.918-.123.002 0 .003 0 .005-.002 2.303-.469 4.404-2.136 5.891-4.593 2.192-.17 4.184-1.889 5.245-4.557A6.65 6.65 0 0033 16.264v-5.901a.471.471 0 00-.474-.467zM18.047 7.933v7.64l-1.143-.99a.477.477 0 00-.626 0l-1.142.99v-7.64h2.911zM8.349 18.4a5.735 5.735 0 01-.401-2.135V10.83h3.026v6.681c0 1.288.233 2.529.695 3.688.146.368.307.72.476 1.063-1.572-.402-2.98-1.808-3.796-3.862zm16.448 15.667h-9.595c.312-1.123 1.72-2.086 3.58-2.38a7.828 7.828 0 012.438 0c1.858.294 3.266 1.257 3.578 2.38zM21.2 26.978h-.002a5.977 5.977 0 01-2.397 0H18.8c-2.598-.527-4.934-2.815-6.248-6.12a9.023 9.023 0 01-.63-3.348V7.933h2.267v8.672c0 .184.11.35.279.426a.48.48 0 00.508-.075l1.616-1.401 1.616 1.4a.477.477 0 00.508.076.467.467 0 00.279-.425V7.932h9.083v9.577a9.02 9.02 0 01-.63 3.348c-1.313 3.305-3.649 5.593-6.247 6.12zm10.852-10.714c0 .749-.135 1.467-.402 2.135-.816 2.054-2.223 3.46-3.795 3.862.169-.344.33-.696.476-1.063.461-1.16.695-2.4.695-3.688v-6.68h3.026v5.434z" fill="#000"/></symbol>
    <symbol fill="none" viewBox="0 0 40 40" id="menu" xmlns="http://www.w3.org/2000/svg"><rect class="ligne ligne__menu ligne__menu--1" x="8" y="27.84" width="24" height="1.42" rx="0.71" fill="#262626"/><rect class="ligne ligne__menu ligne__menu--2" x="8" y="19.42" width="24" height="1.42" rx="0.71" fill="#262626"/><rect class="ligne ligne__menu ligne__menu--3" x="8" y="11" width="24" height="1.42" rx="0.71" fill="#262626"/></symbol>
    <symbol fill="none" viewBox="0 0 40 40" id="menuX" xmlns="http://www.w3.org/2000/svg"><rect class="ligne ligne__menuX ligne__menuX--1" x="10.1213" y="9" width="30" height="1.5" rx="0.75" transform="rotate(45 10.1213 9)" fill="#262626"/><rect class="ligne ligne__menuX ligne__menuX--2" x="9" y="30.2132" width="30" height="1.5" rx="0.75" transform="rotate(-45 9 30.2132)" fill="#262626"/></symbol>
    <symbol fill="none" viewBox="0 0 40 40" id="panier" xmlns="http://www.w3.org/2000/svg"><path d="M6.316 7.805a.316.316 0 100 .632h3.533l3.396 16.02c-.058.197.13.424.335.404h15.793a.328.328 0 00.32-.316.328.328 0 00-.32-.316H13.837l-.671-3.158h17.47a.325.325 0 00.306-.247l2.211-9.475a.33.33 0 00-.306-.385H11.024l-.612-2.912a.326.326 0 00-.306-.247h-3.79zm4.846 3.79h21.29L30.39 20.44H13.028l-1.866-8.844zm5.577 15.161a2.532 2.532 0 00-2.527 2.527 2.532 2.532 0 002.527 2.527 2.532 2.532 0 002.527-2.527 2.532 2.532 0 00-2.527-2.527zm9.475 0a2.532 2.532 0 00-2.526 2.527 2.532 2.532 0 002.526 2.527 2.532 2.532 0 002.527-2.527 2.532 2.532 0 00-2.527-2.527zm-9.475.632c1.05 0 1.895.844 1.895 1.895s-.845 1.895-1.895 1.895-1.895-.845-1.895-1.895.845-1.895 1.895-1.895zm9.475 0c1.05 0 1.895.844 1.895 1.895s-.844 1.895-1.895 1.895c-1.05 0-1.895-.845-1.895-1.895s.845-1.895 1.895-1.895z" fill="#262626" stroke="#262626" stroke-width=".35"/></symbol>
    <symbol fill="none" viewBox="0 0 40 40" id="panier--couleur" xmlns="http://www.w3.org/2000/svg"><path opacity=".65" d="M6.614 11.323L31.067 7l-2.854 24.066-18.634-3.83.855-3.507-3.819-12.406z" fill="#FF846E"/><path d="M6.316 7.805a.316.316 0 100 .632h3.533l3.396 16.02c-.058.197.13.424.335.404h15.793a.328.328 0 00.32-.316.328.328 0 00-.32-.316H13.837l-.671-3.158h17.47a.325.325 0 00.306-.247l2.211-9.475a.33.33 0 00-.306-.385H11.024l-.612-2.912a.326.326 0 00-.306-.247h-3.79zm4.846 3.79h21.29L30.39 20.44H13.028l-1.866-8.844zm5.577 15.161a2.532 2.532 0 00-2.527 2.527 2.532 2.532 0 002.527 2.527 2.532 2.532 0 002.527-2.527 2.532 2.532 0 00-2.527-2.527zm9.475 0a2.532 2.532 0 00-2.526 2.527 2.532 2.532 0 002.526 2.527 2.532 2.532 0 002.527-2.527 2.532 2.532 0 00-2.527-2.527zm-9.475.632a1.89 1.89 0 011.895 1.895 1.89 1.89 0 01-1.895 1.895 1.89 1.89 0 01-1.895-1.895 1.89 1.89 0 011.895-1.895zm9.475 0a1.89 1.89 0 011.895 1.895 1.89 1.89 0 01-1.895 1.895 1.89 1.89 0 01-1.895-1.895 1.89 1.89 0 011.895-1.895z" fill="#262626" stroke="#262626" stroke-width=".35"/></symbol>
    <symbol fill="none" viewBox="0 0 40 40" id="panier--couleur-plus" xmlns="http://www.w3.org/2000/svg"><path opacity=".65" d="M4.379 11.091l29.027-5.132-3.388 28.568-22.12-4.545 1.014-4.164L4.38 11.091z" fill="#FF846E"/><path d="M4.024 6.915a.375.375 0 100 .75H8.22l4.03 19.016c-.068.235.155.504.4.48h18.746a.39.39 0 00.38-.374.39.39 0 00-.38-.375H12.953l-.797-3.75h20.74c.167 0 .326-.129.362-.293l2.625-11.248a.392.392 0 00-.363-.457H9.613l-.726-3.457a.387.387 0 00-.363-.292h-4.5zm5.754 4.499H35.05l-2.449 10.498h-20.61L9.778 11.414zm6.62 17.997c-1.653 0-3 1.347-3 3s1.347 3 3 3c1.652 0 3-1.348 3-3 0-1.653-1.348-3-3-3zm11.248 0c-1.652 0-3 1.347-3 3s1.348 3 3 3 3-1.348 3-3c0-1.653-1.348-3-3-3zm-11.248.75a2.244 2.244 0 012.25 2.25 2.244 2.244 0 01-2.25 2.25c-1.247 0-2.25-1.003-2.25-2.25s1.003-2.25 2.25-2.25zm11.248 0a2.244 2.244 0 012.25 2.25 2.244 2.244 0 01-2.25 2.25c-1.247 0-2.25-1.003-2.25-2.25s1.003-2.25 2.25-2.25z" fill="#000"/><circle cx="26.246" cy="9.476" r="6.101" fill="#fff" stroke="#000" stroke-width=".75"/><path d="M22.882 9.863a.326.326 0 01-.336-.336c0-.085.032-.155.096-.208a.326.326 0 01.24-.096h6.624a.326.326 0 01.336.336c0 .075-.032.144-.096.208s-.144.096-.24.096h-6.624zm3.312 3.568a.326.326 0 01-.336-.336v-6.96c0-.107.032-.192.096-.256s.144-.096.24-.096c.106 0 .186.032.24.096a.326.326 0 01.096.24v6.96c0 .106-.032.192-.096.256s-.144.096-.24.096z" fill="#000"/></symbol>
    <symbol fill="none" viewBox="0 0 40 40" id="panier--plus" xmlns="http://www.w3.org/2000/svg"><path d="M4.024 6.915a.375.375 0 100 .75H8.22l4.03 19.016c-.068.235.155.504.4.48h18.746a.39.39 0 00.38-.374.39.39 0 00-.38-.375H12.953l-.797-3.75h20.74c.167 0 .326-.129.362-.293l2.625-11.248a.392.392 0 00-.363-.457H9.613l-.726-3.457a.387.387 0 00-.363-.292h-4.5zm5.754 4.499H35.05l-2.449 10.498h-20.61L9.778 11.414zm6.62 17.997c-1.653 0-3 1.347-3 3s1.347 3 3 3c1.652 0 3-1.348 3-3 0-1.653-1.348-3-3-3zm11.248 0c-1.652 0-3 1.347-3 3s1.348 3 3 3 3-1.348 3-3c0-1.653-1.348-3-3-3zm-11.248.75a2.244 2.244 0 012.25 2.25 2.244 2.244 0 01-2.25 2.25c-1.247 0-2.25-1.003-2.25-2.25s1.003-2.25 2.25-2.25zm11.248 0a2.244 2.244 0 012.25 2.25 2.244 2.244 0 01-2.25 2.25c-1.247 0-2.25-1.003-2.25-2.25s1.003-2.25 2.25-2.25z" fill="#000"/><circle cx="26.246" cy="9.476" r="6.101" fill="#fff" stroke="#000" stroke-width=".75"/><path d="M22.882 9.863a.326.326 0 01-.336-.336c0-.085.032-.155.096-.208a.326.326 0 01.24-.096h6.624a.326.326 0 01.336.336c0 .075-.032.144-.096.208s-.144.096-.24.096h-6.624zm3.312 3.568a.326.326 0 01-.336-.336v-6.96c0-.107.032-.192.096-.256s.144-.096.24-.096c.106 0 .186.032.24.096a.326.326 0 01.096.24v6.96c0 .106-.032.192-.096.256s-.144.096-.24.096z" fill="#000"/></symbol>
    <symbol fill="none" viewBox="0 0 24 24" id="plus" xmlns="http://www.w3.org/2000/svg"><path fill-rule="evenodd" clip-rule="evenodd" d="M12 4a1 1 0 011 1v14a1 1 0 11-2 0V5a1 1 0 011-1z" fill="#000"/><path fill-rule="evenodd" clip-rule="evenodd" d="M4 12a1 1 0 011-1h14a1 1 0 110 2H5a1 1 0 01-1-1z" fill="#FF846E"/></symbol>
    <symbol fill="none" viewBox="0 0 30 30" id="prix" xmlns="http://www.w3.org/2000/svg"><path fill="#fff" d="M5 0h19v23H5z"/><path d="M13.9543 15.0339c1.2329.0064 2.4377-.3681 3.4498-1.0723.0473-.0332.0876-.0754.1186-.1241.031-.0488.0522-.1032.0622-.1601.01-.057.0086-.1153-.0039-.1717-.0126-.0564-.0361-.1098-.0693-.1572-.0332-.0473-.0753-.0876-.1241-.1186-.0488-.031-.1032-.0522-.1601-.0622-.0569-.01-.1153-.0086-.1717.0039-.0564.0126-.1098.0361-.1571.0693-.8907.6232-1.9558.9484-3.0426.929-1.0869-.0195-2.1397-.3826-3.0074-1.0374-.86778-.6547-1.5059-1.5674-1.82291-2.6072-.31701-1.03978-.29661-2.15325.05827-3.18073.35487-1.02748 1.02604-1.9162 1.91714-2.53871.8911-.62251 1.9565-.94685 3.0434-.92649 1.0868.02035 2.1393.38434 3.0065 1.03978.8672.65545 1.5046 1.56867 1.8208 2.60871.037.10803.1147.19739.2165.24915s.2197.06186.3289.02816c.1091-.03371.2008-.10858.2557-.20874.0548-.10016.0686-.21774.0382-.32785-.3226-1.06943-.9362-2.02811-1.7722-2.76896s-1.8615-1.2347-2.962-1.42641c-1.1005-.1917-2.2326-.07369-3.2698.34083-1.0373.41453-1.93894 1.10926-2.6042 2.00659-.66525.89734-1.06796 1.96194-1.16312 3.07492-.09517 1.11298.12094 2.23055.6242 3.22775.50326.9973 1.27384 1.835 2.22572 2.4196.9518.5846 2.0474.8931 3.1645.891zM19.2808 10.7579c-.0533-.0224-.1106-.0339-.1685-.0341-.0578-.0001-.1151.0111-.1686.0332-.0535.022-.1021.0544-.143.0953-.041.0409-.0734.0894-.0956.1429-.0955.2274-.2071.4477-.334.6592-.0388.0493-.0667.1064-.0816.1675-.015.061-.0167.1245-.005.1862.0117.0618.0365.1203.0727.1716s.083.0943.1373.126c.0542.0317.1146.0515.1771.0579.0625.0063.1256-.0007.1852-.0208.0595-.0201.114-.0527.1599-.0956.0459-.043.082-.0953.1059-.1534.1486-.2466.2793-.5036.3911-.769.0427-.1062.0422-.2249-.0013-.3308-.0435-.1058-.1266-.1906-.2316-.2361z" fill="#000"/><path d="M20.699 15.9387c.2762-.0474.5265-.1904.7063-.4035.1798-.2131.2775-.4825.2755-.7603.0002-.0555.018-.1096.0509-.1545.033-.0449.0794-.0783.1327-.0956.2797-.0893.5161-.2781.6635-.5299.1475-.2519.1955-.549.1348-.8339-.012-.0544-.006-.1112.0172-.162.0231-.0508.0621-.0928.1113-.1199.2576-.145.4513-.3803.543-.6595.0917-.2792.0747-.5823-.0475-.8498-.024-.0508-.0307-.108-.0191-.1629.0115-.0549.0408-.1047.0833-.1417.2217-.1947.3619-.4644.3933-.7562.0314-.2918-.0483-.5847-.2235-.82132-.0335-.04469-.0516-.09889-.0516-.15457 0-.05568.0181-.10988.0516-.15457.1758-.23608.2562-.52865.2257-.82044-.0306-.29179-.1699-.56177-.3909-.75707-.0419-.03746-.0707-.08716-.0823-.14191-.0115-.05476-.0052-.11173.0181-.16269.1222-.2675.1391-.57059.0475-.84982-.0917-.27923-.2854-.51445-.543-.65951-.0495-.02784-.0887-.07068-.1119-.12223-.0231-.05156-.0289-.1091-.0166-.16417.0607-.28491.0127-.58199-.1348-.83387-.1474-.25188-.3838-.4407-.6636-.52998-.0536-.01661-.1004-.0499-.1335-.09493-.033-.04504-.0506-.09943-.05-.15511.0015-.29284-.1072-.57573-.3049-.79344-.1976-.21771-.4701-.35463-.7641-.38402-.0567-.00491-.1102-.02798-.1524-.06572-.0422-.03774-.0709-.08808-.0816-.1434-.0599-.28705-.2257-.54164-.465-.71399s-.5349-.25008-.8289-.21798c-.0559.00653-.1125-.00498-.1612-.03283-.0488-.02784-.0872-.07054-.1095-.12174-.1188-.26908-.3348-.484472-.6055-.603907-.2708-.119434-.5769-.134288-.8582-.041645-.0534.018139-.1114.018642-.1651.001432-.0538-.01721-.1005-.051206-.1331-.096902-.1723-.238407-.4281-.404552-.7175-.46593-.2894-.061379-.5914-.013575-.8471.13406-.0487.02812-.1052.040191-.1612.034472-.0561-.00572-.1089-.028933-.1508-.066295C14.9609.110261 14.6752 0 14.3787 0c-.2966 0-.5823.110261-.8007.308975-.0415.038012-.0944.061659-.1506.067396-.0563.005737-.1129-.006744-.1614-.035573-.2557-.147635-.5577-.195439-.8471-.13406-.2894.061378-.5452.227523-.7175.46593-.0331.045134-.0798.078695-.1334.095851-.0536.017156-.1113.017022-.1648-.000381-.2812-.093725-.5877-.07939-.8588.040167-.2711.119556-.4869.335615-.60485.605385-.02233.0512-.06073.0939-.1095.12174-.04877.02785-.10531.03936-.16121.03283-.29405-.0321-.58961.04563-.8289.21798-.23928.17235-.40508.42694-.46498.71399-.01076.05532-.03942.10566-.08164.1434-.04223.03774-.09571.06081-.15236.06572-.29489.02833-.56846.16479-.76708.38261-.19862.21782-.30795.5013-.30657.79485.00059.05568-.01695.11007-.05.15511-.03306.04503-.07988.07832-.13353.09493-.27972.08928-.51612.2781-.66357.52998-.14744.25188-.19546.54896-.13478.83387.01201.05442.006.11123-.01714.162-.02314.05077-.06218.0928-.11133.11986-.25766.14506-.45132.38027-.543.6595-.09167.27923-.07474.58233.04747.84983.02329.05095.02961.10793.01807.16268-.01155.05476-.04037.10445-.0823.14191-.22092.1953-.3603.46528-.39085.75707-.03056.29179.04992.58437.22567.82045.03461.0451.05334.10019.05334.15684 0 .05665-.01873.11175-.05334.15684-.17575.23608-.25623.52862-.22567.82042.03055.2918.16993.5618.39085.7571.04254.037.07181.0868.08339.1417.01159.0549.00486.1121-.01916.1629-.12221.2675-.13914.5706-.04747.8498.09168.2792.28534.5145.543.6595.05004.0273.08969.0701.11289.1218.0232.0517.02867.1095.01558.1646-.06045.2855-.01178.5831.13656.8351.14835.2519.38581.4404.66638.5288.05365.0166.10047.0499.13352.0949.03306.045.0506.0994.05001.1551-.00149.2929.1072.5757.30487.7935.19767.2177.47013.3546.76419.384.05665.0049.11013.028.15236.0657.04222.0377.07088.0881.08164.1434.04414.206.14407.3961.28906.5501l-1.8353 11.4063c-.0086.081.00491.1628.03915.2369.03423.0741.08792.1377.15544.1841.06753.0465.14642.0741.22842.08.082.006.16409-.0101.2377-.0464l3.01907-1.5366 2.6657 2.5641c.0862.0823.2015.128.3212.1273.0456.0068.0921.0068.1377 0 .0791-.025.1499-.0707.2048-.1323.0549-.0617.092-.1369.1072-.2178l1.2113-6.4555 1.8582 6.7465c.0223.0817.0672.1557.1296.2135.0624.0578.1399.0972.2237.1138h.0872c.0708.0005.1408-.0152.2045-.046.0637-.0307.1193-.0757.1625-.1313l2.0556-2.6504 3.5191 1.1729c.0787.0258.163.0301.2439.0122.0809-.0178.1554-.057.2157-.1134.0602-.0564.1039-.1279.1264-.207.0225-.079.0229-.1626.0013-.2419L20.699 15.9387zm-12.48463-.9092c-.06611-.0058-.12754-.0362-.17184-.0852-.04431-.049-.06817-.1128-.06675-.1785.00272-.2521-.07659-.4983-.22617-.7022-.14959-.2039-.36149-.3546-.6043-.4298-.0625-.02-.11534-.0621-.14837-.1183-.03304-.0563-.04392-.1226-.03057-.1863.05698-.2458.03186-.5032-.07158-.7336-.10343-.2304-.27958-.4212-.50195-.5439-.05716-.0326-.10008-.085-.12042-.1472-.02035-.0621-.01667-.1296.01031-.1892.10627-.2283.1351-.4845.08216-.7303-.05293-.2459-.18478-.4681-.37581-.6335-.04856-.0437-.07915-.1035-.08592-.1681-.00678-.0646.01075-.1294.04921-.182.15298-.20107.23573-.44603.23573-.69784 0-.2518-.08275-.49676-.23573-.69783-.03846-.05259-.05599-.11739-.04921-.18198.00677-.0646.03736-.12445.08592-.16808.18918-.16669.3197-.38889.37252-.63422.05282-.24532.02518-.50095-.07887-.72963-.02698-.05962-.03066-.12705-.01031-.18921.02034-.06216.06326-.11461.12042-.1472.22081-.12427.39564-.31536.49885-.54526.10321-.2299.12939-.48651.07468-.73222-.01444-.06377-.00402-.13059.02916-.18708.03319-.05648.08669-.09845.14978-.11751.24242-.07585.45391-.22673.60339-.43048.14947-.20375.22907-.44963.22708-.70151-.00035-.06546.02388-.1287.06797-.17744.0441-.04873.10492-.07947.17062-.08624.25317-.02291.492-.12658.68064-.29545.18863-.16887.31688-.39382.36548-.64106.01233-.06473.04907-.12238.10277-.16123.05369-.03885.1203-.05597.18629-.0479.24864.02712.49955-.02419.71705-.14664.2175-.12244.3905-.30976.4942-.53528.0256-.06067.0735-.10945.1339-.13646.0605-.02701.1291-.03023.1919-.00902.243.07669.5044.0739.7457-.00797.2413-.08186.4495-.23846.5941-.44664.0387-.05271.0958-.08931.1602-.10274.0644-.01344.1316-.00275.1885.03.2183.1298.4733.18579.7265.15956.2532-.02624.491-.1333.6775-.30504.0489-.044085.1127-.068511.1789-.068511.0662 0 .13.024426.179.068511.1864.17174.4242.2788.6774.30504.2533.02623.5082-.02976.7266-.15956.0569-.03275.124-.04344.1884-.03.0644.01343.1215.05003.1603.10274.1445.20818.3528.36478.594.44664.2413.08187.5027.08466.7457.00797.0629-.02012.131-.01638.1912.01051.0602.02689.1082.07499.1346.13497.1019.23008.2752.42199.4946.54788.2195.12589.4737.17921.7259.15223.0656-.00597.1311.01198.1843.05047.0533.0385.0905.09491.1047.15865.0488.24794.1778.47341.3673.64235.1896.16894.4294.2722.6834.29416.0661.00576.1276.0362.1719.08516.0443.04896.0681.11278.0667.17852-.0042.2524.0745.49931.2243.7035.1498.20418.3626.35457.6062.4285.0631.01905.1166.06102.1498.11751.0331.05648.0436.12331.0291.18708-.0547.24571-.0285.50232.0747.73221.1032.2299.278.42099.4988.54526.0572.03259.1001.08505.1205.14721.0203.06215.0166.12958-.0103.18921-.1041.22868-.1317.4843-.0789.72963.0528.24533.1833.46753.3725.63422.0495.04305.0807.10301.0875.1679.0068.06489-.0113.12994-.0508.18215-.1502.20224-.2312.44675-.2312.69784 0 .25109.081.4956.2312.69785.0385.0526.056.1174.0492.182-.0067.0646-.0373.1244-.0859.168-.191.1655-.3229.3877-.3758.6336-.0529.2458-.0241.502.0822.7303.0269.0596.0306.127.0103.1892-.0204.0622-.0633.1146-.1205.1472-.2212.1234-.3959.3148-.4977.5453-.1018.2304-.1252.4874-.0666.7322.0133.0637.0025.13-.0306.1862-.033.0563-.0858.0984-.1483.1184-.2425.0758-.454.2267-.6034.4305-.1495.2037-.2291.4496-.2271.7015.0003.0654-.0239.1287-.068.1774-.0441.0487-.1049.0795-.1706.0862-.2532.023-.492.1266-.6806.2955-.1887.1689-.3169.3938-.3655.6411-.0123.0647-.0491.1223-.1028.1612-.0537.0388-.1203.056-.1863.0479-.2521-.027-.5063.0263-.7258.1522-.2195.1259-.3927.3178-.4946.5479-.0265.06-.0744.1081-.1346.135-.0602.0268-.1284.0306-.1912.0105-.2406-.079-.5004-.0797-.7415-.002-.241.0777-.4506.2297-.5983.4339-.0381.0535-.0952.0908-.1599.1043-.0647.0135-.1321.0022-.1888-.0316-.2183-.1298-.4733-.1858-.7265-.1596-.2532.0263-.491.1333-.6775.3051-.049.0441-.1128.0685-.1789.0685-.0662 0-.13-.0244-.179-.0685-.2173-.199-.5024-.3094-.7983-.3092-.2131-.0002-.4222.0563-.6057.1637-.0569.0327-.124.0434-.1884.03-.0644-.0134-.1215-.05-.1603-.1027-.1456-.2065-.3552-.3603-.5969-.4382-.2417-.0779-.5025-.0757-.7428.0063-.0629.0201-.131.0163-.1912-.0105-.0602-.0269-.1082-.075-.1346-.135-.1013-.2305-.2745-.4229-.4941-.5488-.2196-.126-.47415-.179-.72637-.1513-.06598.0081-.13259-.0091-.18628-.0479-.0537-.0389-.09044-.0965-.10277-.1612-.04883-.248-.17776-.4734-.3673-.6424-.18955-.1689-.42942-.2722-.68341-.2942v-.0181zM13.188 28.3997l-2.2941-2.2003c-.0689-.0658-.1567-.1086-.2513-.1224-.0946-.0139-.1912.0019-.2763.0451l-2.50522 1.2775 1.6747-10.3016h.1193c.0559-.0066.11243.0049.1612.0328.04877.0278.08718.0705.1095.1217.11872.2691.33472.4845.60552.6039.2708.1195.5769.1343.8581.0417.0535-.0181.1114-.0187.1652-.0014.0537.0172.1004.0512.1331.0969.1722.2384.4281.4045.7174.4659.2894.0614.5915.0136.8471-.1341.0485-.0288.1051-.0413.1614-.0355.0562.0057.1091.0293.1506.0674.2005.1828.4588.291.7308.3059.2721.015.5409-.0643.7604-.2241l-1.8674 9.9606zm6.6713-2.2139c-.0912-.031-.1899-.0328-.2821-.005-.0923.0277-.1734.0835-.2318.1595l-1.7022 2.1958-2.0601-7.4421c-.0141-.0471-.0358-.0916-.0643-.1318l.4589-2.4913c.2051.0188.4116-.0158.5991-.1003.1874-.0845.3494-.216.4699-.3816.0327-.0457.0793-.0797.1331-.0969.0538-.0172.1117-.0167.1652.0014.2812.0938.5877.0794.8587-.0401.2711-.1196.487-.3356.6049-.6054.0223-.0512.0607-.0939.1095-.1218.0488-.0278.1053-.0393.1612-.0328.1647.0192.3316.0035.4898-.0458.1581-.0494.304-.1314.4279-.2406l2.8768 10.3653-3.0145-.9865z" fill="#000"/></symbol>
    <symbol fill="none" viewBox="0 0 22 25" id="supprimer" xmlns="http://www.w3.org/2000/svg"><path d="M7.34942 3.0203V2.46718C7.34942 1.55073 8.09192 0.8078 9.01065 0.8078H13.4319C14.3494 0.8078 15.0932 1.54434 15.0932 2.46718V3.0203H20.0814C20.9923 3.0203 21.62 3.75684 21.62 4.67968C21.62 5.59612 20.9826 6.33905 20.0814 6.33905H19.5182V21.8265C19.5182 23.0485 18.5299 24.0391 17.3147 24.0391H5.12794C3.91096 24.0391 2.92442 23.0544 2.92442 21.8265V6.33905H2.36121C1.45033 6.33905 0.711914 5.60251 0.711914 4.67968C0.711914 3.76323 1.45997 3.0203 2.36121 3.0203H7.34942ZM4.03067 21.8265C4.03067 22.442 4.52042 22.9328 5.12794 22.9328H17.3147C17.9186 22.9328 18.4119 22.4378 18.4119 21.8265V6.33905H4.03067V21.8265ZM1.81816 4.67968C1.81816 4.99019 2.05994 5.2328 2.36121 5.2328H20.0814C20.3745 5.2328 20.6244 4.98233 20.6244 4.67968C20.6244 4.36917 20.3826 4.12655 20.0814 4.12655H2.36121C2.06812 4.12655 1.81816 4.37703 1.81816 4.67968ZM13.9869 3.0203V2.46718C13.9869 2.15845 13.7416 1.91405 13.4319 1.91405H9.01065C8.70318 1.91405 8.45567 2.16141 8.45567 2.46718V3.0203H13.9869ZM16.1994 20.7203H15.0932V8.55155H16.1994V20.7203ZM11.7744 20.7203H10.6682V8.55155H11.7744V20.7203ZM7.34942 20.7203H6.24317V8.55155H7.34942V20.7203Z" fill="black"/></symbol>
    <symbol fill="none" viewBox="0 0 30 30" id="telephone_icone" xmlns="http://www.w3.org/2000/svg"><path d="M27.5 10.5L7 3.5 3 20l22.5 1 2-10.5z" fill="#D7E7E8"/><path d="M16 24c-1.598 0-2.58-.35-3.002-1.066-.585-.997-.521-1.997.002-2.934l.076-.135a.414.414 0 01.566-.16.416.416 0 01.162.566l-.077.138c-.4.718-.353 1.52-.01 2.105.252.427 1.041.653 2.282.653 5.054 0 9.167-4.114 9.167-9.167s-4.113-9.167-9.167-9.167c-5.054 0-9.167 4.114-9.167 9.167a9.164 9.164 0 003.125 6.892.418.418 0 01-.55.627A10.006 10.006 0 016 14C6 8.487 10.486 4 16 4s10 4.487 10 10c0 5.514-4.487 10-10 10z" fill="#000"/><path d="M14.76 20.773c-.256 0-.507-.052-.744-.152l-1.291-.547c-1.911-.811-2.078-4.33-.38-8.012 1.436-3.114 3.735-5.289 5.593-5.289.299 0 .584.054.844.165l1.292.547c.45.19.797.539.974.979.179.44.166.92-.032 1.353l-.38.826c-.399.865-1.523 1.285-2.431.903l-1.291-.547c-.33-.14-1.32.535-2.053 2.128-.328.71-.52 1.454-.527 2.04-.006.506.13.791.266.847l1.291.546c.93.397 1.352 1.44.941 2.331l-.38.824a1.86 1.86 0 01-1.692 1.058zm3.177-13.172c-1.476 0-3.541 2.061-4.802 4.796-1.603 3.474-1.325 6.383-.062 6.919l1.291.547c.486.206 1.081-.019 1.293-.48l.38-.824c.217-.473-.007-1.028-.502-1.24l-1.29-.545c-.514-.217-.791-.791-.781-1.616.008-.705.221-1.543.6-2.364.606-1.314 1.692-2.64 2.753-2.64.156 0 .305.03.441.088l1.29.547c.487.207 1.081-.02 1.293-.48l.38-.827a.892.892 0 00.019-.718.936.936 0 00-.518-.52l-1.292-.546a1.22 1.22 0 00-.493-.097z" fill="#000"/></symbol>
    <symbol fill="none" viewBox="0 0 30 30" id="twitter" xmlns="http://www.w3.org/2000/svg"><path fill-rule="evenodd" clip-rule="evenodd" d="M15 30C23.2843 30 30 23.2843 30 15C30 6.71573 23.2843 0 15 0C6.71573 0 0 6.71573 0 15C0 23.2843 6.71573 30 15 30ZM22.38 12.4725C22.38 17.25 18.7425 22.7625 12.09 22.7625C10.05 22.7625 8.145 22.1625 6.5625 21.1275C6.8475 21.165 7.1325 21.18 7.425 21.18C9.12 21.18 10.68 20.6025 11.9175 19.635C10.335 19.605 9 18.5625 8.5425 17.1225C8.7675 17.1675 8.9925 17.19 9.225 17.19C9.555 17.19 9.8775 17.145 10.1775 17.0625C8.52 16.725 7.275 15.27 7.275 13.515V13.47C7.7625 13.74 8.3175 13.905 8.91 13.92C7.935 13.275 7.2975 12.165 7.2975 10.9125C7.2975 10.2525 7.4775 9.63 7.785 9.0975C9.57 11.2875 12.2325 12.7275 15.24 12.8775C15.1725 12.615 15.1425 12.3375 15.1425 12.0525C15.1425 10.0575 16.7625 8.4375 18.7575 8.4375C19.8 8.4375 20.7375 8.8725 21.3975 9.5775C22.2225 9.4125 22.995 9.1125 23.6925 8.7C23.4225 9.5475 22.8525 10.2525 22.1025 10.7025C22.8375 10.6125 23.535 10.4175 24.18 10.1325C23.6925 10.86 23.0775 11.4975 22.3725 12.0075C22.38 12.1575 22.38 12.315 22.38 12.4725Z" fill="white"/></symbol>
    <symbol fill="none" viewBox="0 0 40 40" id="user" xmlns="http://www.w3.org/2000/svg"><path d="M32.742 10.441L7.727 9.339 4.37 25.286l27.064 7.362 1.308-22.207z" fill="#fff"/><path d="M22.913 23.267c.858-1.278 1.304-2.948 1.304-4.57 0-3.326-2.194-5.74-5.217-5.74-3.024 0-5.217 2.414-5.217 5.74 0 1.621.446 3.292 1.305 4.57-2.705.889-4.958 2.591-4.958 4.56 0 .131.05.258.14.355C12.569 30.644 15.669 32 19 32c3.332 0 6.433-1.356 8.73-3.818a.523.523 0 00.14-.356c0-1.968-2.252-3.67-4.957-4.559zm-8.087-4.57C14.826 16.361 16.26 14 19 14s4.174 2.361 4.174 4.695c0 2.383-1.295 5.74-4.174 5.74-2.879 0-4.174-3.357-4.174-5.74zM19 30.956c-2.968 0-5.733-1.18-7.815-3.327.171-1.472 2.245-2.81 4.614-3.495.827.824 1.898 1.344 3.201 1.344 1.303 0 2.374-.52 3.2-1.344 2.37.685 4.444 2.023 4.615 3.495-2.081 2.147-4.847 3.326-7.815 3.326zM19 8C12.383 8 7 13.383 7 20c0 1.71.352 3.362 1.047 4.91A.52.52 0 109 24.483 10.88 10.88 0 018.043 20C8.043 13.959 12.96 9.043 19 9.043S29.956 13.96 29.956 20c0 1.562-.32 3.07-.955 4.483a.521.521 0 10.952.427A11.918 11.918 0 0031 20c0-6.617-5.383-12-12-12z" fill="#262626"/></symbol>
</svg>