<svg width="22" height="25" viewBox="0 0 22 25" fill="none" xmlns="http://www.w3.org/2000/svg">
<path d="M7.34942 3.0203V2.46718C7.34942 1.55073 8.09192 0.8078 9.01065 0.8078H13.4319C14.3494 0.8078 15.0932 1.54434 15.0932 2.46718V3.0203H20.0814C20.9923 3.0203 21.62 3.75684 21.62 4.67968C21.62 5.59612 20.9826 6.33905 20.0814 6.33905H19.5182V21.8265C19.5182 23.0485 18.5299 24.0391 17.3147 24.0391H5.12794C3.91096 24.0391 2.92442 23.0544 2.92442 21.8265V6.33905H2.36121C1.45033 6.33905 0.711914 5.60251 0.711914 4.67968C0.711914 3.76323 1.45997 3.0203 2.36121 3.0203H7.34942ZM4.03067 21.8265C4.03067 22.442 4.52042 22.9328 5.12794 22.9328H17.3147C17.9186 22.9328 18.4119 22.4378 18.4119 21.8265V6.33905H4.03067V21.8265ZM1.81816 4.67968C1.81816 4.99019 2.05994 5.2328 2.36121 5.2328H20.0814C20.3745 5.2328 20.6244 4.98233 20.6244 4.67968C20.6244 4.36917 20.3826 4.12655 20.0814 4.12655H2.36121C2.06812 4.12655 1.81816 4.37703 1.81816 4.67968ZM13.9869 3.0203V2.46718C13.9869 2.15845 13.7416 1.91405 13.4319 1.91405H9.01065C8.70318 1.91405 8.45567 2.16141 8.45567 2.46718V3.0203H13.9869ZM16.1994 20.7203H15.0932V8.55155H16.1994V20.7203ZM11.7744 20.7203H10.6682V8.55155H11.7744V20.7203ZM7.34942 20.7203H6.24317V8.55155H7.34942V20.7203Z" fill="black"/>
</svg>
