<svg width="30" height="30" viewBox="0 0 30 30" fill="none" xmlns="http://www.w3.org/2000/svg">
<path d="M27.5 10.5L7 3.5L3 20L25.5 21L27.5 10.5Z" fill="#D7E7E8"/>
<path d="M15.9992 24C14.4017 24 13.42 23.6508 12.9983 22.9342C12.4133 21.9367 12.4767 20.9375 13 20L13.0758 19.865C13.1875 19.6642 13.4408 19.59 13.6425 19.7042C13.8442 19.8167 13.9167 20.0692 13.8042 20.2708L13.7275 20.4092C13.3267 21.1267 13.3742 21.9292 13.7175 22.5142C13.9692 22.9408 14.7583 23.1667 15.9992 23.1667C21.0533 23.1667 25.1658 19.0533 25.1658 14C25.1658 8.94667 21.0533 4.83333 15.9992 4.83333C10.945 4.83333 6.8325 8.94667 6.8325 14C6.8325 16.6392 7.97083 19.1533 9.95667 20.8925C10.13 21.0458 10.1467 21.3075 9.995 21.4817C9.8425 21.6542 9.57917 21.6717 9.40667 21.5192C7.24167 19.6192 6 16.8783 6 14C6 8.48667 10.4858 4 16 4C21.5142 4 26 8.48667 26 14C25.9992 19.5142 21.5133 24 15.9992 24Z" fill="black"/>
<path d="M14.7604 20.773C14.5037 20.773 14.253 20.7208 14.0162 20.6214L12.7248 20.0739C10.8137 19.263 10.6469 15.7443 12.3445 12.0625C13.7811 8.94808 16.0803 6.77295 17.9378 6.77295C18.2369 6.77295 18.5221 6.82679 18.7823 6.93778L20.0737 7.48529C20.524 7.6758 20.8706 8.02369 21.0478 8.46352C21.2267 8.90418 21.2138 9.38376 21.0158 9.81697L20.6364 10.6428C20.237 11.5084 19.1134 11.9283 18.2049 11.5456L16.9136 10.999C16.5842 10.8581 15.5945 11.534 14.8607 13.1269C14.5331 13.8367 14.3403 14.5805 14.3343 15.1662C14.3282 15.6731 14.4631 15.958 14.5997 16.0143L15.891 16.5602C16.8211 16.957 17.2429 18.0006 16.8323 18.891L16.4528 19.7152C16.1529 20.3588 15.4908 20.773 14.7604 20.773ZM17.937 7.60125C16.4606 7.60125 14.3957 9.66207 13.1346 12.3971C11.532 15.871 11.8095 18.78 13.0732 19.316L14.3645 19.8635C14.8495 20.0689 15.445 19.8444 15.6568 19.3839L16.0362 18.5589C16.254 18.0859 16.0302 17.531 15.5349 17.3197L14.2444 16.7739C13.731 16.5569 13.4535 15.9829 13.4639 15.1579C13.4725 14.453 13.6852 13.6147 14.0637 12.7939C14.6697 11.4802 15.7562 10.1541 16.8167 10.1541C16.9732 10.1541 17.1219 10.1839 17.2584 10.2419L18.5489 10.7886C19.0347 10.9956 19.6294 10.7695 19.8412 10.309L20.2215 9.48233C20.3278 9.25289 20.3347 8.99777 20.2396 8.76419C20.1471 8.52978 19.963 8.3459 19.7219 8.24485L18.4305 7.69817C18.2818 7.63273 18.115 7.60125 17.937 7.60125Z" fill="black"/>
</svg>
