<svg width="30" height="30" viewBox="0 0 30 30" fill="none" xmlns="http://www.w3.org/2000/svg">
    <path fill-rule="evenodd" clip-rule="evenodd" d="M15 30C23.2843 30 30 23.2843 30 15C30 6.71573 23.2843 0 15 0C6.71573 0 0 6.71573 0 15C0 23.2843 6.71573 30 15 30ZM22.38 12.4725C22.38 17.25 18.7425 22.7625 12.09 22.7625C10.05 22.7625 8.145 22.1625 6.5625 21.1275C6.8475 21.165 7.1325 21.18 7.425 21.18C9.12 21.18 10.68 20.6025 11.9175 19.635C10.335 19.605 9 18.5625 8.5425 17.1225C8.7675 17.1675 8.9925 17.19 9.225 17.19C9.555 17.19 9.8775 17.145 10.1775 17.0625C8.52 16.725 7.275 15.27 7.275 13.515V13.47C7.7625 13.74 8.3175 13.905 8.91 13.92C7.935 13.275 7.2975 12.165 7.2975 10.9125C7.2975 10.2525 7.4775 9.63 7.785 9.0975C9.57 11.2875 12.2325 12.7275 15.24 12.8775C15.1725 12.615 15.1425 12.3375 15.1425 12.0525C15.1425 10.0575 16.7625 8.4375 18.7575 8.4375C19.8 8.4375 20.7375 8.8725 21.3975 9.5775C22.2225 9.4125 22.995 9.1125 23.6925 8.7C23.4225 9.5475 22.8525 10.2525 22.1025 10.7025C22.8375 10.6125 23.535 10.4175 24.18 10.1325C23.6925 10.86 23.0775 11.4975 22.3725 12.0075C22.38 12.1575 22.38 12.315 22.38 12.4725Z" fill="white"/>
</svg>