<svg width="40" height="40" fill="none" xmlns="http://www.w3.org/2000/svg"><path d="M32.742 10.441L7.727 9.339 4.37 25.286l27.064 7.362 1.308-22.207z" fill="#fff"/><path d="M22.913 23.267c.858-1.278 1.304-2.948 1.304-4.57 0-3.326-2.194-5.74-5.217-5.74-3.024 0-5.217 2.414-5.217 5.74 0 1.621.446 3.292 1.305 4.57-2.705.889-4.958 2.591-4.958 4.56 0 .131.05.258.14.355C12.569 30.644 15.669 32 19 32c3.332 0 6.433-1.356 8.73-3.818a.523.523 0 0 0 .14-.356c0-1.968-2.252-3.67-4.957-4.559zm-8.087-4.57C14.826 16.361 16.26 14 19 14s4.174 2.361 4.174 4.695c0 2.383-1.295 5.74-4.174 5.74-2.879 0-4.174-3.357-4.174-5.74zM19 30.956c-2.968 0-5.733-1.18-7.815-3.327.171-1.472 2.245-2.81 4.614-3.495.827.824 1.898 1.344 3.201 1.344 1.303 0 2.374-.52 3.2-1.344 2.37.685 4.444 2.023 4.615 3.495-2.081 2.147-4.847 3.326-7.815 3.326zM19 8C12.383 8 7 13.383 7 20c0 1.71.352 3.362 1.047 4.91A.52.52 0 1 0 9 24.483 10.88 10.88 0 0 1 8.043 20C8.043 13.959 12.96 9.043 19 9.043S29.956 13.96 29.956 20c0 1.562-.32 3.07-.955 4.483a.521.521 0 1 0 .952.427A11.918 11.918 0 0 0 31 20c0-6.617-5.383-12-12-12z" fill="#262626"/></svg>